{
	"asset":{
		"generator":"Khronos glTF Blender I/O v4.0.44",
		"version":"2.0"
	},
	"extensionsUsed":[
		"KHR_materials_specular",
		"KHR_materials_ior"
	],
	"scene":0,
	"scenes":[
		{
			"name":"Scene",
			"nodes":[
				5
			]
		}
	],
	"nodes":[
		{
			"name":"n001_object_00008000",
			"translation":[
				0,
				-0.8607670068740845,
				1.248979926109314
			]
		},
		{
			"children":[
				0
			],
			"name":"n000_object_0000887C",
			"rotation":[
				-0.7071067690849304,
				0,
				0,
				0.7071067690849304
			],
			"translation":[
				9.999999747378752e-05,
				0,
				0
			]
		},
		{
			"mesh":0,
			"name":"meshnode_0",
			"skin":0
		},
		{
			"mesh":1,
			"name":"meshnode_1",
			"skin":0
		},
		{
			"mesh":2,
			"name":"meshnode_2",
			"skin":0
		},
		{
			"children":[
				2,
				3,
				4,
				1
			],
			"name":"Armature",
			"rotation":[
				0.7071068286895752,
				0,
				0,
				0.7071068286895752
			]
		}
	],
	"materials":[
		{
			"doubleSided":true,
			"extensions":{
				"KHR_materials_specular":{
					"specularFactor":0
				},
				"KHR_materials_ior":{
					"ior":1.4500000476837158
				}
			},
			"name":"attach_00008864_material_0",
			"pbrMetallicRoughness":{
				"baseColorTexture":{
					"index":0
				},
				"metallicFactor":0,
				"roughnessFactor":0.5
			}
		},
		{
			"doubleSided":true,
			"extensions":{
				"KHR_materials_specular":{
					"specularFactor":0
				},
				"KHR_materials_ior":{
					"ior":1.4500000476837158
				}
			},
			"name":"attach_00008864_material_1",
			"pbrMetallicRoughness":{
				"baseColorTexture":{
					"index":1
				},
				"metallicFactor":0,
				"roughnessFactor":0.5
			}
		},
		{
			"alphaMode":"BLEND",
			"doubleSided":true,
			"extensions":{
				"KHR_materials_specular":{
					"specularFactor":0
				},
				"KHR_materials_ior":{
					"ior":1.4500000476837158
				}
			},
			"name":"attach_00007FE8_material_0",
			"pbrMetallicRoughness":{
				"baseColorTexture":{
					"index":2
				},
				"metallicFactor":0,
				"roughnessFactor":0.5
			}
		}
	],
	"meshes":[
		{
			"name":"meshId0_name",
			"primitives":[
				{
					"attributes":{
						"POSITION":0,
						"NORMAL":1,
						"TEXCOORD_0":2,
						"JOINTS_0":3,
						"WEIGHTS_0":4
					},
					"indices":5,
					"material":0
				}
			]
		},
		{
			"name":"meshId1_name",
			"primitives":[
				{
					"attributes":{
						"POSITION":7,
						"NORMAL":8,
						"TEXCOORD_0":9,
						"JOINTS_0":10,
						"WEIGHTS_0":11
					},
					"indices":12,
					"material":1
				}
			]
		},
		{
			"name":"meshId2_name",
			"primitives":[
				{
					"attributes":{
						"POSITION":13,
						"NORMAL":14,
						"TEXCOORD_0":15,
						"JOINTS_0":16,
						"WEIGHTS_0":17
					},
					"indices":18,
					"material":2
				}
			]
		}
	],
	"textures":[
		{
			"sampler":0,
			"source":0
		},
		{
			"sampler":0,
			"source":1
		},
		{
			"sampler":0,
			"source":2
		}
	],
	"images":[
		{
			"mimeType":"image/png",
			"name":"pen_helmet.png",
			"uri":"pen_helmet.png"
		},
		{
			"mimeType":"image/png",
			"name":"pen_heltop.png",
			"uri":"pen_heltop.png"
		},
		{
			"mimeType":"image/png",
			"name":"visorcolor.png",
			"uri":"visorcolor.png"
		}
	],
	"skins":[
		{
			"inverseBindMatrices":6,
			"joints":[
				1,
				0
			],
			"name":"Armature"
		}
	],
	"accessors":[
		{
			"bufferView":0,
			"componentType":5126,
			"count":41,
			"max":[
				3.1407008171081543,
				1.0147128105163574,
				3.6453475952148438
			],
			"min":[
				-3.136314630508423,
				-2.169626235961914,
				-1.131532073020935
			],
			"type":"VEC3"
		},
		{
			"bufferView":1,
			"componentType":5126,
			"count":41,
			"type":"VEC3"
		},
		{
			"bufferView":2,
			"componentType":5126,
			"count":41,
			"type":"VEC2"
		},
		{
			"bufferView":3,
			"componentType":5121,
			"count":41,
			"type":"VEC4"
		},
		{
			"bufferView":4,
			"componentType":5126,
			"count":41,
			"type":"VEC4"
		},
		{
			"bufferView":5,
			"componentType":5123,
			"count":180,
			"type":"SCALAR"
		},
		{
			"bufferView":6,
			"componentType":5126,
			"count":2,
			"type":"MAT4"
		},
		{
			"bufferView":7,
			"componentType":5126,
			"count":20,
			"max":[
				2.1410512924194336,
				1.7453420162200928,
				3.3032898902893066
			],
			"min":[
				-2.1410508155822754,
				0.4365924596786499,
				-0.9249326586723328
			],
			"type":"VEC3"
		},
		{
			"bufferView":8,
			"componentType":5126,
			"count":20,
			"type":"VEC3"
		},
		{
			"bufferView":9,
			"componentType":5126,
			"count":20,
			"type":"VEC2"
		},
		{
			"bufferView":10,
			"componentType":5121,
			"count":20,
			"type":"VEC4"
		},
		{
			"bufferView":11,
			"componentType":5126,
			"count":20,
			"type":"VEC4"
		},
		{
			"bufferView":12,
			"componentType":5123,
			"count":84,
			"type":"SCALAR"
		},
		{
			"bufferView":13,
			"componentType":5126,
			"count":73,
			"max":[
				3.085615873336792,
				2.2702362537384033,
				5.089922904968262
			],
			"min":[
				-3.085616111755371,
				-0.627792477607727,
				1.7983278036117554
			],
			"type":"VEC3"
		},
		{
			"bufferView":14,
			"componentType":5126,
			"count":73,
			"type":"VEC3"
		},
		{
			"bufferView":15,
			"componentType":5126,
			"count":73,
			"type":"VEC2"
		},
		{
			"bufferView":16,
			"componentType":5121,
			"count":73,
			"type":"VEC4"
		},
		{
			"bufferView":17,
			"componentType":5126,
			"count":73,
			"type":"VEC4"
		},
		{
			"bufferView":18,
			"componentType":5123,
			"count":144,
			"type":"SCALAR"
		}
	],
	"bufferViews":[
		{
			"buffer":0,
			"byteLength":492,
			"byteOffset":0,
			"target":34962
		},
		{
			"buffer":0,
			"byteLength":492,
			"byteOffset":492,
			"target":34962
		},
		{
			"buffer":0,
			"byteLength":328,
			"byteOffset":984,
			"target":34962
		},
		{
			"buffer":0,
			"byteLength":164,
			"byteOffset":1312,
			"target":34962
		},
		{
			"buffer":0,
			"byteLength":656,
			"byteOffset":1476,
			"target":34962
		},
		{
			"buffer":0,
			"byteLength":360,
			"byteOffset":2132,
			"target":34963
		},
		{
			"buffer":0,
			"byteLength":128,
			"byteOffset":2492
		},
		{
			"buffer":0,
			"byteLength":240,
			"byteOffset":2620,
			"target":34962
		},
		{
			"buffer":0,
			"byteLength":240,
			"byteOffset":2860,
			"target":34962
		},
		{
			"buffer":0,
			"byteLength":160,
			"byteOffset":3100,
			"target":34962
		},
		{
			"buffer":0,
			"byteLength":80,
			"byteOffset":3260,
			"target":34962
		},
		{
			"buffer":0,
			"byteLength":320,
			"byteOffset":3340,
			"target":34962
		},
		{
			"buffer":0,
			"byteLength":168,
			"byteOffset":3660,
			"target":34963
		},
		{
			"buffer":0,
			"byteLength":876,
			"byteOffset":3828,
			"target":34962
		},
		{
			"buffer":0,
			"byteLength":876,
			"byteOffset":4704,
			"target":34962
		},
		{
			"buffer":0,
			"byteLength":584,
			"byteOffset":5580,
			"target":34962
		},
		{
			"buffer":0,
			"byteLength":292,
			"byteOffset":6164,
			"target":34962
		},
		{
			"buffer":0,
			"byteLength":1168,
			"byteOffset":6456,
			"target":34962
		},
		{
			"buffer":0,
			"byteLength":288,
			"byteOffset":7624,
			"target":34963
		}
	],
	"samplers":[
		{
			"magFilter":9729,
			"minFilter":9987
		}
	],
	"buffers":[
		{
			"byteLength":7912,
			"uri":"Helmet.bin"
		}
	]
}
