{
	"asset":{
		"generator":"Khronos glTF Blender I/O v4.0.44",
		"version":"2.0"
	},
	"extensionsUsed":[
		"KHR_materials_specular",
		"KHR_materials_ior"
	],
	"scene":0,
	"scenes":[
		{
			"name":"Scene",
			"nodes":[
				46
			]
		}
	],
	"nodes":[
		{
			"name":"n010_object_00002FCC",
			"rotation":[
				0,
				-7.825950376627588e-08,
				0,
				1
			],
			"translation":[
				0.00024979986483231187,
				-0.8672089576721191,
				0.8365319967269897
			]
		},
		{
			"name":"n011_object_00002F98",
			"rotation":[
				0,
				5.948384205112234e-05,
				0,
				1
			],
			"translation":[
				0.047678474336862564,
				-1.492189645767212,
				0.8336520791053772
			]
		},
		{
			"children":[
				0,
				1
			],
			"name":"n009_object_0000354C",
			"translation":[
				0.00016768588102422655,
				-0.5791241526603699,
				2.135845899581909
			]
		},
		{
			"children":[
				2
			],
			"name":"n008_object_00003580",
			"rotation":[
				0,
				-1.8632206888469227e-08,
				0,
				1
			],
			"translation":[
				-1.6263032587282567e-18,
				1.687538997430238e-14,
				-6.835421118012164e-12
			]
		},
		{
			"name":"n013_object_00002BD0",
			"translation":[
				-0.7929640412330627,
				-0.00024193320132326335,
				7.788246148265898e-05
			]
		},
		{
			"name":"n014_object_0000287C",
			"translation":[
				0.7929641008377075,
				0.00021416154049802572,
				1.1057504707423504e-05
			]
		},
		{
			"children":[
				4,
				5
			],
			"name":"n012_object_00002C04",
			"rotation":[
				0,
				-2.0272391338949092e-05,
				0,
				1
			],
			"translation":[
				-4.0640137740410864e-05,
				0.14553290605545044,
				2.3411920070648193
			]
		},
		{
			"name":"n016_object_000024F4",
			"translation":[
				0.004092930816113949,
				8.705289360477764e-07,
				-1.8127598977457637e-08
			]
		},
		{
			"name":"n017_object_00001F34",
			"translation":[
				0.001326024066656828,
				8.705289360477764e-07,
				-1.7364810034337097e-08
			]
		},
		{
			"children":[
				7,
				8
			],
			"name":"n015_object_00002528",
			"rotation":[
				0,
				-1.8632206888469227e-08,
				0,
				1
			],
			"translation":[
				-0.0025228369049727917,
				-0.03333695977926254,
				1.1012940406799316
			]
		},
		{
			"name":"n018_object_00001964",
			"rotation":[
				0,
				-1.8632206888469227e-08,
				0,
				1
			],
			"translation":[
				-0.0006873388774693012,
				2.3896262645721436,
				-0.5397287011146545
			]
		},
		{
			"children":[
				3,
				6,
				9,
				10
			],
			"name":"n007_object_000035B4",
			"rotation":[
				-1.5348244945181803e-16,
				-0.7233551144599915,
				3.6593064359886223e-23,
				0.6904762387275696
			],
			"translation":[
				5.005704402923584,
				-0.0206606388092041,
				0.23294399678707123
			]
		},
		{
			"children":[
				11
			],
			"name":"n006_object_000035E8",
			"rotation":[
				-5.545114754962323e-17,
				-1.862645149230957e-09,
				-2.5804329342510226e-18,
				1
			],
			"translation":[
				-5.005704402923584,
				0.020659545436501503,
				-0.23294402658939362
			]
		},
		{
			"children":[
				12
			],
			"name":"n005_object_0000361C",
			"rotation":[
				0,
				0.023248901590704918,
				0,
				0.9997296929359436
			],
			"translation":[
				4.586214519264331e-09,
				1.1920928955078125e-06,
				-4.801445907531843e-10
			]
		},
		{
			"children":[
				13
			],
			"name":"n004_object_00003650",
			"rotation":[
				0,
				-4.798174268216826e-05,
				0,
				1
			],
			"translation":[
				1.76459415968111e-08,
				0,
				7.761312426080025e-12
			]
		},
		{
			"name":"n019_object_00001930",
			"rotation":[
				0,
				-0.7070927023887634,
				0,
				0.7071208357810974
			],
			"translation":[
				2.339998960494995,
				-0.3765488266944885,
				0.00026000651996582747
			]
		},
		{
			"children":[
				14,
				15
			],
			"name":"n003_object_00003684",
			"translation":[
				-2.2325757242924738e-07,
				2.9562408924102783,
				-0.0002834260230883956
			]
		},
		{
			"children":[
				16
			],
			"name":"n002_object_000036B8",
			"rotation":[
				0,
				4.798174268216826e-05,
				0,
				1
			],
			"translation":[
				9.588799088078304e-09,
				0,
				-3.010084043998662e-15
			]
		},
		{
			"children":[
				17
			],
			"name":"n001_object_000036EC",
			"rotation":[
				0,
				0.7071066498756409,
				0,
				0.70710688829422
			]
		},
		{
			"name":"n027_object_00001790",
			"rotation":[
				0,
				-0.7071007490158081,
				0,
				0.7071127891540527
			],
			"translation":[
				2.4762158393859863,
				0.45006704330444336,
				9.936684364220127e-07
			]
		},
		{
			"children":[
				19
			],
			"name":"n026_object_000017C4",
			"translation":[
				-2.4761977195739746,
				-0.4514593482017517,
				-8.403333140449831e-07
			]
		},
		{
			"children":[
				20
			],
			"name":"n025_object_000017F8",
			"translation":[
				-1.0108593073709926e-07,
				9.615563385523274e-07,
				3.99456787647523e-08
			]
		},
		{
			"children":[
				21
			],
			"name":"n024_object_0000182C",
			"translation":[
				-1.8198546968051232e-05,
				0.0013921339996159077,
				3.9945962981846606e-08
			]
		},
		{
			"children":[
				22
			],
			"name":"n023_object_00001860",
			"translation":[
				1.4008121490478516,
				-1.3372740745544434,
				5.168316192794009e-07
			]
		},
		{
			"children":[
				23
			],
			"name":"n022_object_00001894",
			"translation":[
				-1.3020515441894531,
				-1.3151001930236816,
				-4.7636231670367124e-07
			]
		},
		{
			"children":[
				24
			],
			"name":"n021_object_000018C8",
			"translation":[
				5.275069270282984e-11,
				-1.1878212546889699e-07,
				1.5085962701277822e-08
			]
		},
		{
			"children":[
				25
			],
			"name":"n020_object_000018FC",
			"rotation":[
				0,
				0.7071077227592468,
				0,
				0.707105815410614
			],
			"scale":[
				1,
				0.9999999403953552,
				1
			],
			"translation":[
				-1.1400079727172852,
				-0.25996899604797363,
				-0.0056579806841909885
			]
		},
		{
			"name":"n035_object_000015F0",
			"rotation":[
				0,
				-0.7071007490158081,
				0,
				0.7071127891540527
			],
			"translation":[
				2.476388931274414,
				0.44911718368530273,
				1.1128784080938203e-06
			]
		},
		{
			"children":[
				27
			],
			"name":"n034_object_00001624",
			"translation":[
				-2.476370334625244,
				-0.4505094885826111,
				-8.40794427858782e-07
			]
		},
		{
			"children":[
				28
			],
			"name":"n033_object_00001658",
			"translation":[
				1.0053491905637202e-07,
				7.881986618940573e-09,
				3.994556507791458e-08
			]
		},
		{
			"children":[
				29
			],
			"name":"n032_object_0000168C",
			"translation":[
				-1.8205540982307866e-05,
				0.0013921339996159077,
				3.9945309282529706e-08
			]
		},
		{
			"children":[
				30
			],
			"name":"n031_object_000016C0",
			"translation":[
				1.4008126258850098,
				-1.3372739553451538,
				5.168309940017934e-07
			]
		},
		{
			"children":[
				31
			],
			"name":"n030_object_000016F4",
			"translation":[
				-1.3020522594451904,
				-1.315100073814392,
				-4.763641356930748e-07
			]
		},
		{
			"children":[
				32
			],
			"name":"n029_object_00001728",
			"translation":[
				4.220446214731055e-11,
				-8.897980308120168e-08,
				1.5086012439269325e-08
			]
		},
		{
			"children":[
				33
			],
			"name":"n028_object_0000175C",
			"rotation":[
				0,
				0.7071077227592468,
				0,
				0.707105815410614
			],
			"scale":[
				1,
				0.9999999403953552,
				1
			],
			"translation":[
				1.1399999856948853,
				-0.2600040137767792,
				-0.005657999310642481
			]
		},
		{
			"name":"n036_object_000015BC"
		},
		{
			"children":[
				18,
				26,
				34,
				35
			],
			"name":"n000_object_00003720",
			"rotation":[
				-0.7071067690849304,
				0,
				0,
				0.7071067690849304
			],
			"translation":[
				9.999999747378752e-05,
				0,
				0
			]
		},
		{
			"mesh":0,
			"name":"meshnode_0",
			"skin":0
		},
		{
			"mesh":1,
			"name":"meshnode_1",
			"skin":0
		},
		{
			"mesh":2,
			"name":"meshnode_2",
			"skin":0
		},
		{
			"mesh":3,
			"name":"meshnode_3",
			"skin":0
		},
		{
			"mesh":4,
			"name":"meshnode_4",
			"skin":0
		},
		{
			"mesh":5,
			"name":"meshnode_5",
			"skin":0
		},
		{
			"mesh":6,
			"name":"meshnode_6",
			"skin":0
		},
		{
			"mesh":7,
			"name":"meshnode_7",
			"skin":0
		},
		{
			"mesh":8,
			"name":"meshnode_8",
			"skin":0
		},
		{
			"children":[
				37,
				38,
				39,
				40,
				41,
				42,
				43,
				44,
				45,
				36
			],
			"name":"Armature",
			"rotation":[
				0.7071068286895752,
				0,
				0,
				0.7071068286895752
			]
		}
	],
	"materials":[
		{
			"doubleSided":true,
			"extensions":{
				"KHR_materials_specular":{
					"specularFactor":0
				},
				"KHR_materials_ior":{
					"ior":1.4499999284744263
				}
			},
			"name":"attach_00003534_material_0",
			"pbrMetallicRoughness":{
				"baseColorTexture":{
					"index":0
				},
				"metallicFactor":0,
				"roughnessFactor":0.5
			}
		},
		{
			"doubleSided":true,
			"extensions":{
				"KHR_materials_specular":{
					"specularFactor":0
				},
				"KHR_materials_ior":{
					"ior":1.4499999284744263
				}
			},
			"name":"attach_00003534_material_1",
			"pbrMetallicRoughness":{
				"baseColorTexture":{
					"index":1
				},
				"metallicFactor":0,
				"roughnessFactor":0.5
			}
		},
		{
			"doubleSided":true,
			"extensions":{
				"KHR_materials_specular":{
					"specularFactor":0
				},
				"KHR_materials_ior":{
					"ior":1.4499999284744263
				}
			},
			"name":"attach_00002F80_material_0",
			"pbrMetallicRoughness":{
				"baseColorTexture":{
					"index":2
				},
				"metallicFactor":0,
				"roughnessFactor":0.5
			}
		},
		{
			"doubleSided":true,
			"extensions":{
				"KHR_materials_specular":{
					"specularFactor":0
				},
				"KHR_materials_ior":{
					"ior":1.4499999284744263
				}
			},
			"name":"attach_00002F80_material_1",
			"pbrMetallicRoughness":{
				"baseColorTexture":{
					"index":3
				},
				"metallicFactor":0,
				"roughnessFactor":0.5
			}
		},
		{
			"doubleSided":true,
			"extensions":{
				"KHR_materials_specular":{
					"specularFactor":0
				},
				"KHR_materials_ior":{
					"ior":1.4499999284744263
				}
			},
			"name":"attach_00002BB8_material_0",
			"pbrMetallicRoughness":{
				"baseColorTexture":{
					"index":4
				},
				"metallicFactor":0,
				"roughnessFactor":0.5
			}
		},
		{
			"doubleSided":true,
			"extensions":{
				"KHR_materials_specular":{
					"specularFactor":0
				},
				"KHR_materials_ior":{
					"ior":1.4499999284744263
				}
			},
			"name":"attach_00002864_material_0",
			"pbrMetallicRoughness":{
				"baseColorTexture":{
					"index":5
				},
				"metallicFactor":0,
				"roughnessFactor":0.5
			}
		},
		{
			"doubleSided":true,
			"extensions":{
				"KHR_materials_specular":{
					"specularFactor":0
				},
				"KHR_materials_ior":{
					"ior":1.4499999284744263
				}
			},
			"name":"attach_000024DC_material_0",
			"pbrMetallicRoughness":{
				"baseColorTexture":{
					"index":6
				},
				"metallicFactor":0,
				"roughnessFactor":0.5
			}
		},
		{
			"doubleSided":true,
			"extensions":{
				"KHR_materials_specular":{
					"specularFactor":0
				},
				"KHR_materials_ior":{
					"ior":1.4499999284744263
				}
			},
			"name":"attach_00001F1C_material_0",
			"pbrMetallicRoughness":{
				"baseColorTexture":{
					"index":7
				},
				"metallicFactor":0,
				"roughnessFactor":0.5
			}
		},
		{
			"doubleSided":true,
			"extensions":{
				"KHR_materials_specular":{
					"specularFactor":0
				},
				"KHR_materials_ior":{
					"ior":1.4499999284744263
				}
			},
			"name":"attach_000015A4_material_0",
			"pbrMetallicRoughness":{
				"baseColorTexture":{
					"index":8
				},
				"metallicFactor":0,
				"roughnessFactor":0.5
			}
		}
	],
	"meshes":[
		{
			"name":"meshId0_name",
			"primitives":[
				{
					"attributes":{
						"POSITION":0,
						"NORMAL":1,
						"TEXCOORD_0":2,
						"JOINTS_0":3,
						"WEIGHTS_0":4
					},
					"indices":5,
					"material":0
				}
			]
		},
		{
			"name":"meshId1_name",
			"primitives":[
				{
					"attributes":{
						"POSITION":7,
						"NORMAL":8,
						"TEXCOORD_0":9,
						"JOINTS_0":10,
						"WEIGHTS_0":11
					},
					"indices":12,
					"material":1
				}
			]
		},
		{
			"name":"meshId2_name",
			"primitives":[
				{
					"attributes":{
						"POSITION":13,
						"NORMAL":14,
						"TEXCOORD_0":15,
						"JOINTS_0":16,
						"WEIGHTS_0":17
					},
					"indices":18,
					"material":2
				}
			]
		},
		{
			"name":"meshId3_name",
			"primitives":[
				{
					"attributes":{
						"POSITION":19,
						"NORMAL":20,
						"TEXCOORD_0":21,
						"JOINTS_0":22,
						"WEIGHTS_0":23
					},
					"indices":24,
					"material":3
				}
			]
		},
		{
			"name":"meshId4_name",
			"primitives":[
				{
					"attributes":{
						"POSITION":25,
						"NORMAL":26,
						"TEXCOORD_0":27,
						"JOINTS_0":28,
						"WEIGHTS_0":29
					},
					"indices":30,
					"material":4
				}
			]
		},
		{
			"name":"meshId5_name",
			"primitives":[
				{
					"attributes":{
						"POSITION":31,
						"NORMAL":32,
						"TEXCOORD_0":33,
						"JOINTS_0":34,
						"WEIGHTS_0":35
					},
					"indices":36,
					"material":5
				}
			]
		},
		{
			"name":"meshId6_name",
			"primitives":[
				{
					"attributes":{
						"POSITION":37,
						"NORMAL":38,
						"TEXCOORD_0":39,
						"JOINTS_0":40,
						"WEIGHTS_0":41
					},
					"indices":42,
					"material":6
				}
			]
		},
		{
			"name":"meshId7_name",
			"primitives":[
				{
					"attributes":{
						"POSITION":43,
						"NORMAL":44,
						"TEXCOORD_0":45,
						"JOINTS_0":46,
						"WEIGHTS_0":47
					},
					"indices":48,
					"material":7
				}
			]
		},
		{
			"name":"meshId8_name",
			"primitives":[
				{
					"attributes":{
						"POSITION":49,
						"NORMAL":50,
						"TEXCOORD_0":51,
						"JOINTS_0":52,
						"WEIGHTS_0":53
					},
					"indices":54,
					"material":8
				}
			]
		}
	],
	"textures":[
		{
			"sampler":0,
			"source":0
		},
		{
			"sampler":0,
			"source":1
		},
		{
			"sampler":0,
			"source":0
		},
		{
			"sampler":0,
			"source":2
		},
		{
			"sampler":0,
			"source":3
		},
		{
			"sampler":0,
			"source":3
		},
		{
			"sampler":0,
			"source":4
		},
		{
			"sampler":0,
			"source":4
		},
		{
			"sampler":0,
			"source":5
		}
	],
	"images":[
		{
			"mimeType":"image/png",
			"name":"PEN_BETA2_o4.png",
			"uri":"PEN_BETA2_o4.png"
		},
		{
			"mimeType":"image/png",
			"name":"pen_uwaago_o4.png",
			"uri":"pen_uwaago_o4.png"
		},
		{
			"mimeType":"image/png",
			"name":"pen_sitaago_o4.png",
			"uri":"pen_sitaago_o4.png"
		},
		{
			"mimeType":"image/png",
			"name":"pen_eye1_o4.png",
			"uri":"pen_eye1_o4.png"
		},
		{
			"mimeType":"image/png",
			"name":"pen_arm_o4.png",
			"uri":"pen_arm_o4.png"
		},
		{
			"mimeType":"image/png",
			"name":"pen_body_o4.png",
			"uri":"pen_body_o4.png"
		}
	],
	"skins":[
		{
			"inverseBindMatrices":6,
			"joints":[
				36,
				18,
				17,
				16,
				14,
				13,
				12,
				11,
				3,
				2,
				0,
				1,
				6,
				4,
				5,
				9,
				7,
				8,
				10,
				15,
				26,
				25,
				24,
				23,
				22,
				21,
				20,
				19,
				34,
				33,
				32,
				31,
				30,
				29,
				28,
				27,
				35
			],
			"name":"Armature"
		}
	],
	"accessors":[
		{
			"bufferView":0,
			"componentType":5126,
			"count":30,
			"max":[
				2.5892210006713867,
				3.103731155395508,
				5.231478214263916
			],
			"min":[
				-2.589193105697632,
				0.08811163902282715,
				0.3445836901664734
			],
			"type":"VEC3"
		},
		{
			"bufferView":1,
			"componentType":5126,
			"count":30,
			"type":"VEC3"
		},
		{
			"bufferView":2,
			"componentType":5126,
			"count":30,
			"type":"VEC2"
		},
		{
			"bufferView":3,
			"componentType":5121,
			"count":30,
			"type":"VEC4"
		},
		{
			"bufferView":4,
			"componentType":5126,
			"count":30,
			"type":"VEC4"
		},
		{
			"bufferView":5,
			"componentType":5123,
			"count":144,
			"type":"SCALAR"
		},
		{
			"bufferView":6,
			"componentType":5126,
			"count":37,
			"type":"MAT4"
		},
		{
			"bufferView":7,
			"componentType":5126,
			"count":9,
			"max":[
				1.9168330430984497,
				1.8289543390274048,
				5.112721920013428
			],
			"min":[
				-1.916279911994934,
				0.08811163902282715,
				2.986078977584839
			],
			"type":"VEC3"
		},
		{
			"bufferView":8,
			"componentType":5126,
			"count":9,
			"type":"VEC3"
		},
		{
			"bufferView":9,
			"componentType":5126,
			"count":9,
			"type":"VEC2"
		},
		{
			"bufferView":10,
			"componentType":5121,
			"count":9,
			"type":"VEC4"
		},
		{
			"bufferView":11,
			"componentType":5126,
			"count":9,
			"type":"VEC4"
		},
		{
			"bufferView":12,
			"componentType":5123,
			"count":24,
			"type":"SCALAR"
		},
		{
			"bufferView":13,
			"componentType":5126,
			"count":12,
			"max":[
				2.1819610595703125,
				2.3160932064056396,
				4.177434921264648
			],
			"min":[
				-2.188788890838623,
				-0.6589422225952148,
				1.4911348819732666
			],
			"type":"VEC3"
		},
		{
			"bufferView":14,
			"componentType":5126,
			"count":12,
			"type":"VEC3"
		},
		{
			"bufferView":15,
			"componentType":5126,
			"count":12,
			"type":"VEC2"
		},
		{
			"bufferView":16,
			"componentType":5121,
			"count":12,
			"type":"VEC4"
		},
		{
			"bufferView":17,
			"componentType":5126,
			"count":12,
			"type":"VEC4"
		},
		{
			"bufferView":18,
			"componentType":5123,
			"count":39,
			"type":"SCALAR"
		},
		{
			"bufferView":19,
			"componentType":5126,
			"count":14,
			"max":[
				2.1819610595703125,
				2.426971197128296,
				4.191835880279541
			],
			"min":[
				-2.188788890838623,
				-0.6589422225952148,
				2.218249797821045
			],
			"type":"VEC3"
		},
		{
			"bufferView":20,
			"componentType":5126,
			"count":14,
			"type":"VEC3"
		},
		{
			"bufferView":21,
			"componentType":5126,
			"count":14,
			"type":"VEC2"
		},
		{
			"bufferView":22,
			"componentType":5121,
			"count":14,
			"type":"VEC4"
		},
		{
			"bufferView":23,
			"componentType":5126,
			"count":14,
			"type":"VEC4"
		},
		{
			"bufferView":24,
			"componentType":5123,
			"count":51,
			"type":"SCALAR"
		},
		{
			"bufferView":25,
			"componentType":5126,
			"count":19,
			"max":[
				0.32076311111450195,
				5.36476993560791,
				3.711822748184204
			],
			"min":[
				-1.9069509506225586,
				1.7476762533187866,
				0.8765583634376526
			],
			"type":"VEC3"
		},
		{
			"bufferView":26,
			"componentType":5126,
			"count":19,
			"type":"VEC3"
		},
		{
			"bufferView":27,
			"componentType":5126,
			"count":19,
			"type":"VEC2"
		},
		{
			"bufferView":28,
			"componentType":5121,
			"count":19,
			"type":"VEC4"
		},
		{
			"bufferView":29,
			"componentType":5126,
			"count":19,
			"type":"VEC4"
		},
		{
			"bufferView":30,
			"componentType":5123,
			"count":90,
			"type":"SCALAR"
		},
		{
			"bufferView":31,
			"componentType":5126,
			"count":19,
			"max":[
				1.9066909551620483,
				5.365225791931152,
				3.7118208408355713
			],
			"min":[
				-0.32102298736572266,
				1.7481322288513184,
				0.8765568733215332
			],
			"type":"VEC3"
		},
		{
			"bufferView":32,
			"componentType":5126,
			"count":19,
			"type":"VEC3"
		},
		{
			"bufferView":33,
			"componentType":5126,
			"count":19,
			"type":"VEC2"
		},
		{
			"bufferView":34,
			"componentType":5121,
			"count":19,
			"type":"VEC4"
		},
		{
			"bufferView":35,
			"componentType":5126,
			"count":19,
			"type":"VEC4"
		},
		{
			"bufferView":36,
			"componentType":5123,
			"count":90,
			"type":"SCALAR"
		},
		{
			"bufferView":37,
			"componentType":5126,
			"count":39,
			"max":[
				-0.00043293897761031985,
				6.414865016937256,
				2.8047075271606445
			],
			"min":[
				-2.1872239112854004,
				1.6245851516723633,
				-0.9003497362136841
			],
			"type":"VEC3"
		},
		{
			"bufferView":38,
			"componentType":5126,
			"count":39,
			"type":"VEC3"
		},
		{
			"bufferView":39,
			"componentType":5126,
			"count":39,
			"type":"VEC2"
		},
		{
			"bufferView":40,
			"componentType":5121,
			"count":39,
			"type":"VEC4"
		},
		{
			"bufferView":41,
			"componentType":5126,
			"count":39,
			"type":"VEC4"
		},
		{
			"bufferView":42,
			"componentType":5123,
			"count":192,
			"type":"SCALAR"
		},
		{
			"bufferView":43,
			"componentType":5126,
			"count":44,
			"max":[
				2.187023878097534,
				6.414789199829102,
				2.804706573486328
			],
			"min":[
				0.000302061002003029,
				1.6244261264801025,
				-0.9003506302833557
			],
			"type":"VEC3"
		},
		{
			"bufferView":44,
			"componentType":5126,
			"count":44,
			"type":"VEC3"
		},
		{
			"bufferView":45,
			"componentType":5126,
			"count":44,
			"type":"VEC2"
		},
		{
			"bufferView":46,
			"componentType":5121,
			"count":44,
			"type":"VEC4"
		},
		{
			"bufferView":47,
			"componentType":5126,
			"count":44,
			"type":"VEC4"
		},
		{
			"bufferView":48,
			"componentType":5123,
			"count":192,
			"type":"SCALAR"
		},
		{
			"bufferView":49,
			"componentType":5126,
			"count":147,
			"max":[
				4.9513020515441895,
				4.275253772735596,
				3.0959980487823486
			],
			"min":[
				-4.950259685516357,
				-3.3475730419158936,
				-2.6761879920959473
			],
			"type":"VEC3"
		},
		{
			"bufferView":50,
			"componentType":5126,
			"count":147,
			"type":"VEC3"
		},
		{
			"bufferView":51,
			"componentType":5126,
			"count":147,
			"type":"VEC2"
		},
		{
			"bufferView":52,
			"componentType":5121,
			"count":147,
			"type":"VEC4"
		},
		{
			"bufferView":53,
			"componentType":5126,
			"count":147,
			"type":"VEC4"
		},
		{
			"bufferView":54,
			"componentType":5123,
			"count":816,
			"type":"SCALAR"
		}
	],
	"bufferViews":[
		{
			"buffer":0,
			"byteLength":360,
			"byteOffset":0,
			"target":34962
		},
		{
			"buffer":0,
			"byteLength":360,
			"byteOffset":360,
			"target":34962
		},
		{
			"buffer":0,
			"byteLength":240,
			"byteOffset":720,
			"target":34962
		},
		{
			"buffer":0,
			"byteLength":120,
			"byteOffset":960,
			"target":34962
		},
		{
			"buffer":0,
			"byteLength":480,
			"byteOffset":1080,
			"target":34962
		},
		{
			"buffer":0,
			"byteLength":288,
			"byteOffset":1560,
			"target":34963
		},
		{
			"buffer":0,
			"byteLength":2368,
			"byteOffset":1848
		},
		{
			"buffer":0,
			"byteLength":108,
			"byteOffset":4216,
			"target":34962
		},
		{
			"buffer":0,
			"byteLength":108,
			"byteOffset":4324,
			"target":34962
		},
		{
			"buffer":0,
			"byteLength":72,
			"byteOffset":4432,
			"target":34962
		},
		{
			"buffer":0,
			"byteLength":36,
			"byteOffset":4504,
			"target":34962
		},
		{
			"buffer":0,
			"byteLength":144,
			"byteOffset":4540,
			"target":34962
		},
		{
			"buffer":0,
			"byteLength":48,
			"byteOffset":4684,
			"target":34963
		},
		{
			"buffer":0,
			"byteLength":144,
			"byteOffset":4732,
			"target":34962
		},
		{
			"buffer":0,
			"byteLength":144,
			"byteOffset":4876,
			"target":34962
		},
		{
			"buffer":0,
			"byteLength":96,
			"byteOffset":5020,
			"target":34962
		},
		{
			"buffer":0,
			"byteLength":48,
			"byteOffset":5116,
			"target":34962
		},
		{
			"buffer":0,
			"byteLength":192,
			"byteOffset":5164,
			"target":34962
		},
		{
			"buffer":0,
			"byteLength":78,
			"byteOffset":5356,
			"target":34963
		},
		{
			"buffer":0,
			"byteLength":168,
			"byteOffset":5436,
			"target":34962
		},
		{
			"buffer":0,
			"byteLength":168,
			"byteOffset":5604,
			"target":34962
		},
		{
			"buffer":0,
			"byteLength":112,
			"byteOffset":5772,
			"target":34962
		},
		{
			"buffer":0,
			"byteLength":56,
			"byteOffset":5884,
			"target":34962
		},
		{
			"buffer":0,
			"byteLength":224,
			"byteOffset":5940,
			"target":34962
		},
		{
			"buffer":0,
			"byteLength":102,
			"byteOffset":6164,
			"target":34963
		},
		{
			"buffer":0,
			"byteLength":228,
			"byteOffset":6268,
			"target":34962
		},
		{
			"buffer":0,
			"byteLength":228,
			"byteOffset":6496,
			"target":34962
		},
		{
			"buffer":0,
			"byteLength":152,
			"byteOffset":6724,
			"target":34962
		},
		{
			"buffer":0,
			"byteLength":76,
			"byteOffset":6876,
			"target":34962
		},
		{
			"buffer":0,
			"byteLength":304,
			"byteOffset":6952,
			"target":34962
		},
		{
			"buffer":0,
			"byteLength":180,
			"byteOffset":7256,
			"target":34963
		},
		{
			"buffer":0,
			"byteLength":228,
			"byteOffset":7436,
			"target":34962
		},
		{
			"buffer":0,
			"byteLength":228,
			"byteOffset":7664,
			"target":34962
		},
		{
			"buffer":0,
			"byteLength":152,
			"byteOffset":7892,
			"target":34962
		},
		{
			"buffer":0,
			"byteLength":76,
			"byteOffset":8044,
			"target":34962
		},
		{
			"buffer":0,
			"byteLength":304,
			"byteOffset":8120,
			"target":34962
		},
		{
			"buffer":0,
			"byteLength":180,
			"byteOffset":8424,
			"target":34963
		},
		{
			"buffer":0,
			"byteLength":468,
			"byteOffset":8604,
			"target":34962
		},
		{
			"buffer":0,
			"byteLength":468,
			"byteOffset":9072,
			"target":34962
		},
		{
			"buffer":0,
			"byteLength":312,
			"byteOffset":9540,
			"target":34962
		},
		{
			"buffer":0,
			"byteLength":156,
			"byteOffset":9852,
			"target":34962
		},
		{
			"buffer":0,
			"byteLength":624,
			"byteOffset":10008,
			"target":34962
		},
		{
			"buffer":0,
			"byteLength":384,
			"byteOffset":10632,
			"target":34963
		},
		{
			"buffer":0,
			"byteLength":528,
			"byteOffset":11016,
			"target":34962
		},
		{
			"buffer":0,
			"byteLength":528,
			"byteOffset":11544,
			"target":34962
		},
		{
			"buffer":0,
			"byteLength":352,
			"byteOffset":12072,
			"target":34962
		},
		{
			"buffer":0,
			"byteLength":176,
			"byteOffset":12424,
			"target":34962
		},
		{
			"buffer":0,
			"byteLength":704,
			"byteOffset":12600,
			"target":34962
		},
		{
			"buffer":0,
			"byteLength":384,
			"byteOffset":13304,
			"target":34963
		},
		{
			"buffer":0,
			"byteLength":1764,
			"byteOffset":13688,
			"target":34962
		},
		{
			"buffer":0,
			"byteLength":1764,
			"byteOffset":15452,
			"target":34962
		},
		{
			"buffer":0,
			"byteLength":1176,
			"byteOffset":17216,
			"target":34962
		},
		{
			"buffer":0,
			"byteLength":588,
			"byteOffset":18392,
			"target":34962
		},
		{
			"buffer":0,
			"byteLength":2352,
			"byteOffset":18980,
			"target":34962
		},
		{
			"buffer":0,
			"byteLength":1632,
			"byteOffset":21332,
			"target":34963
		}
	],
	"samplers":[
		{
			"magFilter":9729,
			"minFilter":9987
		}
	],
	"buffers":[
		{
			"byteLength":22964,
			"uri":"OpponentSparky.bin"
		}
	]
}
