{
	"asset":{
		"generator":"Khronos glTF Blender I/O v4.0.44",
		"version":"2.0"
	},
	"extensionsUsed":[
		"KHR_materials_specular",
		"KHR_materials_ior"
	],
	"scene":0,
	"scenes":[
		{
			"name":"Scene",
			"nodes":[
				51
			]
		}
	],
	"nodes":[
		{
			"name":"n010_object_00003874",
			"rotation":[
				0,
				-1.2871950275439303e-05,
				0,
				1
			],
			"translation":[
				0.0002499236725270748,
				-0.8675302267074585,
				0.8361994028091431
			]
		},
		{
			"name":"n011_object_0000364C",
			"rotation":[
				0,
				5.94990087847691e-05,
				0,
				1
			],
			"translation":[
				0.04767866060137749,
				-1.4925097227096558,
				0.8330805897712708
			]
		},
		{
			"children":[
				0,
				1
			],
			"name":"n009_object_0000416C",
			"rotation":[
				0,
				0,
				4.235164736271502e-22,
				1
			],
			"translation":[
				0.00016785656043794006,
				-0.5799433588981628,
				2.1356232166290283
			]
		},
		{
			"children":[
				2
			],
			"name":"n008_object_000041A0",
			"rotation":[
				0,
				2.271099219797179e-08,
				4.235164736271502e-22,
				1
			],
			"translation":[
				0,
				1.687538997430238e-14,
				-1.4210854715202004e-14
			]
		},
		{
			"name":"n013_object_000032D4",
			"rotation":[
				0,
				0,
				5.421010862427522e-20,
				1
			],
			"translation":[
				-0.9412049055099487,
				-0.00028270279290154576,
				8.383636304643005e-05
			]
		},
		{
			"name":"n014_object_00002D6C",
			"rotation":[
				0,
				0,
				5.421010862427522e-20,
				1
			],
			"translation":[
				0.9412047266960144,
				0.00025898421881720424,
				6.749268777639372e-06
			]
		},
		{
			"children":[
				4,
				5
			],
			"name":"n012_object_00003308",
			"rotation":[
				0,
				-2.0229788788128644e-05,
				5.421010862427522e-20,
				1
			],
			"translation":[
				-4.032932338304818e-05,
				0.14463335275650024,
				2.341247081756592
			]
		},
		{
			"name":"n016_object_000027D0",
			"rotation":[
				0,
				0,
				4.235164736271502e-22,
				1
			],
			"translation":[
				-3.0894446723106483e-11,
				-8.314439980949828e-08,
				-1.730977317038196e-08
			]
		},
		{
			"name":"n017_object_00002120",
			"rotation":[
				0,
				0,
				4.235164736271502e-22,
				1
			],
			"translation":[
				0.00511699914932251,
				1.347367060589022e-06,
				-1.8297223292051967e-08
			]
		},
		{
			"children":[
				7,
				8
			],
			"name":"n015_object_00002804",
			"rotation":[
				0,
				2.271099219797179e-08,
				4.235164736271502e-22,
				1
			],
			"translation":[
				-0.0025226932484656572,
				-0.033760152757167816,
				1.1012810468673706
			]
		},
		{
			"name":"n018_object_00001A7C",
			"rotation":[
				0,
				2.271099219797179e-08,
				4.235164736271502e-22,
				1
			],
			"translation":[
				-0.0006876264815218747,
				2.389831304550171,
				-0.5388118624687195
			]
		},
		{
			"children":[
				3,
				6,
				9,
				10
			],
			"name":"n007_object_000041D4",
			"rotation":[
				0,
				-0.70710688829422,
				-7.486782870840984e-23,
				0.7071066498756409
			],
			"translation":[
				5.011126518249512,
				-0.0196988582611084,
				6.33364834357053e-07
			]
		},
		{
			"children":[
				11
			],
			"name":"n006_object_00004208",
			"rotation":[
				5.293955920339377e-23,
				0,
				0,
				1
			],
			"translation":[
				-5.011126518249512,
				0.019698956981301308,
				-6.335691864478576e-07
			]
		},
		{
			"children":[
				12
			],
			"name":"n005_object_0000423C",
			"rotation":[
				5.293955920339377e-23,
				0,
				0,
				1
			],
			"translation":[
				9.313083082496121e-10,
				4.76837158203125e-07,
				-7.275876515860924e-12
			]
		},
		{
			"children":[
				13
			],
			"name":"n004_object_00004270",
			"rotation":[
				5.293955920339377e-23,
				0,
				0,
				1
			],
			"translation":[
				8.370051318706828e-10,
				-2.3841856489070778e-07,
				4.0345873343616834e-17
			]
		},
		{
			"name":"n019_object_00001A48",
			"rotation":[
				0,
				-0.7070349454879761,
				-6.132550591369871e-19,
				0.7071786522865295
			],
			"translation":[
				2.339998483657837,
				-0.37654930353164673,
				2.9581778449028207e-07
			]
		},
		{
			"children":[
				14,
				15
			],
			"name":"n003_object_000042A4",
			"rotation":[
				5.293955920339377e-23,
				0,
				0,
				1
			],
			"translation":[
				8.603251444583293e-11,
				2.9562411308288574,
				7.275958308072816e-11
			]
		},
		{
			"children":[
				16
			],
			"name":"n002_object_000042D8",
			"rotation":[
				5.293955920339377e-23,
				0,
				0,
				1
			],
			"translation":[
				-1.3010425035850288e-18,
				-1.1368683772161603e-13,
				1.4551915228366852e-11
			]
		},
		{
			"children":[
				17
			],
			"name":"n001_object_0000430C",
			"rotation":[
				0,
				0.7071067690849304,
				0,
				0.7071067690849304
			],
			"scale":[
				1,
				0.9999999403953552,
				1
			],
			"translation":[
				-7.275957614183426e-12,
				0,
				0
			]
		},
		{
			"name":"n027_object_000018A8",
			"rotation":[
				0,
				-0.7070974707603455,
				0,
				0.7071160674095154
			],
			"translation":[
				2.4762589931488037,
				0.4498288631439209,
				-9.586387932358775e-07
			]
		},
		{
			"children":[
				19
			],
			"name":"n026_object_000018DC",
			"rotation":[
				6.776263578034403e-21,
				0,
				0,
				1
			],
			"translation":[
				-2.47624135017395,
				-0.45122164487838745,
				8.00503528353147e-07
			]
		},
		{
			"children":[
				20
			],
			"name":"n025_object_00001910",
			"rotation":[
				6.776263578034403e-21,
				-1.7881393432617188e-07,
				0,
				1
			],
			"translation":[
				6.393104001745087e-08,
				1.1999652542726835e-06,
				1.5147583098951145e-07
			]
		},
		{
			"children":[
				21
			],
			"name":"n024_object_00001944",
			"rotation":[
				0,
				1.1920928955078125e-07,
				0,
				1
			],
			"translation":[
				-1.8156291844206862e-05,
				0.0013916571624577045,
				7.4059034460560724e-09
			]
		},
		{
			"children":[
				22
			],
			"name":"n023_object_00001978",
			"translation":[
				1.4006842374801636,
				-1.3374073505401611,
				-2.3094912648957688e-07
			]
		},
		{
			"children":[
				23
			],
			"name":"n022_object_000019AC",
			"translation":[
				-1.3020520210266113,
				-1.3151003122329712,
				1.1077096218059523e-07
			]
		},
		{
			"children":[
				24
			],
			"name":"n021_object_000019E0",
			"rotation":[
				0,
				-1.1920917586394353e-07,
				0,
				1
			],
			"translation":[
				-4.9074149188754745e-09,
				4.271653031295841e-10,
				2.5957496063711005e-07
			]
		},
		{
			"children":[
				25
			],
			"name":"n020_object_00001A14",
			"rotation":[
				0,
				0.7071080803871155,
				0,
				0.7071054577827454
			],
			"scale":[
				1,
				0.9999999403953552,
				1
			],
			"translation":[
				-1.1400082111358643,
				-0.25996899604797363,
				-0.005657999776303768
			]
		},
		{
			"name":"n035_object_00001708",
			"rotation":[
				0,
				-0.7070975303649902,
				0,
				0.7071160078048706
			],
			"translation":[
				2.4764320850372314,
				0.4488797187805176,
				-8.394271162615041e-07
			]
		},
		{
			"children":[
				27
			],
			"name":"n034_object_0000173C",
			"rotation":[
				6.776263578034403e-21,
				0,
				0,
				1
			],
			"translation":[
				-2.4764137268066406,
				-0.4502720236778259,
				7.999205422493105e-07
			]
		},
		{
			"children":[
				28
			],
			"name":"n033_object_00001770",
			"rotation":[
				6.776263578034403e-21,
				-1.7881393432617188e-07,
				0,
				1
			],
			"translation":[
				-2.7414046144258464e-08,
				2.4629088102301466e-07,
				3.226639577746937e-08
			]
		},
		{
			"children":[
				29
			],
			"name":"n032_object_000017A4",
			"rotation":[
				0,
				1.1920928955078125e-07,
				0,
				1
			],
			"translation":[
				-1.809892273740843e-05,
				0.001391418743878603,
				1.2661536175073707e-07
			]
		},
		{
			"children":[
				30
			],
			"name":"n031_object_000017D8",
			"translation":[
				1.400684118270874,
				-1.3374072313308716,
				-2.3094912648957688e-07
			]
		},
		{
			"children":[
				31
			],
			"name":"n030_object_0000180C",
			"translation":[
				-1.3020520210266113,
				-1.3151004314422607,
				2.2998024462594913e-07
			]
		},
		{
			"children":[
				32
			],
			"name":"n029_object_00001840",
			"rotation":[
				0,
				-1.1920917586394353e-07,
				0,
				1
			],
			"translation":[
				8.055980771359827e-09,
				4.271663023303063e-10,
				-9.805286538266955e-08
			]
		},
		{
			"children":[
				33
			],
			"name":"n028_object_00001874",
			"rotation":[
				0,
				0.7071080803871155,
				0,
				0.7071054577827454
			],
			"scale":[
				1,
				0.9999999403953552,
				1
			],
			"translation":[
				1.1400001049041748,
				-0.2600039839744568,
				-0.0056580002419650555
			]
		},
		{
			"name":"n036_object_000016D4"
		},
		{
			"children":[
				18,
				26,
				34,
				35
			],
			"name":"n000_object_00004340",
			"rotation":[
				-0.7071067690849304,
				0,
				0,
				0.7071067690849304
			],
			"translation":[
				9.999999747378752e-05,
				0,
				0
			]
		},
		{
			"mesh":0,
			"name":"meshnode_0",
			"skin":0
		},
		{
			"mesh":1,
			"name":"meshnode_1",
			"skin":0
		},
		{
			"mesh":2,
			"name":"meshnode_10",
			"skin":0
		},
		{
			"mesh":3,
			"name":"meshnode_11",
			"skin":0
		},
		{
			"mesh":4,
			"name":"meshnode_12",
			"skin":0
		},
		{
			"mesh":5,
			"name":"meshnode_13",
			"skin":0
		},
		{
			"mesh":6,
			"name":"meshnode_2",
			"skin":0
		},
		{
			"mesh":7,
			"name":"meshnode_3",
			"skin":0
		},
		{
			"mesh":8,
			"name":"meshnode_4",
			"skin":0
		},
		{
			"mesh":9,
			"name":"meshnode_5",
			"skin":0
		},
		{
			"mesh":10,
			"name":"meshnode_6",
			"skin":0
		},
		{
			"mesh":11,
			"name":"meshnode_7",
			"skin":0
		},
		{
			"mesh":12,
			"name":"meshnode_8",
			"skin":0
		},
		{
			"mesh":13,
			"name":"meshnode_9",
			"skin":0
		},
		{
			"children":[
				37,
				38,
				39,
				40,
				41,
				42,
				43,
				44,
				45,
				46,
				47,
				48,
				49,
				50,
				36
			],
			"name":"Armature",
			"rotation":[
				0.7071068286895752,
				0,
				0,
				0.7071068286895752
			]
		}
	],
	"materials":[
		{
			"doubleSided":true,
			"extensions":{
				"KHR_materials_specular":{
					"specularFactor":0
				},
				"KHR_materials_ior":{
					"ior":1.4500000476837158
				}
			},
			"name":"attach_00004154_material_0",
			"pbrMetallicRoughness":{
				"baseColorTexture":{
					"index":0
				},
				"metallicFactor":0,
				"roughnessFactor":0.5
			}
		},
		{
			"doubleSided":true,
			"extensions":{
				"KHR_materials_specular":{
					"specularFactor":0
				},
				"KHR_materials_ior":{
					"ior":1.4500000476837158
				}
			},
			"name":"attach_00004154_material_1",
			"pbrMetallicRoughness":{
				"baseColorTexture":{
					"index":1
				},
				"metallicFactor":0,
				"roughnessFactor":0.5
			}
		},
		{
			"doubleSided":true,
			"extensions":{
				"KHR_materials_specular":{
					"specularFactor":0
				},
				"KHR_materials_ior":{
					"ior":1.4500000476837158
				}
			},
			"name":"attach_000016BC_material_0",
			"pbrMetallicRoughness":{
				"baseColorTexture":{
					"index":2
				},
				"metallicFactor":0,
				"roughnessFactor":0.5
			}
		},
		{
			"doubleSided":true,
			"extensions":{
				"KHR_materials_specular":{
					"specularFactor":0
				},
				"KHR_materials_ior":{
					"ior":1.4500000476837158
				}
			},
			"name":"attach_000016BC_material_1",
			"pbrMetallicRoughness":{
				"baseColorTexture":{
					"index":3
				},
				"metallicFactor":0,
				"roughnessFactor":0.5
			}
		},
		{
			"doubleSided":true,
			"extensions":{
				"KHR_materials_specular":{
					"specularFactor":0
				},
				"KHR_materials_ior":{
					"ior":1.4500000476837158
				}
			},
			"name":"attach_000016BC_material_2",
			"pbrMetallicRoughness":{
				"baseColorTexture":{
					"index":4
				},
				"metallicFactor":0,
				"roughnessFactor":0.5
			}
		},
		{
			"doubleSided":true,
			"extensions":{
				"KHR_materials_specular":{
					"specularFactor":0
				},
				"KHR_materials_ior":{
					"ior":1.4500000476837158
				}
			},
			"name":"attach_000016BC_material_3",
			"pbrMetallicRoughness":{
				"baseColorTexture":{
					"index":5
				},
				"metallicFactor":0,
				"roughnessFactor":0.5
			}
		},
		{
			"doubleSided":true,
			"extensions":{
				"KHR_materials_specular":{
					"specularFactor":0
				},
				"KHR_materials_ior":{
					"ior":1.4500000476837158
				}
			},
			"name":"attach_00004154_material_2",
			"pbrMetallicRoughness":{
				"baseColorTexture":{
					"index":6
				},
				"metallicFactor":0,
				"roughnessFactor":0.5
			}
		},
		{
			"doubleSided":true,
			"extensions":{
				"KHR_materials_specular":{
					"specularFactor":0
				},
				"KHR_materials_ior":{
					"ior":1.4500000476837158
				}
			},
			"name":"attach_0000385C_material_0",
			"pbrMetallicRoughness":{
				"baseColorTexture":{
					"index":7
				},
				"metallicFactor":0,
				"roughnessFactor":0.5
			}
		},
		{
			"doubleSided":true,
			"extensions":{
				"KHR_materials_specular":{
					"specularFactor":0
				},
				"KHR_materials_ior":{
					"ior":1.4500000476837158
				}
			},
			"name":"attach_00003634_material_0",
			"pbrMetallicRoughness":{
				"baseColorTexture":{
					"index":8
				},
				"metallicFactor":0,
				"roughnessFactor":0.5
			}
		},
		{
			"doubleSided":true,
			"extensions":{
				"KHR_materials_specular":{
					"specularFactor":0
				},
				"KHR_materials_ior":{
					"ior":1.4500000476837158
				}
			},
			"name":"attach_00003634_material_1",
			"pbrMetallicRoughness":{
				"baseColorTexture":{
					"index":9
				},
				"metallicFactor":0,
				"roughnessFactor":0.5
			}
		},
		{
			"doubleSided":true,
			"extensions":{
				"KHR_materials_specular":{
					"specularFactor":0
				},
				"KHR_materials_ior":{
					"ior":1.4500000476837158
				}
			},
			"name":"attach_000032BC_material_0",
			"pbrMetallicRoughness":{
				"baseColorTexture":{
					"index":10
				},
				"metallicFactor":0,
				"roughnessFactor":0.5
			}
		},
		{
			"doubleSided":true,
			"extensions":{
				"KHR_materials_specular":{
					"specularFactor":0
				},
				"KHR_materials_ior":{
					"ior":1.4500000476837158
				}
			},
			"name":"attach_00002D54_material_0",
			"pbrMetallicRoughness":{
				"baseColorTexture":{
					"index":11
				},
				"metallicFactor":0,
				"roughnessFactor":0.5
			}
		},
		{
			"doubleSided":true,
			"extensions":{
				"KHR_materials_specular":{
					"specularFactor":0
				},
				"KHR_materials_ior":{
					"ior":1.4500000476837158
				}
			},
			"name":"attach_000027B8_material_0",
			"pbrMetallicRoughness":{
				"baseColorTexture":{
					"index":12
				},
				"metallicFactor":0,
				"roughnessFactor":0.5
			}
		},
		{
			"doubleSided":true,
			"extensions":{
				"KHR_materials_specular":{
					"specularFactor":0
				},
				"KHR_materials_ior":{
					"ior":1.4500000476837158
				}
			},
			"name":"attach_00002108_material_0",
			"pbrMetallicRoughness":{
				"baseColorTexture":{
					"index":13
				},
				"metallicFactor":0,
				"roughnessFactor":0.5
			}
		}
	],
	"meshes":[
		{
			"name":"meshId0_name",
			"primitives":[
				{
					"attributes":{
						"POSITION":0,
						"NORMAL":1,
						"TEXCOORD_0":2,
						"JOINTS_0":3,
						"WEIGHTS_0":4
					},
					"indices":5,
					"material":0
				}
			]
		},
		{
			"name":"meshId1_name",
			"primitives":[
				{
					"attributes":{
						"POSITION":7,
						"NORMAL":8,
						"TEXCOORD_0":9,
						"JOINTS_0":10,
						"WEIGHTS_0":11
					},
					"indices":12,
					"material":1
				}
			]
		},
		{
			"name":"meshId10_name",
			"primitives":[
				{
					"attributes":{
						"POSITION":13,
						"NORMAL":14,
						"TEXCOORD_0":15,
						"JOINTS_0":16,
						"WEIGHTS_0":17
					},
					"indices":18,
					"material":2
				}
			]
		},
		{
			"name":"meshId11_name",
			"primitives":[
				{
					"attributes":{
						"POSITION":19,
						"NORMAL":20,
						"TEXCOORD_0":21,
						"JOINTS_0":22,
						"WEIGHTS_0":23
					},
					"indices":24,
					"material":3
				}
			]
		},
		{
			"name":"meshId12_name",
			"primitives":[
				{
					"attributes":{
						"POSITION":25,
						"NORMAL":26,
						"TEXCOORD_0":27,
						"JOINTS_0":28,
						"WEIGHTS_0":29
					},
					"indices":30,
					"material":4
				}
			]
		},
		{
			"name":"meshId13_name",
			"primitives":[
				{
					"attributes":{
						"POSITION":31,
						"NORMAL":32,
						"TEXCOORD_0":33,
						"JOINTS_0":34,
						"WEIGHTS_0":35
					},
					"indices":36,
					"material":5
				}
			]
		},
		{
			"name":"meshId2_name",
			"primitives":[
				{
					"attributes":{
						"POSITION":37,
						"NORMAL":38,
						"TEXCOORD_0":39,
						"JOINTS_0":40,
						"WEIGHTS_0":41
					},
					"indices":42,
					"material":6
				}
			]
		},
		{
			"name":"meshId3_name",
			"primitives":[
				{
					"attributes":{
						"POSITION":43,
						"NORMAL":44,
						"TEXCOORD_0":45,
						"JOINTS_0":46,
						"WEIGHTS_0":47
					},
					"indices":48,
					"material":7
				}
			]
		},
		{
			"name":"meshId4_name",
			"primitives":[
				{
					"attributes":{
						"POSITION":49,
						"NORMAL":50,
						"TEXCOORD_0":51,
						"JOINTS_0":52,
						"WEIGHTS_0":53
					},
					"indices":54,
					"material":8
				}
			]
		},
		{
			"name":"meshId5_name",
			"primitives":[
				{
					"attributes":{
						"POSITION":55,
						"NORMAL":56,
						"TEXCOORD_0":57,
						"JOINTS_0":58,
						"WEIGHTS_0":59
					},
					"indices":60,
					"material":9
				}
			]
		},
		{
			"name":"meshId6_name",
			"primitives":[
				{
					"attributes":{
						"POSITION":61,
						"NORMAL":62,
						"TEXCOORD_0":63,
						"JOINTS_0":64,
						"WEIGHTS_0":65
					},
					"indices":66,
					"material":10
				}
			]
		},
		{
			"name":"meshId7_name",
			"primitives":[
				{
					"attributes":{
						"POSITION":67,
						"NORMAL":68,
						"TEXCOORD_0":69,
						"JOINTS_0":70,
						"WEIGHTS_0":71
					},
					"indices":72,
					"material":11
				}
			]
		},
		{
			"name":"meshId8_name",
			"primitives":[
				{
					"attributes":{
						"POSITION":73,
						"NORMAL":74,
						"TEXCOORD_0":75,
						"JOINTS_0":76,
						"WEIGHTS_0":77
					},
					"indices":78,
					"material":12
				}
			]
		},
		{
			"name":"meshId9_name",
			"primitives":[
				{
					"attributes":{
						"POSITION":79,
						"NORMAL":80,
						"TEXCOORD_0":81,
						"JOINTS_0":82,
						"WEIGHTS_0":83
					},
					"indices":84,
					"material":13
				}
			]
		}
	],
	"textures":[
		{
			"sampler":0,
			"source":0
		},
		{
			"sampler":0,
			"source":1
		},
		{
			"sampler":0,
			"source":2
		},
		{
			"sampler":0,
			"source":3
		},
		{
			"sampler":0,
			"source":4
		},
		{
			"sampler":0,
			"source":5
		},
		{
			"sampler":0,
			"source":6
		},
		{
			"sampler":0,
			"source":7
		},
		{
			"sampler":0,
			"source":0
		},
		{
			"sampler":0,
			"source":8
		},
		{
			"sampler":0,
			"source":9
		},
		{
			"sampler":0,
			"source":9
		},
		{
			"sampler":0,
			"source":2
		},
		{
			"sampler":0,
			"source":2
		}
	],
	"images":[
		{
			"mimeType":"image/png",
			"name":"PEN_BETA2.png",
			"uri":"PEN_BETA2.png"
		},
		{
			"mimeType":"image/png",
			"name":"pen_beta3.png",
			"uri":"pen_beta3.png"
		},
		{
			"mimeType":"image/png",
			"name":"pen_beta.png",
			"uri":"pen_beta.png"
		},
		{
			"mimeType":"image/png",
			"name":"pen_arm.png",
			"uri":"pen_arm.png"
		},
		{
			"mimeType":"image/png",
			"name":"pen_buck.png",
			"uri":"pen_buck.png"
		},
		{
			"mimeType":"image/png",
			"name":"pen_body.png",
			"uri":"pen_body.png"
		},
		{
			"mimeType":"image/png",
			"name":"pen_uwaago.png",
			"uri":"pen_uwaago.png"
		},
		{
			"mimeType":"image/png",
			"name":"pen_ha1.png",
			"uri":"pen_ha1.png"
		},
		{
			"mimeType":"image/png",
			"name":"pen_sitaago.png",
			"uri":"pen_sitaago.png"
		},
		{
			"mimeType":"image/png",
			"name":"pen_eye1.png",
			"uri":"pen_eye1.png"
		}
	],
	"skins":[
		{
			"inverseBindMatrices":6,
			"joints":[
				36,
				18,
				17,
				16,
				14,
				13,
				12,
				11,
				3,
				2,
				0,
				1,
				6,
				4,
				5,
				9,
				7,
				8,
				10,
				15,
				26,
				25,
				24,
				23,
				22,
				21,
				20,
				19,
				34,
				33,
				32,
				31,
				30,
				29,
				28,
				27,
				35
			],
			"name":"Armature"
		}
	],
	"accessors":[
		{
			"bufferView":0,
			"componentType":5126,
			"count":47,
			"max":[
				2.5895049571990967,
				3.10239839553833,
				5.2313079833984375
			],
			"min":[
				-2.588909387588501,
				-0.17308640480041504,
				0.34402477741241455
			],
			"type":"VEC3"
		},
		{
			"bufferView":1,
			"componentType":5126,
			"count":47,
			"type":"VEC3"
		},
		{
			"bufferView":2,
			"componentType":5126,
			"count":47,
			"type":"VEC2"
		},
		{
			"bufferView":3,
			"componentType":5121,
			"count":47,
			"type":"VEC4"
		},
		{
			"bufferView":4,
			"componentType":5126,
			"count":47,
			"type":"VEC4"
		},
		{
			"bufferView":5,
			"componentType":5123,
			"count":231,
			"type":"SCALAR"
		},
		{
			"bufferView":6,
			"componentType":5126,
			"count":37,
			"type":"MAT4"
		},
		{
			"bufferView":7,
			"componentType":5126,
			"count":16,
			"max":[
				2.354966163635254,
				2.331031084060669,
				4.595857620239258
			],
			"min":[
				-2.3542513847351074,
				1.0100663900375366,
				2.941824436187744
			],
			"type":"VEC3"
		},
		{
			"bufferView":8,
			"componentType":5126,
			"count":16,
			"type":"VEC3"
		},
		{
			"bufferView":9,
			"componentType":5126,
			"count":16,
			"type":"VEC2"
		},
		{
			"bufferView":10,
			"componentType":5121,
			"count":16,
			"type":"VEC4"
		},
		{
			"bufferView":11,
			"componentType":5126,
			"count":16,
			"type":"VEC4"
		},
		{
			"bufferView":12,
			"componentType":5123,
			"count":42,
			"type":"SCALAR"
		},
		{
			"bufferView":13,
			"componentType":5126,
			"count":58,
			"max":[
				9.129449844360352,
				3.0206360816955566,
				1.1362507343292236
			],
			"min":[
				-9.129449844360352,
				2.01338791847229,
				-1.1404582262039185
			],
			"type":"VEC3"
		},
		{
			"bufferView":14,
			"componentType":5126,
			"count":58,
			"type":"VEC3"
		},
		{
			"bufferView":15,
			"componentType":5126,
			"count":58,
			"type":"VEC2"
		},
		{
			"bufferView":16,
			"componentType":5121,
			"count":58,
			"type":"VEC4"
		},
		{
			"bufferView":17,
			"componentType":5126,
			"count":58,
			"type":"VEC4"
		},
		{
			"bufferView":18,
			"componentType":5123,
			"count":240,
			"type":"SCALAR"
		},
		{
			"bufferView":19,
			"componentType":5126,
			"count":50,
			"max":[
				8.893254280090332,
				3.260633945465088,
				1.1362507343292236
			],
			"min":[
				-8.893254280090332,
				2.775820016860962,
				-1.1404582262039185
			],
			"type":"VEC3"
		},
		{
			"bufferView":20,
			"componentType":5126,
			"count":50,
			"type":"VEC3"
		},
		{
			"bufferView":21,
			"componentType":5126,
			"count":50,
			"type":"VEC2"
		},
		{
			"bufferView":22,
			"componentType":5121,
			"count":50,
			"type":"VEC4"
		},
		{
			"bufferView":23,
			"componentType":5126,
			"count":50,
			"type":"VEC4"
		},
		{
			"bufferView":24,
			"componentType":5123,
			"count":192,
			"type":"SCALAR"
		},
		{
			"bufferView":25,
			"componentType":5126,
			"count":47,
			"max":[
				3.1151998043060303,
				4.275253772735596,
				0.8203738331794739
			],
			"min":[
				-3.1151998043060303,
				-2.640001058578491,
				-2.6761879920959473
			],
			"type":"VEC3"
		},
		{
			"bufferView":26,
			"componentType":5126,
			"count":47,
			"type":"VEC3"
		},
		{
			"bufferView":27,
			"componentType":5126,
			"count":47,
			"type":"VEC2"
		},
		{
			"bufferView":28,
			"componentType":5121,
			"count":47,
			"type":"VEC4"
		},
		{
			"bufferView":29,
			"componentType":5126,
			"count":47,
			"type":"VEC4"
		},
		{
			"bufferView":30,
			"componentType":5123,
			"count":198,
			"type":"SCALAR"
		},
		{
			"bufferView":31,
			"componentType":5126,
			"count":43,
			"max":[
				3.1151998043060303,
				4.275253772735596,
				3.0959978103637695
			],
			"min":[
				-3.1151998043060303,
				-2.640001058578491,
				0.2799987494945526
			],
			"type":"VEC3"
		},
		{
			"bufferView":32,
			"componentType":5126,
			"count":43,
			"type":"VEC3"
		},
		{
			"bufferView":33,
			"componentType":5126,
			"count":43,
			"type":"VEC2"
		},
		{
			"bufferView":34,
			"componentType":5121,
			"count":43,
			"type":"VEC4"
		},
		{
			"bufferView":35,
			"componentType":5126,
			"count":43,
			"type":"VEC4"
		},
		{
			"bufferView":36,
			"componentType":5123,
			"count":186,
			"type":"SCALAR"
		},
		{
			"bufferView":37,
			"componentType":5126,
			"count":8,
			"max":[
				1.9171172380447388,
				1.8269928693771362,
				5.112288951873779
			],
			"min":[
				-1.9159952402114868,
				1.0100663900375366,
				2.985332489013672
			],
			"type":"VEC3"
		},
		{
			"bufferView":38,
			"componentType":5126,
			"count":8,
			"type":"VEC3"
		},
		{
			"bufferView":39,
			"componentType":5126,
			"count":8,
			"type":"VEC2"
		},
		{
			"bufferView":40,
			"componentType":5121,
			"count":8,
			"type":"VEC4"
		},
		{
			"bufferView":41,
			"componentType":5126,
			"count":8,
			"type":"VEC4"
		},
		{
			"bufferView":42,
			"componentType":5123,
			"count":21,
			"type":"SCALAR"
		},
		{
			"bufferView":43,
			"componentType":5126,
			"count":16,
			"max":[
				1.6084271669387817,
				1.8496209383010864,
				4.824244499206543
			],
			"min":[
				-1.6075884103775024,
				1.2703884840011597,
				2.9320456981658936
			],
			"type":"VEC3"
		},
		{
			"bufferView":44,
			"componentType":5126,
			"count":16,
			"type":"VEC3"
		},
		{
			"bufferView":45,
			"componentType":5126,
			"count":16,
			"type":"VEC2"
		},
		{
			"bufferView":46,
			"componentType":5121,
			"count":16,
			"type":"VEC4"
		},
		{
			"bufferView":47,
			"componentType":5126,
			"count":16,
			"type":"VEC4"
		},
		{
			"bufferView":48,
			"componentType":5123,
			"count":36,
			"type":"SCALAR"
		},
		{
			"bufferView":49,
			"componentType":5126,
			"count":17,
			"max":[
				1.7553476095199585,
				2.4260165691375732,
				4.19072961807251
			],
			"min":[
				-1.7513049840927124,
				-0.6604292392730713,
				2.0710299015045166
			],
			"type":"VEC3"
		},
		{
			"bufferView":50,
			"componentType":5126,
			"count":17,
			"type":"VEC3"
		},
		{
			"bufferView":51,
			"componentType":5126,
			"count":17,
			"type":"VEC2"
		},
		{
			"bufferView":52,
			"componentType":5121,
			"count":17,
			"type":"VEC4"
		},
		{
			"bufferView":53,
			"componentType":5126,
			"count":17,
			"type":"VEC4"
		},
		{
			"bufferView":54,
			"componentType":5123,
			"count":69,
			"type":"SCALAR"
		},
		{
			"bufferView":55,
			"componentType":5126,
			"count":8,
			"max":[
				1.6156340837478638,
				2.4260165691375732,
				4.19072961807251
			],
			"min":[
				-1.621957540512085,
				-0.19769541919231415,
				2.328085422515869
			],
			"type":"VEC3"
		},
		{
			"bufferView":56,
			"componentType":5126,
			"count":8,
			"type":"VEC3"
		},
		{
			"bufferView":57,
			"componentType":5126,
			"count":8,
			"type":"VEC2"
		},
		{
			"bufferView":58,
			"componentType":5121,
			"count":8,
			"type":"VEC4"
		},
		{
			"bufferView":59,
			"componentType":5126,
			"count":8,
			"type":"VEC4"
		},
		{
			"bufferView":60,
			"componentType":5123,
			"count":21,
			"type":"SCALAR"
		},
		{
			"bufferView":61,
			"componentType":5126,
			"count":33,
			"max":[
				0.6695253252983093,
				5.545628547668457,
				3.7137460708618164
			],
			"min":[
				-2.180299997329712,
				1.4390037059783936,
				0.8314661383628845
			],
			"type":"VEC3"
		},
		{
			"bufferView":62,
			"componentType":5126,
			"count":33,
			"type":"VEC3"
		},
		{
			"bufferView":63,
			"componentType":5126,
			"count":33,
			"type":"VEC2"
		},
		{
			"bufferView":64,
			"componentType":5121,
			"count":33,
			"type":"VEC4"
		},
		{
			"bufferView":65,
			"componentType":5126,
			"count":33,
			"type":"VEC4"
		},
		{
			"bufferView":66,
			"componentType":5123,
			"count":168,
			"type":"SCALAR"
		},
		{
			"bufferView":67,
			"componentType":5126,
			"count":33,
			"max":[
				2.1802215576171875,
				5.5462965965271,
				3.7137465476989746
			],
			"min":[
				-0.6696104407310486,
				1.439451813697815,
				0.8314667344093323
			],
			"type":"VEC3"
		},
		{
			"bufferView":68,
			"componentType":5126,
			"count":33,
			"type":"VEC3"
		},
		{
			"bufferView":69,
			"componentType":5126,
			"count":33,
			"type":"VEC2"
		},
		{
			"bufferView":70,
			"componentType":5121,
			"count":33,
			"type":"VEC4"
		},
		{
			"bufferView":71,
			"componentType":5126,
			"count":33,
			"type":"VEC4"
		},
		{
			"bufferView":72,
			"componentType":5123,
			"count":168,
			"type":"SCALAR"
		},
		{
			"bufferView":73,
			"componentType":5126,
			"count":40,
			"max":[
				2.423898935317993,
				6.187232971191406,
				3.1866261959075928
			],
			"min":[
				-0.010657470673322678,
				1.5952702760696411,
				-1.0260311365127563
			],
			"type":"VEC3"
		},
		{
			"bufferView":74,
			"componentType":5126,
			"count":40,
			"type":"VEC3"
		},
		{
			"bufferView":75,
			"componentType":5126,
			"count":40,
			"type":"VEC2"
		},
		{
			"bufferView":76,
			"componentType":5121,
			"count":40,
			"type":"VEC4"
		},
		{
			"bufferView":77,
			"componentType":5126,
			"count":40,
			"type":"VEC4"
		},
		{
			"bufferView":78,
			"componentType":5123,
			"count":228,
			"type":"SCALAR"
		},
		{
			"bufferView":79,
			"componentType":5126,
			"count":40,
			"max":[
				0.010580593720078468,
				6.187241554260254,
				3.1866278648376465
			],
			"min":[
				-2.4221699237823486,
				1.5952789783477783,
				-1.0260297060012817
			],
			"type":"VEC3"
		},
		{
			"bufferView":80,
			"componentType":5126,
			"count":40,
			"type":"VEC3"
		},
		{
			"bufferView":81,
			"componentType":5126,
			"count":40,
			"type":"VEC2"
		},
		{
			"bufferView":82,
			"componentType":5121,
			"count":40,
			"type":"VEC4"
		},
		{
			"bufferView":83,
			"componentType":5126,
			"count":40,
			"type":"VEC4"
		},
		{
			"bufferView":84,
			"componentType":5123,
			"count":228,
			"type":"SCALAR"
		}
	],
	"bufferViews":[
		{
			"buffer":0,
			"byteLength":564,
			"byteOffset":0,
			"target":34962
		},
		{
			"buffer":0,
			"byteLength":564,
			"byteOffset":564,
			"target":34962
		},
		{
			"buffer":0,
			"byteLength":376,
			"byteOffset":1128,
			"target":34962
		},
		{
			"buffer":0,
			"byteLength":188,
			"byteOffset":1504,
			"target":34962
		},
		{
			"buffer":0,
			"byteLength":752,
			"byteOffset":1692,
			"target":34962
		},
		{
			"buffer":0,
			"byteLength":462,
			"byteOffset":2444,
			"target":34963
		},
		{
			"buffer":0,
			"byteLength":2368,
			"byteOffset":2908
		},
		{
			"buffer":0,
			"byteLength":192,
			"byteOffset":5276,
			"target":34962
		},
		{
			"buffer":0,
			"byteLength":192,
			"byteOffset":5468,
			"target":34962
		},
		{
			"buffer":0,
			"byteLength":128,
			"byteOffset":5660,
			"target":34962
		},
		{
			"buffer":0,
			"byteLength":64,
			"byteOffset":5788,
			"target":34962
		},
		{
			"buffer":0,
			"byteLength":256,
			"byteOffset":5852,
			"target":34962
		},
		{
			"buffer":0,
			"byteLength":84,
			"byteOffset":6108,
			"target":34963
		},
		{
			"buffer":0,
			"byteLength":696,
			"byteOffset":6192,
			"target":34962
		},
		{
			"buffer":0,
			"byteLength":696,
			"byteOffset":6888,
			"target":34962
		},
		{
			"buffer":0,
			"byteLength":464,
			"byteOffset":7584,
			"target":34962
		},
		{
			"buffer":0,
			"byteLength":232,
			"byteOffset":8048,
			"target":34962
		},
		{
			"buffer":0,
			"byteLength":928,
			"byteOffset":8280,
			"target":34962
		},
		{
			"buffer":0,
			"byteLength":480,
			"byteOffset":9208,
			"target":34963
		},
		{
			"buffer":0,
			"byteLength":600,
			"byteOffset":9688,
			"target":34962
		},
		{
			"buffer":0,
			"byteLength":600,
			"byteOffset":10288,
			"target":34962
		},
		{
			"buffer":0,
			"byteLength":400,
			"byteOffset":10888,
			"target":34962
		},
		{
			"buffer":0,
			"byteLength":200,
			"byteOffset":11288,
			"target":34962
		},
		{
			"buffer":0,
			"byteLength":800,
			"byteOffset":11488,
			"target":34962
		},
		{
			"buffer":0,
			"byteLength":384,
			"byteOffset":12288,
			"target":34963
		},
		{
			"buffer":0,
			"byteLength":564,
			"byteOffset":12672,
			"target":34962
		},
		{
			"buffer":0,
			"byteLength":564,
			"byteOffset":13236,
			"target":34962
		},
		{
			"buffer":0,
			"byteLength":376,
			"byteOffset":13800,
			"target":34962
		},
		{
			"buffer":0,
			"byteLength":188,
			"byteOffset":14176,
			"target":34962
		},
		{
			"buffer":0,
			"byteLength":752,
			"byteOffset":14364,
			"target":34962
		},
		{
			"buffer":0,
			"byteLength":396,
			"byteOffset":15116,
			"target":34963
		},
		{
			"buffer":0,
			"byteLength":516,
			"byteOffset":15512,
			"target":34962
		},
		{
			"buffer":0,
			"byteLength":516,
			"byteOffset":16028,
			"target":34962
		},
		{
			"buffer":0,
			"byteLength":344,
			"byteOffset":16544,
			"target":34962
		},
		{
			"buffer":0,
			"byteLength":172,
			"byteOffset":16888,
			"target":34962
		},
		{
			"buffer":0,
			"byteLength":688,
			"byteOffset":17060,
			"target":34962
		},
		{
			"buffer":0,
			"byteLength":372,
			"byteOffset":17748,
			"target":34963
		},
		{
			"buffer":0,
			"byteLength":96,
			"byteOffset":18120,
			"target":34962
		},
		{
			"buffer":0,
			"byteLength":96,
			"byteOffset":18216,
			"target":34962
		},
		{
			"buffer":0,
			"byteLength":64,
			"byteOffset":18312,
			"target":34962
		},
		{
			"buffer":0,
			"byteLength":32,
			"byteOffset":18376,
			"target":34962
		},
		{
			"buffer":0,
			"byteLength":128,
			"byteOffset":18408,
			"target":34962
		},
		{
			"buffer":0,
			"byteLength":42,
			"byteOffset":18536,
			"target":34963
		},
		{
			"buffer":0,
			"byteLength":192,
			"byteOffset":18580,
			"target":34962
		},
		{
			"buffer":0,
			"byteLength":192,
			"byteOffset":18772,
			"target":34962
		},
		{
			"buffer":0,
			"byteLength":128,
			"byteOffset":18964,
			"target":34962
		},
		{
			"buffer":0,
			"byteLength":64,
			"byteOffset":19092,
			"target":34962
		},
		{
			"buffer":0,
			"byteLength":256,
			"byteOffset":19156,
			"target":34962
		},
		{
			"buffer":0,
			"byteLength":72,
			"byteOffset":19412,
			"target":34963
		},
		{
			"buffer":0,
			"byteLength":204,
			"byteOffset":19484,
			"target":34962
		},
		{
			"buffer":0,
			"byteLength":204,
			"byteOffset":19688,
			"target":34962
		},
		{
			"buffer":0,
			"byteLength":136,
			"byteOffset":19892,
			"target":34962
		},
		{
			"buffer":0,
			"byteLength":68,
			"byteOffset":20028,
			"target":34962
		},
		{
			"buffer":0,
			"byteLength":272,
			"byteOffset":20096,
			"target":34962
		},
		{
			"buffer":0,
			"byteLength":138,
			"byteOffset":20368,
			"target":34963
		},
		{
			"buffer":0,
			"byteLength":96,
			"byteOffset":20508,
			"target":34962
		},
		{
			"buffer":0,
			"byteLength":96,
			"byteOffset":20604,
			"target":34962
		},
		{
			"buffer":0,
			"byteLength":64,
			"byteOffset":20700,
			"target":34962
		},
		{
			"buffer":0,
			"byteLength":32,
			"byteOffset":20764,
			"target":34962
		},
		{
			"buffer":0,
			"byteLength":128,
			"byteOffset":20796,
			"target":34962
		},
		{
			"buffer":0,
			"byteLength":42,
			"byteOffset":20924,
			"target":34963
		},
		{
			"buffer":0,
			"byteLength":396,
			"byteOffset":20968,
			"target":34962
		},
		{
			"buffer":0,
			"byteLength":396,
			"byteOffset":21364,
			"target":34962
		},
		{
			"buffer":0,
			"byteLength":264,
			"byteOffset":21760,
			"target":34962
		},
		{
			"buffer":0,
			"byteLength":132,
			"byteOffset":22024,
			"target":34962
		},
		{
			"buffer":0,
			"byteLength":528,
			"byteOffset":22156,
			"target":34962
		},
		{
			"buffer":0,
			"byteLength":336,
			"byteOffset":22684,
			"target":34963
		},
		{
			"buffer":0,
			"byteLength":396,
			"byteOffset":23020,
			"target":34962
		},
		{
			"buffer":0,
			"byteLength":396,
			"byteOffset":23416,
			"target":34962
		},
		{
			"buffer":0,
			"byteLength":264,
			"byteOffset":23812,
			"target":34962
		},
		{
			"buffer":0,
			"byteLength":132,
			"byteOffset":24076,
			"target":34962
		},
		{
			"buffer":0,
			"byteLength":528,
			"byteOffset":24208,
			"target":34962
		},
		{
			"buffer":0,
			"byteLength":336,
			"byteOffset":24736,
			"target":34963
		},
		{
			"buffer":0,
			"byteLength":480,
			"byteOffset":25072,
			"target":34962
		},
		{
			"buffer":0,
			"byteLength":480,
			"byteOffset":25552,
			"target":34962
		},
		{
			"buffer":0,
			"byteLength":320,
			"byteOffset":26032,
			"target":34962
		},
		{
			"buffer":0,
			"byteLength":160,
			"byteOffset":26352,
			"target":34962
		},
		{
			"buffer":0,
			"byteLength":640,
			"byteOffset":26512,
			"target":34962
		},
		{
			"buffer":0,
			"byteLength":456,
			"byteOffset":27152,
			"target":34963
		},
		{
			"buffer":0,
			"byteLength":480,
			"byteOffset":27608,
			"target":34962
		},
		{
			"buffer":0,
			"byteLength":480,
			"byteOffset":28088,
			"target":34962
		},
		{
			"buffer":0,
			"byteLength":320,
			"byteOffset":28568,
			"target":34962
		},
		{
			"buffer":0,
			"byteLength":160,
			"byteOffset":28888,
			"target":34962
		},
		{
			"buffer":0,
			"byteLength":640,
			"byteOffset":29048,
			"target":34962
		},
		{
			"buffer":0,
			"byteLength":456,
			"byteOffset":29688,
			"target":34963
		}
	],
	"samplers":[
		{
			"magFilter":9729,
			"minFilter":9987
		}
	],
	"buffers":[
		{
			"byteLength":30144,
			"uri":"Sparky.bin"
		}
	]
}
