{
	"asset":{
		"generator":"Khronos glTF Blender I/O v4.0.44",
		"version":"2.0"
	},
	"scene":0,
	"scenes":[
		{
			"name":"Scene",
			"nodes":[
				50
			]
		}
	],
	"nodes":[
		{
			"name":"_09_object_000039A0",
			"rotation":[
				-1.0288141586689537e-19,
				1.0061194188892841e-07,
				-9.486771594187578e-20,
				1
			],
			"scale":[
				1,
				0.9999999403953552,
				1
			],
			"translation":[
				-0.5999988317489624,
				0.008279768750071526,
				-0.0005993610247969627
			]
		},
		{
			"name":"_10_object_00003568",
			"rotation":[
				-1.0288141586689537e-19,
				1.0061194188892841e-07,
				-9.486771594187578e-20,
				1
			],
			"scale":[
				1,
				0.9999999403953552,
				1
			],
			"translation":[
				0.6000008583068848,
				0.008240072056651115,
				-0.0005989751662127674
			]
		},
		{
			"children":[
				0,
				1
			],
			"name":"_08_object_000039D4",
			"rotation":[
				-5.427959179572968e-20,
				-8.563802111893892e-08,
				1.355252877165594e-20,
				1
			],
			"scale":[
				1,
				0.9999999403953552,
				1
			],
			"translation":[
				6.573184663238862e-08,
				-1.7345812320709229,
				1.7820501327514648
			]
		},
		{
			"name":"_12_object_0000310C",
			"rotation":[
				1.2431065460071462e-17,
				-4.7999899834394455e-05,
				-3.1170815043897667e-19,
				1
			],
			"scale":[
				1,
				0.9999999403953552,
				1
			],
			"translation":[
				6.431129406792024e-08,
				-0.22123228013515472,
				0.040809109807014465
			]
		},
		{
			"name":"_13_object_00002CD4",
			"rotation":[
				-7.662670322446227e-20,
				9.458744898438454e-11,
				-2.0328793319042622e-19,
				1
			],
			"scale":[
				1,
				0.9999999403953552,
				1
			],
			"translation":[
				-1.0007422588387271e-06,
				2.1398637294769287,
				-3.333519458770752
			]
		},
		{
			"children":[
				3,
				4
			],
			"name":"_11_object_00003140",
			"rotation":[
				-8.136975685684133e-20,
				1.832813723012805e-08,
				1.2197274440461925e-19,
				1
			],
			"scale":[
				1,
				0.9999999403953552,
				1
			],
			"translation":[
				1.3988810110276972e-08,
				-2.1371827125549316,
				0.3772830367088318
			]
		},
		{
			"name":"_15_object_00002C6C",
			"rotation":[
				-7.662670322446227e-20,
				9.458744898438454e-11,
				-2.0328793319042622e-19,
				1
			],
			"scale":[
				1,
				0.9999999403953552,
				1
			],
			"translation":[
				0.0008169998764060438,
				1.461821284465259e-06,
				-4.5643122348337783e-07
			]
		},
		{
			"name":"_16_object_00002688",
			"rotation":[
				-7.660188780608568e-20,
				-6.776263578034403e-21,
				-2.0328793319042622e-19,
				1
			],
			"scale":[
				1,
				0.9999999403953552,
				1
			],
			"translation":[
				0.005644998978823423,
				-3.008527073689038e-06,
				5.1931788647152644e-08
			]
		},
		{
			"children":[
				6,
				7
			],
			"name":"_14_object_00002CA0",
			"rotation":[
				-8.136975685684133e-20,
				1.832813723012805e-08,
				1.2197274440461925e-19,
				1
			],
			"scale":[
				1,
				0.9999999403953552,
				1
			],
			"translation":[
				-0.002531937323510647,
				-0.7420961856842041,
				1.6842268705368042
			]
		},
		{
			"children":[
				2,
				5,
				8
			],
			"name":"_07_object_00003A08",
			"rotation":[
				-2.5749824343997576e-18,
				0.9999992251396179,
				-1.213762955668983e-15,
				0.001245931489393115
			],
			"scale":[
				1,
				0.9999999403953552,
				1
			],
			"translation":[
				-2.365733962506056e-06,
				-4.022944892767555e-07,
				2.81991196970921e-06
			]
		},
		{
			"name":"_17_object_0000207C",
			"rotation":[
				-2.5749824343997576e-18,
				0.9999992251396179,
				-1.213762955668983e-15,
				0.001245931489393115
			],
			"scale":[
				1,
				0.9999999403953552,
				1
			],
			"translation":[
				0.00945192575454712,
				0.5355744361877441,
				-4.110745906829834
			]
		},
		{
			"children":[
				9,
				10
			],
			"name":"_05_object_00003A70",
			"rotation":[
				6.466511354163984e-12,
				1,
				-2.588915748447107e-09,
				9.556219447404146e-05
			],
			"translation":[
				-2.0383532362000523e-10,
				1.358310896648618e-06,
				-4.056971292243361e-08
			]
		},
		{
			"children":[
				11
			],
			"name":"_04_object_00003AA4",
			"rotation":[
				1.730648158115855e-08,
				0.7079872488975525,
				-1.7263406704159934e-08,
				0.7062252163887024
			],
			"scale":[
				1,
				0.9999999403953552,
				1
			],
			"translation":[
				9.536917104924214e-07,
				-0.000892051262781024,
				0.00039900001138448715
			]
		},
		{
			"name":"_18_object_00002048",
			"rotation":[
				0,
				0.7070590257644653,
				0,
				0.7071545124053955
			],
			"translation":[
				0.5281643867492676,
				2.6415014266967773,
				0.00046697413199581206
			]
		},
		{
			"children":[
				12,
				13
			],
			"name":"_03_object_00003AD8",
			"rotation":[
				1.0587911840678754e-22,
				1.3359940709278817e-08,
				0,
				1
			],
			"translation":[
				2.956239938735962,
				-2.2318988612823887e-07,
				-2.0821173052354425e-07
			]
		},
		{
			"children":[
				14
			],
			"name":"_02_object_00003B0C",
			"rotation":[
				-1.4972139481165329e-22,
				-0.7070392966270447,
				0,
				0.7071743011474609
			]
		},
		{
			"children":[
				15
			],
			"name":"_01_object_00003B40",
			"rotation":[
				0,
				-9.549999958835542e-05,
				0,
				1
			]
		},
		{
			"name":"_30_object_00001DD8",
			"rotation":[
				1.2982954409066432e-16,
				-0.9971053600311279,
				-8.97797325849145e-16,
				0.07603244483470917
			],
			"translation":[
				-0.058309078216552734,
				2.487614631652832,
				-0.3758809566497803
			]
		},
		{
			"children":[
				17
			],
			"name":"_29_object_00001E0C",
			"rotation":[
				-4.718447854656915e-16,
				-3.725290298461914e-08,
				-5.551115123125783e-17,
				1
			],
			"translation":[
				0.0585135892033577,
				-2.4879002571105957,
				0.3772301971912384
			]
		},
		{
			"children":[
				18
			],
			"name":"_28_object_00001E40",
			"rotation":[
				1.6921743640582634e-16,
				0.9841387271881104,
				-7.015473623272898e-16,
				0.1774006336927414
			],
			"scale":[
				1,
				0.9999999403953552,
				1
			],
			"translation":[
				2.982161504405667e-07,
				2.1097887383803027e-06,
				-4.605558387993369e-06
			]
		},
		{
			"children":[
				19
			],
			"name":"_27_object_00001E74",
			"rotation":[
				1.8212667380219103e-15,
				-0.37798362970352173,
				-2.8590871959098763e-23,
				0.925812304019928
			],
			"scale":[
				1.0000001192092896,
				1,
				1.0000001192092896
			],
			"translation":[
				-0.0011322489008307457,
				0.00028179900255054235,
				0.0007600777898915112
			]
		},
		{
			"children":[
				20
			],
			"name":"_26_object_00001EA8",
			"rotation":[
				-4.718447854656915e-16,
				3.5762786865234375e-07,
				-8.881784197001252e-16,
				1
			],
			"translation":[
				1.3351876735687256,
				1.0791817903518677,
				-0.8962134718894958
			]
		},
		{
			"children":[
				21
			],
			"name":"_25_object_00001EDC",
			"rotation":[
				-6.844783778906947e-16,
				-0.6375012397766113,
				-3.4223918894534737e-16,
				0.7704493403434753
			],
			"translation":[
				0.9140239953994751,
				-1.3164637088775635,
				0.9253634214401245
			]
		},
		{
			"children":[
				22
			],
			"name":"_24_object_00001F10",
			"rotation":[
				-2.2705981095327843e-08,
				-0.9285489320755005,
				-9.077266938106732e-09,
				0.371209979057312
			],
			"translation":[
				-4.1676685214042664e-07,
				-7.744691288280592e-07,
				-7.643684512004256e-07
			]
		},
		{
			"children":[
				23
			],
			"name":"_23_object_00001F44",
			"rotation":[
				7.792328567358199e-17,
				-0.6960999369621277,
				-2.4742056853029135e-15,
				0.7179449200630188
			],
			"scale":[
				0.9999999403953552,
				1,
				0.9999999403953552
			],
			"translation":[
				-1.14004385471344,
				0.25982633233070374,
				-0.005487040616571903
			]
		},
		{
			"name":"_38_object_00001C38",
			"rotation":[
				1.128652741021736e-16,
				-0.997119665145874,
				9.919204739809902e-16,
				0.07584453374147415
			],
			"translation":[
				-0.05778864026069641,
				2.487759590148926,
				-0.3749946653842926
			]
		},
		{
			"children":[
				25
			],
			"name":"_37_object_00001C6C",
			"rotation":[
				2.498001805406602e-16,
				5.960464477539063e-08,
				-1.3877787807814457e-16,
				1
			],
			"translation":[
				0.05799330025911331,
				-2.488044261932373,
				0.376344233751297
			]
		},
		{
			"children":[
				26
			],
			"name":"_36_object_00001CA0",
			"rotation":[
				-2.2562384852277276e-16,
				0.9841362237930298,
				9.62426680878477e-16,
				0.17741458117961884
			],
			"translation":[
				-3.574381537418958e-07,
				2.377767259531538e-06,
				9.972989118978148e-07
			]
		},
		{
			"children":[
				27
			],
			"name":"_35_object_00001CD4",
			"rotation":[
				7.494337082558216e-17,
				-0.37780603766441345,
				-3.8970559182049827e-16,
				0.9258847832679749
			],
			"scale":[
				0.9999999403953552,
				1,
				0.9999999403953552
			],
			"translation":[
				-0.0011389246210455894,
				0.0002735043817665428,
				0.0007607334409840405
			]
		},
		{
			"children":[
				28
			],
			"name":"_34_object_00001D08",
			"rotation":[
				2.220446049250313e-16,
				-2.8312206268310547e-07,
				1.249000902703301e-16,
				1
			],
			"translation":[
				1.3352493047714233,
				1.0791966915130615,
				-0.8961248397827148
			]
		},
		{
			"children":[
				29
			],
			"name":"_33_object_00001D3C",
			"rotation":[
				1.6575522099765991e-15,
				-0.6377224922180176,
				-1.5494510065118083e-15,
				0.7702661752700806
			],
			"translation":[
				0.9130515456199646,
				-1.3172186613082886,
				0.925265371799469
			]
		},
		{
			"children":[
				30
			],
			"name":"_32_object_00001D70",
			"rotation":[
				-2.2703366298060246e-08,
				-0.9284420013427734,
				-9.083808372167823e-09,
				0.3714774549007416
			],
			"scale":[
				0.9999999403953552,
				1,
				0.9999999403953552
			],
			"translation":[
				-3.045424818992615e-07,
				5.071136115475383e-07,
				8.789662388153374e-06
			]
		},
		{
			"children":[
				31
			],
			"name":"_31_object_00001DA4",
			"rotation":[
				6.037666254267562e-19,
				-0.6961012482643127,
				1.8816958221536295e-20,
				0.7179436683654785
			],
			"scale":[
				0.9999999403953552,
				1,
				0.9999999403953552
			],
			"translation":[
				1.139969825744629,
				0.2601443827152252,
				-0.005974689032882452
			]
		},
		{
			"children":[
				24,
				32
			],
			"name":"_22_object_00001F78",
			"rotation":[
				-3.836377323364992e-17,
				-0.7121796011924744,
				-1.0444007455695103e-20,
				0.7019973993301392
			],
			"scale":[
				0.9999999403953552,
				1,
				0.9999999403953552
			],
			"translation":[
				-1.5174139738082886,
				0.02226211503148079,
				-0.022258944809436798
			]
		},
		{
			"children":[
				33
			],
			"name":"_21_object_00001FAC",
			"rotation":[
				5.5508170072330186e-17,
				-1.25728565336658e-08,
				4.071085706953366e-19,
				1
			],
			"scale":[
				0.9999999403953552,
				1,
				0.9999999403953552
			],
			"translation":[
				1.5174140930175781,
				-0.02226211316883564,
				0.022258980199694633
			]
		},
		{
			"children":[
				34
			],
			"name":"_20_object_00001FE0",
			"rotation":[
				0,
				0.7122066617012024,
				3.897123813189661e-17,
				0.7019699215888977
			]
		},
		{
			"children":[
				35
			],
			"name":"_19_object_00002014",
			"rotation":[
				0,
				9.549999958835542e-05,
				0,
				1
			]
		},
		{
			"name":"_39_object_00001C04"
		},
		{
			"children":[
				16,
				36,
				37
			],
			"name":"_00_object_00003B74",
			"rotation":[
				1,
				0,
				0,
				4.0730171235736634e-08
			]
		},
		{
			"mesh":0,
			"name":"_000_attach_00001BEC_001",
			"skin":0
		},
		{
			"mesh":1,
			"name":"_001_attach_000030F4_001",
			"skin":0
		},
		{
			"mesh":2,
			"name":"_002_attach_00001BEC_001",
			"skin":0
		},
		{
			"mesh":3,
			"name":"_003_attach_00001BEC_001",
			"skin":0
		},
		{
			"mesh":4,
			"name":"_004_attach_00001BEC_001",
			"skin":0
		},
		{
			"mesh":5,
			"name":"_005_attach_00002670_001",
			"skin":0
		},
		{
			"mesh":6,
			"name":"_006_attach_00002C54_001",
			"skin":0
		},
		{
			"mesh":7,
			"name":"_007_attach_00002670_001",
			"skin":0
		},
		{
			"mesh":8,
			"name":"_008_attach_00002C54_001",
			"skin":0
		},
		{
			"mesh":9,
			"name":"_009_attach_00003550_001",
			"skin":0
		},
		{
			"mesh":10,
			"name":"_010_attach_00003988_001",
			"skin":0
		},
		{
			"children":[
				39,
				40,
				41,
				42,
				43,
				44,
				45,
				46,
				47,
				48,
				49,
				38
			],
			"name":"Armature",
			"rotation":[
				0.7071068286895752,
				0,
				0,
				0.7071068286895752
			]
		}
	],
	"materials":[
		{
			"doubleSided":true,
			"name":"_0003B74_sa2mdl_1-material",
			"pbrMetallicRoughness":{
				"baseColorTexture":{
					"index":0
				},
				"metallicFactor":0,
				"roughnessFactor":0.5
			}
		},
		{
			"doubleSided":true,
			"name":"_0003B74_sa2mdl_4-material",
			"pbrMetallicRoughness":{
				"baseColorTexture":{
					"index":1
				},
				"metallicFactor":0,
				"roughnessFactor":0.5
			}
		},
		{
			"doubleSided":true,
			"name":"_0003B74_sa2mdl_5-material",
			"pbrMetallicRoughness":{
				"baseColorTexture":{
					"index":2
				},
				"metallicFactor":0,
				"roughnessFactor":0.5
			}
		},
		{
			"doubleSided":true,
			"name":"_0003B74_sa2mdl_6-material",
			"pbrMetallicRoughness":{
				"baseColorTexture":{
					"index":3
				},
				"metallicFactor":0,
				"roughnessFactor":0.5
			}
		},
		{
			"doubleSided":true,
			"name":"_0003B74_sa2mdl_2-material",
			"pbrMetallicRoughness":{
				"baseColorTexture":{
					"index":4
				},
				"metallicFactor":0,
				"roughnessFactor":0.5
			}
		},
		{
			"doubleSided":true,
			"name":"_0003B74_sa2mdl_3-material",
			"pbrMetallicRoughness":{
				"baseColorTexture":{
					"index":5
				},
				"metallicFactor":0,
				"roughnessFactor":0.5
			}
		},
		{
			"doubleSided":true,
			"name":"_0003B74_sa2mdl_0-material",
			"pbrMetallicRoughness":{
				"baseColorTexture":{
					"index":6
				},
				"metallicFactor":0,
				"roughnessFactor":0.5
			}
		}
	],
	"meshes":[
		{
			"name":"_000_attach_00001BEC_001",
			"primitives":[
				{
					"attributes":{
						"POSITION":0,
						"NORMAL":1,
						"TEXCOORD_0":2,
						"JOINTS_0":3,
						"WEIGHTS_0":4
					},
					"indices":5,
					"material":0
				}
			]
		},
		{
			"name":"_001_attach_000030F4_001",
			"primitives":[
				{
					"attributes":{
						"POSITION":7,
						"NORMAL":8,
						"TEXCOORD_0":9,
						"JOINTS_0":10,
						"WEIGHTS_0":11
					},
					"indices":12,
					"material":0
				}
			]
		},
		{
			"name":"_002_attach_00001BEC_001",
			"primitives":[
				{
					"attributes":{
						"POSITION":13,
						"NORMAL":14,
						"TEXCOORD_0":15,
						"JOINTS_0":16,
						"WEIGHTS_0":17
					},
					"indices":18,
					"material":1
				}
			]
		},
		{
			"name":"_003_attach_00001BEC_001",
			"primitives":[
				{
					"attributes":{
						"POSITION":19,
						"NORMAL":20,
						"TEXCOORD_0":21,
						"JOINTS_0":22,
						"WEIGHTS_0":23
					},
					"indices":24,
					"material":2
				}
			]
		},
		{
			"name":"_004_attach_00001BEC_001",
			"primitives":[
				{
					"attributes":{
						"POSITION":25,
						"NORMAL":26,
						"TEXCOORD_0":27,
						"JOINTS_0":28,
						"WEIGHTS_0":29
					},
					"indices":30,
					"material":3
				}
			]
		},
		{
			"name":"_005_attach_00002670_001",
			"primitives":[
				{
					"attributes":{
						"POSITION":31,
						"NORMAL":32,
						"TEXCOORD_0":33,
						"JOINTS_0":34,
						"WEIGHTS_0":35
					},
					"indices":36,
					"material":4
				}
			]
		},
		{
			"name":"_006_attach_00002C54_001",
			"primitives":[
				{
					"attributes":{
						"POSITION":37,
						"NORMAL":38,
						"TEXCOORD_0":39,
						"JOINTS_0":40,
						"WEIGHTS_0":41
					},
					"indices":42,
					"material":4
				}
			]
		},
		{
			"name":"_007_attach_00002670_001",
			"primitives":[
				{
					"attributes":{
						"POSITION":43,
						"NORMAL":44,
						"TEXCOORD_0":45,
						"JOINTS_0":46,
						"WEIGHTS_0":47
					},
					"indices":48,
					"material":5
				}
			]
		},
		{
			"name":"_008_attach_00002C54_001",
			"primitives":[
				{
					"attributes":{
						"POSITION":49,
						"NORMAL":50,
						"TEXCOORD_0":51,
						"JOINTS_0":52,
						"WEIGHTS_0":53
					},
					"indices":54,
					"material":5
				}
			]
		},
		{
			"name":"_009_attach_00003550_001",
			"primitives":[
				{
					"attributes":{
						"POSITION":55,
						"NORMAL":56,
						"TEXCOORD_0":57,
						"JOINTS_0":58,
						"WEIGHTS_0":59
					},
					"indices":60,
					"material":6
				}
			]
		},
		{
			"name":"_010_attach_00003988_001",
			"primitives":[
				{
					"attributes":{
						"POSITION":61,
						"NORMAL":62,
						"TEXCOORD_0":63,
						"JOINTS_0":64,
						"WEIGHTS_0":65
					},
					"indices":66,
					"material":6
				}
			]
		}
	],
	"textures":[
		{
			"sampler":0,
			"source":0
		},
		{
			"sampler":0,
			"source":1
		},
		{
			"sampler":0,
			"source":2
		},
		{
			"sampler":0,
			"source":3
		},
		{
			"sampler":0,
			"source":4
		},
		{
			"sampler":0,
			"source":5
		},
		{
			"sampler":0,
			"source":6
		}
	],
	"images":[
		{
			"mimeType":"image/png",
			"name":"TAKO_BETA_o.png",
			"uri":"TAKO_BETA_o.png"
		},
		{
			"mimeType":"image/png",
			"name":"takoarm_o.png",
			"uri":"takoarm_o.png"
		},
		{
			"mimeType":"image/png",
			"name":"takokuti_o.png",
			"uri":"takokuti_o.png"
		},
		{
			"mimeType":"image/png",
			"name":"takoback_o.png",
			"uri":"takoback_o.png"
		},
		{
			"mimeType":"image/png",
			"name":"TAKO_BETA1_o.png",
			"uri":"TAKO_BETA1_o.png"
		},
		{
			"mimeType":"image/png",
			"name":"takomayu_o.png",
			"uri":"takomayu_o.png"
		},
		{
			"mimeType":"image/png",
			"name":"tako_eye_o.png",
			"uri":"tako_eye_o.png"
		}
	],
	"skins":[
		{
			"inverseBindMatrices":6,
			"joints":[
				38,
				16,
				15,
				14,
				12,
				11,
				9,
				2,
				0,
				1,
				5,
				3,
				4,
				8,
				6,
				7,
				10,
				13,
				36,
				35,
				34,
				33,
				24,
				23,
				22,
				21,
				20,
				19,
				18,
				17,
				32,
				31,
				30,
				29,
				28,
				27,
				26,
				25,
				37
			],
			"name":"Armature"
		}
	],
	"accessors":[
		{
			"bufferView":0,
			"componentType":5126,
			"count":130,
			"max":[
				5.992559909820557,
				6.101349830627441,
				3.4115800857543945
			],
			"min":[
				-5.992449760437012,
				-2.6399998664855957,
				-1.110919713973999
			],
			"type":"VEC3"
		},
		{
			"bufferView":1,
			"componentType":5126,
			"count":130,
			"type":"VEC3"
		},
		{
			"bufferView":2,
			"componentType":5126,
			"count":130,
			"type":"VEC2"
		},
		{
			"bufferView":3,
			"componentType":5121,
			"count":130,
			"type":"VEC4"
		},
		{
			"bufferView":4,
			"componentType":5126,
			"count":130,
			"type":"VEC4"
		},
		{
			"bufferView":5,
			"componentType":5123,
			"count":591,
			"type":"SCALAR"
		},
		{
			"bufferView":6,
			"componentType":5126,
			"count":39,
			"type":"MAT4"
		},
		{
			"bufferView":7,
			"componentType":5126,
			"count":25,
			"max":[
				0.9443380236625671,
				4.464349269866943,
				4.444230556488037
			],
			"min":[
				-0.9452959895133972,
				2.282759428024292,
				2.3150200843811035
			],
			"type":"VEC3"
		},
		{
			"bufferView":8,
			"componentType":5126,
			"count":25,
			"type":"VEC3"
		},
		{
			"bufferView":9,
			"componentType":5126,
			"count":25,
			"type":"VEC2"
		},
		{
			"bufferView":10,
			"componentType":5121,
			"count":25,
			"type":"VEC4"
		},
		{
			"bufferView":11,
			"componentType":5126,
			"count":25,
			"type":"VEC4"
		},
		{
			"bufferView":12,
			"componentType":5123,
			"count":126,
			"type":"SCALAR"
		},
		{
			"bufferView":13,
			"componentType":5126,
			"count":50,
			"max":[
				5.992559909820557,
				3.895699977874756,
				1.09725022315979
			],
			"min":[
				-5.992449760437012,
				-2.1333398818969727,
				-1.110919713973999
			],
			"type":"VEC3"
		},
		{
			"bufferView":14,
			"componentType":5126,
			"count":50,
			"type":"VEC3"
		},
		{
			"bufferView":15,
			"componentType":5126,
			"count":50,
			"type":"VEC2"
		},
		{
			"bufferView":16,
			"componentType":5121,
			"count":50,
			"type":"VEC4"
		},
		{
			"bufferView":17,
			"componentType":5126,
			"count":50,
			"type":"VEC4"
		},
		{
			"bufferView":18,
			"componentType":5123,
			"count":192,
			"type":"SCALAR"
		},
		{
			"bufferView":19,
			"componentType":5126,
			"count":14,
			"max":[
				2.1942198276519775,
				3.8204896450042725,
				3.0989902019500732
			],
			"min":[
				-2.2342798709869385,
				0.9356186389923096,
				1.6774202585220337
			],
			"type":"VEC3"
		},
		{
			"bufferView":20,
			"componentType":5126,
			"count":14,
			"type":"VEC3"
		},
		{
			"bufferView":21,
			"componentType":5126,
			"count":14,
			"type":"VEC2"
		},
		{
			"bufferView":22,
			"componentType":5121,
			"count":14,
			"type":"VEC4"
		},
		{
			"bufferView":23,
			"componentType":5126,
			"count":14,
			"type":"VEC4"
		},
		{
			"bufferView":24,
			"componentType":5123,
			"count":36,
			"type":"SCALAR"
		},
		{
			"bufferView":25,
			"componentType":5126,
			"count":44,
			"max":[
				2.858069896697998,
				5.684779644012451,
				0.29066357016563416
			],
			"min":[
				-2.898059844970703,
				-2.6399998664855957,
				-2.6267001628875732
			],
			"type":"VEC3"
		},
		{
			"bufferView":26,
			"componentType":5126,
			"count":44,
			"type":"VEC3"
		},
		{
			"bufferView":27,
			"componentType":5126,
			"count":44,
			"type":"VEC2"
		},
		{
			"bufferView":28,
			"componentType":5121,
			"count":44,
			"type":"VEC4"
		},
		{
			"bufferView":29,
			"componentType":5126,
			"count":44,
			"type":"VEC4"
		},
		{
			"bufferView":30,
			"componentType":5123,
			"count":183,
			"type":"SCALAR"
		},
		{
			"bufferView":31,
			"componentType":5126,
			"count":28,
			"max":[
				-9.999999974752427e-07,
				7.099559783935547,
				2.081730604171753
			],
			"min":[
				-1.8828399181365967,
				3.5658998489379883,
				-0.7041643261909485
			],
			"type":"VEC3"
		},
		{
			"bufferView":32,
			"componentType":5126,
			"count":28,
			"type":"VEC3"
		},
		{
			"bufferView":33,
			"componentType":5126,
			"count":28,
			"type":"VEC2"
		},
		{
			"bufferView":34,
			"componentType":5121,
			"count":28,
			"type":"VEC4"
		},
		{
			"bufferView":35,
			"componentType":5126,
			"count":28,
			"type":"VEC4"
		},
		{
			"bufferView":36,
			"componentType":5123,
			"count":129,
			"type":"SCALAR"
		},
		{
			"bufferView":37,
			"componentType":5126,
			"count":28,
			"max":[
				1.8827799558639526,
				7.099669933319092,
				2.0814507007598877
			],
			"min":[
				-0.0004910000134259462,
				3.5660200119018555,
				-0.7042383551597595
			],
			"type":"VEC3"
		},
		{
			"bufferView":38,
			"componentType":5126,
			"count":28,
			"type":"VEC3"
		},
		{
			"bufferView":39,
			"componentType":5126,
			"count":28,
			"type":"VEC2"
		},
		{
			"bufferView":40,
			"componentType":5121,
			"count":28,
			"type":"VEC4"
		},
		{
			"bufferView":41,
			"componentType":5126,
			"count":28,
			"type":"VEC4"
		},
		{
			"bufferView":42,
			"componentType":5123,
			"count":129,
			"type":"SCALAR"
		},
		{
			"bufferView":43,
			"componentType":5126,
			"count":17,
			"max":[
				-9.999999974752427e-07,
				6.8605499267578125,
				2.398380756378174
			],
			"min":[
				-1.8828399181365967,
				3.5658998489379883,
				0.09097342193126678
			],
			"type":"VEC3"
		},
		{
			"bufferView":44,
			"componentType":5126,
			"count":17,
			"type":"VEC3"
		},
		{
			"bufferView":45,
			"componentType":5126,
			"count":17,
			"type":"VEC2"
		},
		{
			"bufferView":46,
			"componentType":5121,
			"count":17,
			"type":"VEC4"
		},
		{
			"bufferView":47,
			"componentType":5126,
			"count":17,
			"type":"VEC4"
		},
		{
			"bufferView":48,
			"componentType":5123,
			"count":63,
			"type":"SCALAR"
		},
		{
			"bufferView":49,
			"componentType":5126,
			"count":17,
			"max":[
				1.8827799558639526,
				6.860849857330322,
				2.398160696029663
			],
			"min":[
				-0.00012099999730708078,
				3.5660200119018555,
				0.09110842645168304
			],
			"type":"VEC3"
		},
		{
			"bufferView":50,
			"componentType":5126,
			"count":17,
			"type":"VEC3"
		},
		{
			"bufferView":51,
			"componentType":5126,
			"count":17,
			"type":"VEC2"
		},
		{
			"bufferView":52,
			"componentType":5121,
			"count":17,
			"type":"VEC4"
		},
		{
			"bufferView":53,
			"componentType":5126,
			"count":17,
			"type":"VEC4"
		},
		{
			"bufferView":54,
			"componentType":5123,
			"count":63,
			"type":"SCALAR"
		},
		{
			"bufferView":55,
			"componentType":5126,
			"count":25,
			"max":[
				1.473789930343628,
				6.2363996505737305,
				2.7172305583953857
			],
			"min":[
				-0.14012299478054047,
				3.675349712371826,
				0.925884485244751
			],
			"type":"VEC3"
		},
		{
			"bufferView":56,
			"componentType":5126,
			"count":25,
			"type":"VEC3"
		},
		{
			"bufferView":57,
			"componentType":5126,
			"count":25,
			"type":"VEC2"
		},
		{
			"bufferView":58,
			"componentType":5121,
			"count":25,
			"type":"VEC4"
		},
		{
			"bufferView":59,
			"componentType":5126,
			"count":25,
			"type":"VEC4"
		},
		{
			"bufferView":60,
			"componentType":5123,
			"count":126,
			"type":"SCALAR"
		},
		{
			"bufferView":61,
			"componentType":5126,
			"count":25,
			"max":[
				0.1391579955816269,
				6.236340045928955,
				2.717190742492676
			],
			"min":[
				-1.4749699831008911,
				3.6750097274780273,
				0.9258494973182678
			],
			"type":"VEC3"
		},
		{
			"bufferView":62,
			"componentType":5126,
			"count":25,
			"type":"VEC3"
		},
		{
			"bufferView":63,
			"componentType":5126,
			"count":25,
			"type":"VEC2"
		},
		{
			"bufferView":64,
			"componentType":5121,
			"count":25,
			"type":"VEC4"
		},
		{
			"bufferView":65,
			"componentType":5126,
			"count":25,
			"type":"VEC4"
		},
		{
			"bufferView":66,
			"componentType":5123,
			"count":126,
			"type":"SCALAR"
		}
	],
	"bufferViews":[
		{
			"buffer":0,
			"byteLength":1560,
			"byteOffset":0,
			"target":34962
		},
		{
			"buffer":0,
			"byteLength":1560,
			"byteOffset":1560,
			"target":34962
		},
		{
			"buffer":0,
			"byteLength":1040,
			"byteOffset":3120,
			"target":34962
		},
		{
			"buffer":0,
			"byteLength":520,
			"byteOffset":4160,
			"target":34962
		},
		{
			"buffer":0,
			"byteLength":2080,
			"byteOffset":4680,
			"target":34962
		},
		{
			"buffer":0,
			"byteLength":1182,
			"byteOffset":6760,
			"target":34963
		},
		{
			"buffer":0,
			"byteLength":2496,
			"byteOffset":7944
		},
		{
			"buffer":0,
			"byteLength":300,
			"byteOffset":10440,
			"target":34962
		},
		{
			"buffer":0,
			"byteLength":300,
			"byteOffset":10740,
			"target":34962
		},
		{
			"buffer":0,
			"byteLength":200,
			"byteOffset":11040,
			"target":34962
		},
		{
			"buffer":0,
			"byteLength":100,
			"byteOffset":11240,
			"target":34962
		},
		{
			"buffer":0,
			"byteLength":400,
			"byteOffset":11340,
			"target":34962
		},
		{
			"buffer":0,
			"byteLength":252,
			"byteOffset":11740,
			"target":34963
		},
		{
			"buffer":0,
			"byteLength":600,
			"byteOffset":11992,
			"target":34962
		},
		{
			"buffer":0,
			"byteLength":600,
			"byteOffset":12592,
			"target":34962
		},
		{
			"buffer":0,
			"byteLength":400,
			"byteOffset":13192,
			"target":34962
		},
		{
			"buffer":0,
			"byteLength":200,
			"byteOffset":13592,
			"target":34962
		},
		{
			"buffer":0,
			"byteLength":800,
			"byteOffset":13792,
			"target":34962
		},
		{
			"buffer":0,
			"byteLength":384,
			"byteOffset":14592,
			"target":34963
		},
		{
			"buffer":0,
			"byteLength":168,
			"byteOffset":14976,
			"target":34962
		},
		{
			"buffer":0,
			"byteLength":168,
			"byteOffset":15144,
			"target":34962
		},
		{
			"buffer":0,
			"byteLength":112,
			"byteOffset":15312,
			"target":34962
		},
		{
			"buffer":0,
			"byteLength":56,
			"byteOffset":15424,
			"target":34962
		},
		{
			"buffer":0,
			"byteLength":224,
			"byteOffset":15480,
			"target":34962
		},
		{
			"buffer":0,
			"byteLength":72,
			"byteOffset":15704,
			"target":34963
		},
		{
			"buffer":0,
			"byteLength":528,
			"byteOffset":15776,
			"target":34962
		},
		{
			"buffer":0,
			"byteLength":528,
			"byteOffset":16304,
			"target":34962
		},
		{
			"buffer":0,
			"byteLength":352,
			"byteOffset":16832,
			"target":34962
		},
		{
			"buffer":0,
			"byteLength":176,
			"byteOffset":17184,
			"target":34962
		},
		{
			"buffer":0,
			"byteLength":704,
			"byteOffset":17360,
			"target":34962
		},
		{
			"buffer":0,
			"byteLength":366,
			"byteOffset":18064,
			"target":34963
		},
		{
			"buffer":0,
			"byteLength":336,
			"byteOffset":18432,
			"target":34962
		},
		{
			"buffer":0,
			"byteLength":336,
			"byteOffset":18768,
			"target":34962
		},
		{
			"buffer":0,
			"byteLength":224,
			"byteOffset":19104,
			"target":34962
		},
		{
			"buffer":0,
			"byteLength":112,
			"byteOffset":19328,
			"target":34962
		},
		{
			"buffer":0,
			"byteLength":448,
			"byteOffset":19440,
			"target":34962
		},
		{
			"buffer":0,
			"byteLength":258,
			"byteOffset":19888,
			"target":34963
		},
		{
			"buffer":0,
			"byteLength":336,
			"byteOffset":20148,
			"target":34962
		},
		{
			"buffer":0,
			"byteLength":336,
			"byteOffset":20484,
			"target":34962
		},
		{
			"buffer":0,
			"byteLength":224,
			"byteOffset":20820,
			"target":34962
		},
		{
			"buffer":0,
			"byteLength":112,
			"byteOffset":21044,
			"target":34962
		},
		{
			"buffer":0,
			"byteLength":448,
			"byteOffset":21156,
			"target":34962
		},
		{
			"buffer":0,
			"byteLength":258,
			"byteOffset":21604,
			"target":34963
		},
		{
			"buffer":0,
			"byteLength":204,
			"byteOffset":21864,
			"target":34962
		},
		{
			"buffer":0,
			"byteLength":204,
			"byteOffset":22068,
			"target":34962
		},
		{
			"buffer":0,
			"byteLength":136,
			"byteOffset":22272,
			"target":34962
		},
		{
			"buffer":0,
			"byteLength":68,
			"byteOffset":22408,
			"target":34962
		},
		{
			"buffer":0,
			"byteLength":272,
			"byteOffset":22476,
			"target":34962
		},
		{
			"buffer":0,
			"byteLength":126,
			"byteOffset":22748,
			"target":34963
		},
		{
			"buffer":0,
			"byteLength":204,
			"byteOffset":22876,
			"target":34962
		},
		{
			"buffer":0,
			"byteLength":204,
			"byteOffset":23080,
			"target":34962
		},
		{
			"buffer":0,
			"byteLength":136,
			"byteOffset":23284,
			"target":34962
		},
		{
			"buffer":0,
			"byteLength":68,
			"byteOffset":23420,
			"target":34962
		},
		{
			"buffer":0,
			"byteLength":272,
			"byteOffset":23488,
			"target":34962
		},
		{
			"buffer":0,
			"byteLength":126,
			"byteOffset":23760,
			"target":34963
		},
		{
			"buffer":0,
			"byteLength":300,
			"byteOffset":23888,
			"target":34962
		},
		{
			"buffer":0,
			"byteLength":300,
			"byteOffset":24188,
			"target":34962
		},
		{
			"buffer":0,
			"byteLength":200,
			"byteOffset":24488,
			"target":34962
		},
		{
			"buffer":0,
			"byteLength":100,
			"byteOffset":24688,
			"target":34962
		},
		{
			"buffer":0,
			"byteLength":400,
			"byteOffset":24788,
			"target":34962
		},
		{
			"buffer":0,
			"byteLength":252,
			"byteOffset":25188,
			"target":34963
		},
		{
			"buffer":0,
			"byteLength":300,
			"byteOffset":25440,
			"target":34962
		},
		{
			"buffer":0,
			"byteLength":300,
			"byteOffset":25740,
			"target":34962
		},
		{
			"buffer":0,
			"byteLength":200,
			"byteOffset":26040,
			"target":34962
		},
		{
			"buffer":0,
			"byteLength":100,
			"byteOffset":26240,
			"target":34962
		},
		{
			"buffer":0,
			"byteLength":400,
			"byteOffset":26340,
			"target":34962
		},
		{
			"buffer":0,
			"byteLength":252,
			"byteOffset":26740,
			"target":34963
		}
	],
	"samplers":[
		{
			"magFilter":9729,
			"minFilter":9987
		}
	],
	"buffers":[
		{
			"byteLength":26992,
			"uri":"OpponentSneak.bin"
		}
	]
}
