{
	"asset":{
		"generator":"Khronos glTF Blender I/O v4.0.44",
		"version":"2.0"
	},
	"extensionsUsed":[
		"KHR_materials_specular",
		"KHR_materials_ior"
	],
	"scene":0,
	"scenes":[
		{
			"name":"Scene",
			"nodes":[
				61
			]
		}
	],
	"nodes":[
		{
			"name":"n012_object_00005160",
			"rotation":[
				0,
				-0.8195638656616211,
				-4.233284554739169e-18,
				0.5729878544807434
			],
			"translation":[
				3.226536512374878,
				0.5424458980560303,
				0.005293276626616716
			]
		},
		{
			"children":[
				0
			],
			"name":"n011_object_00005194",
			"rotation":[
				6.9388897680041656e-18,
				5.820766091346741e-11,
				5.416378650997225e-21,
				1
			],
			"translation":[
				-3.2265353202819824,
				-0.5442559719085693,
				-0.005293416325002909
			]
		},
		{
			"children":[
				1
			],
			"name":"n010_object_000051C8",
			"rotation":[
				3.469447779134227e-18,
				0.000808834854979068,
				-3.552714525833448e-15,
				0.9999996423721313
			],
			"scale":[
				1.0000001192092896,
				1,
				1.0000001192092896
			],
			"translation":[
				5.921151569054928e-08,
				2.4499590267623716e-07,
				1.1903454577577577e-07
			]
		},
		{
			"children":[
				2
			],
			"name":"n009_object_000051FC",
			"rotation":[
				-1.0842021724855044e-19,
				-2.7537347705219872e-05,
				-3.552713678800501e-15,
				1
			],
			"translation":[
				-3.425761292419338e-07,
				0.0018081730231642723,
				5.063852768216748e-07
			]
		},
		{
			"children":[
				3
			],
			"name":"n008_object_00005230",
			"rotation":[
				-1.6940658945086007e-21,
				-1.3073986337985843e-12,
				-3.552713678800501e-15,
				1
			],
			"translation":[
				1.7985714673995972,
				-1.7617058753967285,
				-0.0001396837324136868
			]
		},
		{
			"children":[
				4
			],
			"name":"n007_object_00005264",
			"rotation":[
				-1.6940660964569924e-21,
				-0.00013780593872070312,
				-3.552713678800501e-15,
				1
			],
			"scale":[
				0.9999999403953552,
				1,
				0.9999999403953552
			],
			"translation":[
				-1.714490532875061,
				-1.687742829322815,
				-0.0007951378356665373
			]
		},
		{
			"children":[
				5
			],
			"name":"n006_object_00005298",
			"rotation":[
				-4.336808689942018e-19,
				0.0001653432846069336,
				0,
				1
			],
			"translation":[
				-1.98702689857555e-08,
				2.2946500255471847e-10,
				-1.7052101952685916e-07
			]
		},
		{
			"children":[
				6
			],
			"name":"n005_object_000052CC",
			"rotation":[
				0,
				0.7070390582084656,
				0,
				0.70717453956604
			],
			"translation":[
				1.4819543361663818,
				-0.3382740914821625,
				-0.0028385354671627283
			]
		},
		{
			"name":"n020_object_00004FC0",
			"rotation":[
				0,
				-0.5741544365882874,
				0,
				0.8187470436096191
			],
			"scale":[
				0.9999999403953552,
				1,
				0.9999999403953552
			],
			"translation":[
				3.2263259887695312,
				0.543684720993042,
				0.005280028562992811
			]
		},
		{
			"children":[
				8
			],
			"name":"n019_object_00004FF4",
			"rotation":[
				1.040833671995778e-17,
				5.820766091346741e-11,
				5.403143761196377e-21,
				1
			],
			"translation":[
				-3.226325750350952,
				-0.5454933643341064,
				-0.005280531011521816
			]
		},
		{
			"children":[
				9
			],
			"name":"n018_object_00005028",
			"rotation":[
				3.469447779134227e-18,
				0.0008069871109910309,
				-3.552714525833448e-15,
				0.9999996423721313
			],
			"scale":[
				1.0000001192092896,
				1,
				1.0000001192092896
			],
			"translation":[
				-5.132210390002001e-08,
				2.449655767122749e-07,
				-1.1751554040984047e-07
			]
		},
		{
			"children":[
				10
			],
			"name":"n017_object_0000505C",
			"rotation":[
				-1.0842021724855044e-19,
				-2.7656556994770654e-05,
				-3.552713678800501e-15,
				1
			],
			"translation":[
				2.8749983016496117e-07,
				0.0018076961860060692,
				1.4917081614385097e-07
			]
		},
		{
			"children":[
				11
			],
			"name":"n016_object_00005090",
			"rotation":[
				-1.6940658945086007e-21,
				-1.3073986337985843e-12,
				-3.552713678800501e-15,
				1
			],
			"translation":[
				1.7985714673995972,
				-1.7617063522338867,
				-0.00013968332496006042
			]
		},
		{
			"children":[
				12
			],
			"name":"n015_object_000050C4",
			"rotation":[
				-1.6940660964569924e-21,
				-0.00013780593872070312,
				-3.552713678800501e-15,
				1
			],
			"scale":[
				0.9999999403953552,
				1,
				0.9999999403953552
			],
			"translation":[
				-1.7144912481307983,
				-1.6877436637878418,
				-0.0007962019881233573
			]
		},
		{
			"children":[
				13
			],
			"name":"n014_object_000050F8",
			"rotation":[
				-4.336808689942018e-19,
				0.0001653432846069336,
				0,
				1
			],
			"translation":[
				-4.384450136285523e-09,
				1.991429798842148e-10,
				9.0430397392538e-08
			]
		},
		{
			"children":[
				14
			],
			"name":"n013_object_0000512C",
			"rotation":[
				0,
				0.7070390582084656,
				0,
				0.70717453956604
			],
			"translation":[
				-1.4820555448532104,
				-0.3378264307975769,
				-0.0028386376798152924
			]
		},
		{
			"children":[
				7,
				15
			],
			"name":"n004_object_00005300",
			"rotation":[
				0,
				-0.707058846950531,
				0,
				0.7071546912193298
			],
			"translation":[
				-0.0005673841224052012,
				1.9730671644210815,
				-5.093170329928398e-11
			]
		},
		{
			"children":[
				16
			],
			"name":"n003_object_00005334",
			"rotation":[
				5.293955920339377e-23,
				0,
				0,
				1
			],
			"translation":[
				0.0005673841224052012,
				-1.973067283630371,
				4.662902008956138e-11
			]
		},
		{
			"children":[
				17
			],
			"name":"n002_object_00005368",
			"rotation":[
				5.293955920339377e-23,
				0,
				0,
				1
			],
			"translation":[
				4.336808689942018e-19,
				-2.2737367544323206e-13,
				0
			]
		},
		{
			"children":[
				18
			],
			"name":"n001_object_0000539C",
			"rotation":[
				0,
				0.7071067690849304,
				0,
				0.7071067690849304
			],
			"scale":[
				1,
				0.9999999403953552,
				1
			],
			"translation":[
				7.275957614183426e-12,
				0,
				0
			]
		},
		{
			"name":"n024_object_00004EF0",
			"rotation":[
				0,
				-0.7070589065551758,
				3.0663792102493874e-19,
				0.7071546316146851
			],
			"translation":[
				3.049014091491699,
				1.0968735218048096,
				2.451954230764386e-07
			]
		},
		{
			"name":"n029_object_00004DEC",
			"rotation":[
				0,
				-2.1094986379921465e-07,
				0,
				1
			],
			"translation":[
				-0.0008993340888991952,
				4.692956924438477,
				-0.7073109745979309
			]
		},
		{
			"name":"n032_object_00004690",
			"translation":[
				-1.7661584694739219e-10,
				-9.236220677166784e-08,
				5.089472310260135e-08
			]
		},
		{
			"children":[
				22
			],
			"name":"n031_object_00004D84",
			"translation":[
				0.009999998845160007,
				1.8149863763028407e-06,
				5.089472310260135e-08
			]
		},
		{
			"name":"n034_object_00003DD8",
			"translation":[
				2.890454542381349e-10,
				-9.236220677166784e-08,
				4.372796880147689e-08
			]
		},
		{
			"children":[
				24
			],
			"name":"n033_object_00004494",
			"translation":[
				-0.010000000707805157,
				-1.9997107756353216e-06,
				4.372796880147689e-08
			]
		},
		{
			"children":[
				23,
				25
			],
			"name":"n030_object_00004DB8",
			"rotation":[
				0,
				3.4779645829985384e-10,
				0,
				1
			],
			"translation":[
				-0.0028379573486745358,
				1.5334612131118774,
				1.2239259481430054
			]
		},
		{
			"name":"n037_object_00002F98",
			"rotation":[
				0,
				5.048709793414476e-29,
				-4.235164736271502e-22,
				1
			],
			"translation":[
				8.061482367338613e-05,
				-0.4202952980995178,
				-1.049492597579956
			]
		},
		{
			"children":[
				27
			],
			"name":"n036_object_00003BA8",
			"rotation":[
				0,
				2.1129760341409565e-07,
				-4.235164736271502e-22,
				1
			],
			"translation":[
				8.951684139901772e-05,
				-0.4626988470554352,
				2.3526127338409424
			]
		},
		{
			"name":"n039_object_000026A0",
			"translation":[
				0.00010195353388553485,
				-0.5319821238517761,
				0.005807532928884029
			]
		},
		{
			"children":[
				29
			],
			"name":"n038_object_00002C70",
			"rotation":[
				0,
				-7.105427357601002e-15,
				0,
				1
			],
			"translation":[
				0.0002672123082447797,
				-1.391879677772522,
				1.301202416419983
			]
		},
		{
			"children":[
				28,
				30
			],
			"name":"n035_object_00003BDC",
			"rotation":[
				0,
				-2.1094979274494108e-07,
				0,
				1
			],
			"translation":[
				2.947649591078516e-05,
				-0.15472838282585144,
				2.774278163909912
			]
		},
		{
			"name":"n041_object_00002344",
			"translation":[
				0.9841389656066895,
				0.00023585250892210752,
				8.19542310637189e-06
			]
		},
		{
			"name":"n042_object_00001DEC",
			"translation":[
				-0.9841388463973999,
				-0.00014132568321656436,
				8.205370249925181e-06
			]
		},
		{
			"children":[
				32,
				33
			],
			"name":"n040_object_00002378",
			"rotation":[
				0,
				3.4779645829985384e-10,
				0,
				1
			],
			"translation":[
				-0.0004107483837287873,
				2.142484664916992,
				2.4096667766571045
			]
		},
		{
			"children":[
				21,
				26,
				31,
				34
			],
			"name":"n028_object_00004E20",
			"rotation":[
				0,
				-0.7071066498756409,
				-5.989426296672787e-22,
				0.70710688829422
			],
			"translation":[
				6.515010833740234,
				-1.7428603172302246,
				5.239803613221738e-07
			]
		},
		{
			"children":[
				35
			],
			"name":"n027_object_00004E54",
			"rotation":[
				5.293955920339377e-23,
				0,
				0,
				1
			],
			"translation":[
				-6.514459609985352,
				0.026857838034629822,
				-5.240113978288718e-07
			]
		},
		{
			"children":[
				36
			],
			"name":"n026_object_00004E88",
			"rotation":[
				5.293955920339377e-23,
				0,
				0,
				1
			],
			"translation":[
				9.313197324445355e-09,
				1.9073486328125e-06,
				4.883517635417833e-16
			]
		},
		{
			"children":[
				37
			],
			"name":"n025_object_00004EBC",
			"rotation":[
				5.293955920339377e-23,
				0,
				0,
				1
			],
			"translation":[
				1.858978748714435e-09,
				1.7160015106201172,
				7.276039146186797e-12
			]
		},
		{
			"children":[
				20,
				38
			],
			"name":"n023_object_00004F24",
			"rotation":[
				5.293955920339377e-23,
				0,
				0,
				1
			],
			"translation":[
				-1.3010426069826053e-18,
				3.843113660812378,
				2.9103830456733704e-11
			]
		},
		{
			"children":[
				39
			],
			"name":"n022_object_00004F58",
			"rotation":[
				5.293955920339377e-23,
				0,
				0,
				1
			],
			"translation":[
				4.336808689942018e-19,
				-2.2737367544323206e-13,
				-7.275957614183426e-12
			]
		},
		{
			"children":[
				40
			],
			"name":"n021_object_00004F8C",
			"rotation":[
				0,
				0.7071067690849304,
				0,
				0.7071067690849304
			],
			"scale":[
				1,
				0.9999999403953552,
				1
			],
			"translation":[
				7.275957614183426e-12,
				0,
				0
			]
		},
		{
			"name":"n043_object_000018BC"
		},
		{
			"children":[
				19,
				41,
				42
			],
			"name":"n000_object_000053D0",
			"rotation":[
				-0.7071067690849304,
				0,
				0,
				0.7071067690849304
			],
			"translation":[
				9.999999747378752e-05,
				0,
				0
			]
		},
		{
			"mesh":0,
			"name":"meshnode_0",
			"skin":0
		},
		{
			"mesh":1,
			"name":"meshnode_1",
			"skin":0
		},
		{
			"mesh":2,
			"name":"meshnode_10",
			"skin":0
		},
		{
			"mesh":3,
			"name":"meshnode_11",
			"skin":0
		},
		{
			"mesh":4,
			"name":"meshnode_12",
			"skin":0
		},
		{
			"mesh":5,
			"name":"meshnode_13",
			"skin":0
		},
		{
			"mesh":6,
			"name":"meshnode_14",
			"skin":0
		},
		{
			"mesh":7,
			"name":"meshnode_15",
			"skin":0
		},
		{
			"mesh":8,
			"name":"meshnode_16",
			"skin":0
		},
		{
			"mesh":9,
			"name":"meshnode_2",
			"skin":0
		},
		{
			"mesh":10,
			"name":"meshnode_3",
			"skin":0
		},
		{
			"mesh":11,
			"name":"meshnode_4",
			"skin":0
		},
		{
			"mesh":12,
			"name":"meshnode_5",
			"skin":0
		},
		{
			"mesh":13,
			"name":"meshnode_6",
			"skin":0
		},
		{
			"mesh":14,
			"name":"meshnode_7",
			"skin":0
		},
		{
			"mesh":15,
			"name":"meshnode_8",
			"skin":0
		},
		{
			"mesh":16,
			"name":"meshnode_9",
			"skin":0
		},
		{
			"children":[
				44,
				45,
				46,
				47,
				48,
				49,
				50,
				51,
				52,
				53,
				54,
				55,
				56,
				57,
				58,
				59,
				60,
				43
			],
			"name":"Armature",
			"rotation":[
				0.7071068286895752,
				0,
				0,
				0.7071068286895752
			]
		}
	],
	"materials":[
		{
			"doubleSided":true,
			"extensions":{
				"KHR_materials_specular":{
					"specularFactor":0
				},
				"KHR_materials_ior":{
					"ior":1.4500000476837158
				}
			},
			"name":"attach_00004D6C_material_0",
			"pbrMetallicRoughness":{
				"baseColorTexture":{
					"index":0
				},
				"metallicFactor":0,
				"roughnessFactor":0.5
			}
		},
		{
			"doubleSided":true,
			"extensions":{
				"KHR_materials_specular":{
					"specularFactor":0
				},
				"KHR_materials_ior":{
					"ior":1.4500000476837158
				}
			},
			"name":"attach_00004D6C_material_1",
			"pbrMetallicRoughness":{
				"baseColorTexture":{
					"index":1
				},
				"metallicFactor":0,
				"roughnessFactor":0.5
			}
		},
		{
			"doubleSided":true,
			"extensions":{
				"KHR_materials_specular":{
					"specularFactor":0
				},
				"KHR_materials_ior":{
					"ior":1.4500000476837158
				}
			},
			"name":"attach_00002C58_material_0",
			"pbrMetallicRoughness":{
				"baseColorTexture":{
					"index":2
				},
				"metallicFactor":0,
				"roughnessFactor":0.5
			}
		},
		{
			"doubleSided":true,
			"extensions":{
				"KHR_materials_specular":{
					"specularFactor":0
				},
				"KHR_materials_ior":{
					"ior":1.4500000476837158
				}
			},
			"name":"attach_00002C58_material_1",
			"pbrMetallicRoughness":{
				"baseColorTexture":{
					"index":3
				},
				"metallicFactor":0,
				"roughnessFactor":0.5
			}
		},
		{
			"doubleSided":true,
			"extensions":{
				"KHR_materials_specular":{
					"specularFactor":0
				},
				"KHR_materials_ior":{
					"ior":1.4500000476837158
				}
			},
			"name":"attach_00002688_material_0",
			"pbrMetallicRoughness":{
				"baseColorTexture":{
					"index":4
				},
				"metallicFactor":0,
				"roughnessFactor":0.5
			}
		},
		{
			"doubleSided":true,
			"extensions":{
				"KHR_materials_specular":{
					"specularFactor":0
				},
				"KHR_materials_ior":{
					"ior":1.4500000476837158
				}
			},
			"name":"attach_0000232C_material_0",
			"pbrMetallicRoughness":{
				"baseColorTexture":{
					"index":5
				},
				"metallicFactor":0,
				"roughnessFactor":0.5
			}
		},
		{
			"doubleSided":true,
			"extensions":{
				"KHR_materials_specular":{
					"specularFactor":0
				},
				"KHR_materials_ior":{
					"ior":1.4500000476837158
				}
			},
			"name":"attach_00001DD4_material_0",
			"pbrMetallicRoughness":{
				"baseColorTexture":{
					"index":6
				},
				"metallicFactor":0,
				"roughnessFactor":0.5
			}
		},
		{
			"doubleSided":true,
			"extensions":{
				"KHR_materials_specular":{
					"specularFactor":0
				},
				"KHR_materials_ior":{
					"ior":1.4500000476837158
				}
			},
			"name":"attach_000018A4_material_0",
			"pbrMetallicRoughness":{
				"baseColorTexture":{
					"index":7
				},
				"metallicFactor":0,
				"roughnessFactor":0.5
			}
		},
		{
			"doubleSided":true,
			"extensions":{
				"KHR_materials_specular":{
					"specularFactor":0
				},
				"KHR_materials_ior":{
					"ior":1.4500000476837158
				}
			},
			"name":"attach_000018A4_material_1",
			"pbrMetallicRoughness":{
				"baseColorTexture":{
					"index":8
				},
				"metallicFactor":0,
				"roughnessFactor":0.5
			}
		},
		{
			"alphaMode":"BLEND",
			"doubleSided":true,
			"extensions":{
				"KHR_materials_specular":{
					"specularFactor":0
				},
				"KHR_materials_ior":{
					"ior":1.4500000476837158
				}
			},
			"name":"attach_00004678_material_0",
			"pbrMetallicRoughness":{
				"baseColorTexture":{
					"index":9
				},
				"metallicFactor":0,
				"roughnessFactor":0.5
			}
		},
		{
			"doubleSided":true,
			"extensions":{
				"KHR_materials_specular":{
					"specularFactor":0
				},
				"KHR_materials_ior":{
					"ior":1.4500000476837158
				}
			},
			"name":"attach_0000447C_material_0",
			"pbrMetallicRoughness":{
				"baseColorTexture":{
					"index":10
				},
				"metallicFactor":0,
				"roughnessFactor":0.5
			}
		},
		{
			"doubleSided":true,
			"extensions":{
				"KHR_materials_specular":{
					"specularFactor":0
				},
				"KHR_materials_ior":{
					"ior":1.4500000476837158
				}
			},
			"name":"attach_0000447C_material_1",
			"pbrMetallicRoughness":{
				"baseColorTexture":{
					"index":11
				},
				"metallicFactor":0,
				"roughnessFactor":0.5
			}
		},
		{
			"alphaMode":"BLEND",
			"doubleSided":true,
			"extensions":{
				"KHR_materials_specular":{
					"specularFactor":0
				},
				"KHR_materials_ior":{
					"ior":1.4500000476837158
				}
			},
			"name":"attach_00003DC0_material_0",
			"pbrMetallicRoughness":{
				"baseColorTexture":{
					"index":12
				},
				"metallicFactor":0,
				"roughnessFactor":0.5
			}
		},
		{
			"doubleSided":true,
			"extensions":{
				"KHR_materials_specular":{
					"specularFactor":0
				},
				"KHR_materials_ior":{
					"ior":1.4500000476837158
				}
			},
			"name":"attach_00003B90_material_0",
			"pbrMetallicRoughness":{
				"baseColorTexture":{
					"index":13
				},
				"metallicFactor":0,
				"roughnessFactor":0.5
			}
		},
		{
			"doubleSided":true,
			"extensions":{
				"KHR_materials_specular":{
					"specularFactor":0
				},
				"KHR_materials_ior":{
					"ior":1.4500000476837158
				}
			},
			"name":"attach_00003B90_material_1",
			"pbrMetallicRoughness":{
				"baseColorTexture":{
					"index":14
				},
				"metallicFactor":0,
				"roughnessFactor":0.5
			}
		},
		{
			"doubleSided":true,
			"extensions":{
				"KHR_materials_specular":{
					"specularFactor":0
				},
				"KHR_materials_ior":{
					"ior":1.4500000476837158
				}
			},
			"name":"attach_00003B90_material_2",
			"pbrMetallicRoughness":{
				"baseColorTexture":{
					"index":15
				},
				"metallicFactor":0,
				"roughnessFactor":0.5
			}
		},
		{
			"doubleSided":true,
			"extensions":{
				"KHR_materials_specular":{
					"specularFactor":0
				},
				"KHR_materials_ior":{
					"ior":1.4500000476837158
				}
			},
			"name":"attach_00002F80_material_0",
			"pbrMetallicRoughness":{
				"baseColorTexture":{
					"index":16
				},
				"metallicFactor":0,
				"roughnessFactor":0.5
			}
		}
	],
	"meshes":[
		{
			"name":"meshId0_name",
			"primitives":[
				{
					"attributes":{
						"POSITION":0,
						"NORMAL":1,
						"TEXCOORD_0":2,
						"JOINTS_0":3,
						"WEIGHTS_0":4
					},
					"indices":5,
					"material":0
				}
			]
		},
		{
			"name":"meshId1_name",
			"primitives":[
				{
					"attributes":{
						"POSITION":7,
						"NORMAL":8,
						"TEXCOORD_0":9,
						"JOINTS_0":10,
						"WEIGHTS_0":11
					},
					"indices":12,
					"material":1
				}
			]
		},
		{
			"name":"meshId10_name",
			"primitives":[
				{
					"attributes":{
						"POSITION":13,
						"NORMAL":14,
						"TEXCOORD_0":15,
						"JOINTS_0":16,
						"WEIGHTS_0":17
					},
					"indices":18,
					"material":2
				}
			]
		},
		{
			"name":"meshId11_name",
			"primitives":[
				{
					"attributes":{
						"POSITION":19,
						"NORMAL":20,
						"TEXCOORD_0":21,
						"JOINTS_0":22,
						"WEIGHTS_0":23
					},
					"indices":24,
					"material":3
				}
			]
		},
		{
			"name":"meshId12_name",
			"primitives":[
				{
					"attributes":{
						"POSITION":25,
						"NORMAL":26,
						"TEXCOORD_0":27,
						"JOINTS_0":28,
						"WEIGHTS_0":29
					},
					"indices":30,
					"material":4
				}
			]
		},
		{
			"name":"meshId13_name",
			"primitives":[
				{
					"attributes":{
						"POSITION":31,
						"NORMAL":32,
						"TEXCOORD_0":33,
						"JOINTS_0":34,
						"WEIGHTS_0":35
					},
					"indices":36,
					"material":5
				}
			]
		},
		{
			"name":"meshId14_name",
			"primitives":[
				{
					"attributes":{
						"POSITION":37,
						"NORMAL":38,
						"TEXCOORD_0":39,
						"JOINTS_0":40,
						"WEIGHTS_0":41
					},
					"indices":42,
					"material":6
				}
			]
		},
		{
			"name":"meshId15_name",
			"primitives":[
				{
					"attributes":{
						"POSITION":43,
						"NORMAL":44,
						"TEXCOORD_0":45,
						"JOINTS_0":46,
						"WEIGHTS_0":47
					},
					"indices":48,
					"material":7
				}
			]
		},
		{
			"name":"meshId16_name",
			"primitives":[
				{
					"attributes":{
						"POSITION":49,
						"NORMAL":50,
						"TEXCOORD_0":51,
						"JOINTS_0":52,
						"WEIGHTS_0":53
					},
					"indices":54,
					"material":8
				}
			]
		},
		{
			"name":"meshId2_name",
			"primitives":[
				{
					"attributes":{
						"POSITION":55,
						"NORMAL":56,
						"TEXCOORD_0":57,
						"JOINTS_0":58,
						"WEIGHTS_0":59
					},
					"indices":60,
					"material":9
				}
			]
		},
		{
			"name":"meshId3_name",
			"primitives":[
				{
					"attributes":{
						"POSITION":61,
						"NORMAL":62,
						"TEXCOORD_0":63,
						"JOINTS_0":64,
						"WEIGHTS_0":65
					},
					"indices":66,
					"material":10
				}
			]
		},
		{
			"name":"meshId4_name",
			"primitives":[
				{
					"attributes":{
						"POSITION":67,
						"NORMAL":68,
						"TEXCOORD_0":69,
						"JOINTS_0":70,
						"WEIGHTS_0":71
					},
					"indices":72,
					"material":11
				}
			]
		},
		{
			"name":"meshId5_name",
			"primitives":[
				{
					"attributes":{
						"POSITION":73,
						"NORMAL":74,
						"TEXCOORD_0":75,
						"JOINTS_0":76,
						"WEIGHTS_0":77
					},
					"indices":78,
					"material":12
				}
			]
		},
		{
			"name":"meshId6_name",
			"primitives":[
				{
					"attributes":{
						"POSITION":79,
						"NORMAL":80,
						"TEXCOORD_0":81,
						"JOINTS_0":82,
						"WEIGHTS_0":83
					},
					"indices":84,
					"material":13
				}
			]
		},
		{
			"name":"meshId7_name",
			"primitives":[
				{
					"attributes":{
						"POSITION":85,
						"NORMAL":86,
						"TEXCOORD_0":87,
						"JOINTS_0":88,
						"WEIGHTS_0":89
					},
					"indices":90,
					"material":14
				}
			]
		},
		{
			"name":"meshId8_name",
			"primitives":[
				{
					"attributes":{
						"POSITION":91,
						"NORMAL":92,
						"TEXCOORD_0":93,
						"JOINTS_0":94,
						"WEIGHTS_0":95
					},
					"indices":96,
					"material":15
				}
			]
		},
		{
			"name":"meshId9_name",
			"primitives":[
				{
					"attributes":{
						"POSITION":97,
						"NORMAL":98,
						"TEXCOORD_0":99,
						"JOINTS_0":100,
						"WEIGHTS_0":101
					},
					"indices":102,
					"material":16
				}
			]
		}
	],
	"textures":[
		{
			"sampler":0,
			"source":0
		},
		{
			"sampler":0,
			"source":1
		},
		{
			"sampler":0,
			"source":0
		},
		{
			"sampler":0,
			"source":2
		},
		{
			"sampler":0,
			"source":3
		},
		{
			"sampler":0,
			"source":4
		},
		{
			"sampler":0,
			"source":4
		},
		{
			"sampler":0,
			"source":5
		},
		{
			"sampler":0,
			"source":6
		},
		{
			"sampler":0,
			"source":7
		},
		{
			"sampler":0,
			"source":0
		},
		{
			"sampler":0,
			"source":1
		},
		{
			"sampler":0,
			"source":7
		},
		{
			"sampler":0,
			"source":8
		},
		{
			"sampler":0,
			"source":0
		},
		{
			"sampler":0,
			"source":9
		},
		{
			"sampler":0,
			"source":3
		}
	],
	"images":[
		{
			"mimeType":"image/png",
			"name":"kaba_beta1.png",
			"uri":"kaba_beta1.png"
		},
		{
			"mimeType":"image/png",
			"name":"kaba_mabuta.png",
			"uri":"kaba_mabuta.png"
		},
		{
			"mimeType":"image/png",
			"name":"kaba_ago_d.png",
			"uri":"kaba_ago_d.png"
		},
		{
			"mimeType":"image/png",
			"name":"kaba_ha.png",
			"uri":"kaba_ha.png"
		},
		{
			"mimeType":"image/png",
			"name":"kaba_eye.png",
			"uri":"kaba_eye.png"
		},
		{
			"mimeType":"image/png",
			"name":"kaba_body.png",
			"uri":"kaba_body.png"
		},
		{
			"mimeType":"image/png",
			"name":"kaba_arm.png",
			"uri":"kaba_arm.png"
		},
		{
			"mimeType":"image/png",
			"name":"kaba_matuge.png",
			"uri":"kaba_matuge.png"
		},
		{
			"mimeType":"image/png",
			"name":"kaba_nose.png",
			"uri":"kaba_nose.png"
		},
		{
			"mimeType":"image/png",
			"name":"kaba_ago_u.png",
			"uri":"kaba_ago_u.png"
		}
	],
	"skins":[
		{
			"inverseBindMatrices":6,
			"joints":[
				43,
				19,
				18,
				17,
				16,
				7,
				6,
				5,
				4,
				3,
				2,
				1,
				0,
				15,
				14,
				13,
				12,
				11,
				10,
				9,
				8,
				41,
				40,
				39,
				20,
				38,
				37,
				36,
				35,
				21,
				26,
				23,
				22,
				25,
				24,
				31,
				28,
				27,
				30,
				29,
				34,
				32,
				33,
				42
			],
			"name":"Armature"
		}
	],
	"accessors":[
		{
			"bufferView":0,
			"componentType":5126,
			"count":33,
			"max":[
				0.01003057137131691,
				8.465023040771484,
				3.1424849033355713
			],
			"min":[
				-2.45599627494812,
				4.626563549041748,
				-0.745714545249939
			],
			"type":"VEC3"
		},
		{
			"bufferView":1,
			"componentType":5126,
			"count":33,
			"type":"VEC3"
		},
		{
			"bufferView":2,
			"componentType":5126,
			"count":33,
			"type":"VEC2"
		},
		{
			"bufferView":3,
			"componentType":5121,
			"count":33,
			"type":"VEC4"
		},
		{
			"bufferView":4,
			"componentType":5126,
			"count":33,
			"type":"VEC4"
		},
		{
			"bufferView":5,
			"componentType":5123,
			"count":153,
			"type":"SCALAR"
		},
		{
			"bufferView":6,
			"componentType":5126,
			"count":44,
			"type":"MAT4"
		},
		{
			"bufferView":7,
			"componentType":5126,
			"count":20,
			"max":[
				0.01003057137131691,
				8.15226936340332,
				3.1424849033355713
			],
			"min":[
				-2.3400046825408936,
				4.626563549041748,
				0.17165948450565338
			],
			"type":"VEC3"
		},
		{
			"bufferView":8,
			"componentType":5126,
			"count":20,
			"type":"VEC3"
		},
		{
			"bufferView":9,
			"componentType":5126,
			"count":20,
			"type":"VEC2"
		},
		{
			"bufferView":10,
			"componentType":5121,
			"count":20,
			"type":"VEC4"
		},
		{
			"bufferView":11,
			"componentType":5126,
			"count":20,
			"type":"VEC4"
		},
		{
			"bufferView":12,
			"componentType":5123,
			"count":75,
			"type":"SCALAR"
		},
		{
			"bufferView":13,
			"componentType":5126,
			"count":32,
			"max":[
				3.377507448196411,
				3.805325746536255,
				8.412064552307129
			],
			"min":[
				-3.37740421295166,
				0.09924295544624329,
				2.817438840866089
			],
			"type":"VEC3"
		},
		{
			"bufferView":14,
			"componentType":5126,
			"count":32,
			"type":"VEC3"
		},
		{
			"bufferView":15,
			"componentType":5126,
			"count":32,
			"type":"VEC2"
		},
		{
			"bufferView":16,
			"componentType":5121,
			"count":32,
			"type":"VEC4"
		},
		{
			"bufferView":17,
			"componentType":5126,
			"count":32,
			"type":"VEC4"
		},
		{
			"bufferView":18,
			"componentType":5123,
			"count":150,
			"type":"SCALAR"
		},
		{
			"bufferView":19,
			"componentType":5126,
			"count":13,
			"max":[
				3.1893489360809326,
				1.9464175701141357,
				8.410131454467773
			],
			"min":[
				-3.1884119510650635,
				1.2555787563323975,
				2.924447536468506
			],
			"type":"VEC3"
		},
		{
			"bufferView":20,
			"componentType":5126,
			"count":13,
			"type":"VEC3"
		},
		{
			"bufferView":21,
			"componentType":5126,
			"count":13,
			"type":"VEC2"
		},
		{
			"bufferView":22,
			"componentType":5121,
			"count":13,
			"type":"VEC4"
		},
		{
			"bufferView":23,
			"componentType":5126,
			"count":13,
			"type":"VEC4"
		},
		{
			"bufferView":24,
			"componentType":5123,
			"count":36,
			"type":"SCALAR"
		},
		{
			"bufferView":25,
			"componentType":5126,
			"count":20,
			"max":[
				2.794832944869995,
				2.3390960693359375,
				8.258639335632324
			],
			"min":[
				-2.7938649654388428,
				1.3239645957946777,
				4.072278022766113
			],
			"type":"VEC3"
		},
		{
			"bufferView":26,
			"componentType":5126,
			"count":20,
			"type":"VEC3"
		},
		{
			"bufferView":27,
			"componentType":5126,
			"count":20,
			"type":"VEC2"
		},
		{
			"bufferView":28,
			"componentType":5121,
			"count":20,
			"type":"VEC4"
		},
		{
			"bufferView":29,
			"componentType":5126,
			"count":20,
			"type":"VEC4"
		},
		{
			"bufferView":30,
			"componentType":5123,
			"count":72,
			"type":"SCALAR"
		},
		{
			"bufferView":31,
			"componentType":5126,
			"count":33,
			"max":[
				2.219681739807129,
				7.3818464279174805,
				3.7966408729553223
			],
			"min":[
				-0.2522215247154236,
				4.589817047119141,
				1.2505953311920166
			],
			"type":"VEC3"
		},
		{
			"bufferView":32,
			"componentType":5126,
			"count":33,
			"type":"VEC3"
		},
		{
			"bufferView":33,
			"componentType":5126,
			"count":33,
			"type":"VEC2"
		},
		{
			"bufferView":34,
			"componentType":5121,
			"count":33,
			"type":"VEC4"
		},
		{
			"bufferView":35,
			"componentType":5126,
			"count":33,
			"type":"VEC4"
		},
		{
			"bufferView":36,
			"componentType":5123,
			"count":168,
			"type":"SCALAR"
		},
		{
			"bufferView":37,
			"componentType":5126,
			"count":33,
			"max":[
				0.2514405846595764,
				7.381532669067383,
				3.796640396118164
			],
			"min":[
				-2.2205402851104736,
				4.5893754959106445,
				1.2505961656570435
			],
			"type":"VEC3"
		},
		{
			"bufferView":38,
			"componentType":5126,
			"count":33,
			"type":"VEC3"
		},
		{
			"bufferView":39,
			"componentType":5126,
			"count":33,
			"type":"VEC2"
		},
		{
			"bufferView":40,
			"componentType":5121,
			"count":33,
			"type":"VEC4"
		},
		{
			"bufferView":41,
			"componentType":5126,
			"count":33,
			"type":"VEC4"
		},
		{
			"bufferView":42,
			"componentType":5123,
			"count":168,
			"type":"SCALAR"
		},
		{
			"bufferView":43,
			"componentType":5126,
			"count":143,
			"max":[
				11.816976547241211,
				6.771422863006592,
				4.637724876403809
			],
			"min":[
				-11.816976547241211,
				-3.837402105331421,
				-4.12248420715332
			],
			"type":"VEC3"
		},
		{
			"bufferView":44,
			"componentType":5126,
			"count":143,
			"type":"VEC3"
		},
		{
			"bufferView":45,
			"componentType":5126,
			"count":143,
			"type":"VEC2"
		},
		{
			"bufferView":46,
			"componentType":5121,
			"count":143,
			"type":"VEC4"
		},
		{
			"bufferView":47,
			"componentType":5126,
			"count":143,
			"type":"VEC4"
		},
		{
			"bufferView":48,
			"componentType":5123,
			"count":660,
			"type":"SCALAR"
		},
		{
			"bufferView":49,
			"componentType":5126,
			"count":62,
			"max":[
				11.816976547241211,
				4.9164347648620605,
				1.5936566591262817
			],
			"min":[
				-11.816976547241211,
				4.218070983886719,
				-1.7634333372116089
			],
			"type":"VEC3"
		},
		{
			"bufferView":50,
			"componentType":5126,
			"count":62,
			"type":"VEC3"
		},
		{
			"bufferView":51,
			"componentType":5126,
			"count":62,
			"type":"VEC2"
		},
		{
			"bufferView":52,
			"componentType":5121,
			"count":62,
			"type":"VEC4"
		},
		{
			"bufferView":53,
			"componentType":5126,
			"count":62,
			"type":"VEC4"
		},
		{
			"bufferView":54,
			"componentType":5123,
			"count":264,
			"type":"SCALAR"
		},
		{
			"bufferView":55,
			"componentType":5126,
			"count":12,
			"max":[
				-1.0703898668289185,
				8.672272682189941,
				4.291193008422852
			],
			"min":[
				-3.288729190826416,
				5.780712127685547,
				2.5012266635894775
			],
			"type":"VEC3"
		},
		{
			"bufferView":56,
			"componentType":5126,
			"count":12,
			"type":"VEC3"
		},
		{
			"bufferView":57,
			"componentType":5126,
			"count":12,
			"type":"VEC2"
		},
		{
			"bufferView":58,
			"componentType":5121,
			"count":12,
			"type":"VEC4"
		},
		{
			"bufferView":59,
			"componentType":5126,
			"count":12,
			"type":"VEC4"
		},
		{
			"bufferView":60,
			"componentType":5123,
			"count":36,
			"type":"SCALAR"
		},
		{
			"bufferView":61,
			"componentType":5126,
			"count":33,
			"max":[
				2.4550037384033203,
				8.465521812438965,
				3.142484426498413
			],
			"min":[
				-0.011198893189430237,
				4.626978874206543,
				-0.7457152605056763
			],
			"type":"VEC3"
		},
		{
			"bufferView":62,
			"componentType":5126,
			"count":33,
			"type":"VEC3"
		},
		{
			"bufferView":63,
			"componentType":5126,
			"count":33,
			"type":"VEC2"
		},
		{
			"bufferView":64,
			"componentType":5121,
			"count":33,
			"type":"VEC4"
		},
		{
			"bufferView":65,
			"componentType":5126,
			"count":33,
			"type":"VEC4"
		},
		{
			"bufferView":66,
			"componentType":5123,
			"count":153,
			"type":"SCALAR"
		},
		{
			"bufferView":67,
			"componentType":5126,
			"count":20,
			"max":[
				2.339263439178467,
				8.152697563171387,
				3.142484426498413
			],
			"min":[
				-0.010771680623292923,
				4.626978874206543,
				0.17165888845920563
			],
			"type":"VEC3"
		},
		{
			"bufferView":68,
			"componentType":5126,
			"count":20,
			"type":"VEC3"
		},
		{
			"bufferView":69,
			"componentType":5126,
			"count":20,
			"type":"VEC2"
		},
		{
			"bufferView":70,
			"componentType":5121,
			"count":20,
			"type":"VEC4"
		},
		{
			"bufferView":71,
			"componentType":5126,
			"count":20,
			"type":"VEC4"
		},
		{
			"bufferView":72,
			"componentType":5123,
			"count":75,
			"type":"SCALAR"
		},
		{
			"bufferView":73,
			"componentType":5126,
			"count":12,
			"max":[
				3.2874667644500732,
				8.673051834106445,
				4.291191577911377
			],
			"min":[
				1.0689821243286133,
				5.781607627868652,
				2.501225471496582
			],
			"type":"VEC3"
		},
		{
			"bufferView":74,
			"componentType":5126,
			"count":12,
			"type":"VEC3"
		},
		{
			"bufferView":75,
			"componentType":5126,
			"count":12,
			"type":"VEC2"
		},
		{
			"bufferView":76,
			"componentType":5121,
			"count":12,
			"type":"VEC4"
		},
		{
			"bufferView":77,
			"componentType":5126,
			"count":12,
			"type":"VEC4"
		},
		{
			"bufferView":78,
			"componentType":5123,
			"count":36,
			"type":"SCALAR"
		},
		{
			"bufferView":79,
			"componentType":5126,
			"count":28,
			"max":[
				3.334019899368286,
				6.576132297515869,
				8.818750381469727
			],
			"min":[
				-3.3339602947235107,
				2.941455125808716,
				6.703730583190918
			],
			"type":"VEC3"
		},
		{
			"bufferView":80,
			"componentType":5126,
			"count":28,
			"type":"VEC3"
		},
		{
			"bufferView":81,
			"componentType":5126,
			"count":28,
			"type":"VEC2"
		},
		{
			"bufferView":82,
			"componentType":5121,
			"count":28,
			"type":"VEC4"
		},
		{
			"bufferView":83,
			"componentType":5126,
			"count":28,
			"type":"VEC4"
		},
		{
			"bufferView":84,
			"componentType":5123,
			"count":114,
			"type":"SCALAR"
		},
		{
			"bufferView":85,
			"componentType":5126,
			"count":57,
			"max":[
				4.032591819763184,
				6.576132297515869,
				7.129067897796631
			],
			"min":[
				-4.032500267028809,
				0.026690300554037094,
				1.4343509674072266
			],
			"type":"VEC3"
		},
		{
			"bufferView":86,
			"componentType":5126,
			"count":57,
			"type":"VEC3"
		},
		{
			"bufferView":87,
			"componentType":5126,
			"count":57,
			"type":"VEC2"
		},
		{
			"bufferView":88,
			"componentType":5121,
			"count":57,
			"type":"VEC4"
		},
		{
			"bufferView":89,
			"componentType":5126,
			"count":57,
			"type":"VEC4"
		},
		{
			"bufferView":90,
			"componentType":5123,
			"count":276,
			"type":"SCALAR"
		},
		{
			"bufferView":91,
			"componentType":5126,
			"count":9,
			"max":[
				2.939103126525879,
				3.167447090148926,
				8.29515266418457
			],
			"min":[
				-2.9378247261047363,
				0.026690300554037094,
				3.602959632873535
			],
			"type":"VEC3"
		},
		{
			"bufferView":92,
			"componentType":5126,
			"count":9,
			"type":"VEC3"
		},
		{
			"bufferView":93,
			"componentType":5126,
			"count":9,
			"type":"VEC2"
		},
		{
			"bufferView":94,
			"componentType":5121,
			"count":9,
			"type":"VEC4"
		},
		{
			"bufferView":95,
			"componentType":5126,
			"count":9,
			"type":"VEC4"
		},
		{
			"bufferView":96,
			"componentType":5123,
			"count":24,
			"type":"SCALAR"
		},
		{
			"bufferView":97,
			"componentType":5126,
			"count":20,
			"max":[
				2.7953438758850098,
				3.250441789627075,
				8.255660057067871
			],
			"min":[
				-2.7933433055877686,
				2.228207588195801,
				4.067169189453125
			],
			"type":"VEC3"
		},
		{
			"bufferView":98,
			"componentType":5126,
			"count":20,
			"type":"VEC3"
		},
		{
			"bufferView":99,
			"componentType":5126,
			"count":20,
			"type":"VEC2"
		},
		{
			"bufferView":100,
			"componentType":5121,
			"count":20,
			"type":"VEC4"
		},
		{
			"bufferView":101,
			"componentType":5126,
			"count":20,
			"type":"VEC4"
		},
		{
			"bufferView":102,
			"componentType":5123,
			"count":72,
			"type":"SCALAR"
		}
	],
	"bufferViews":[
		{
			"buffer":0,
			"byteLength":396,
			"byteOffset":0,
			"target":34962
		},
		{
			"buffer":0,
			"byteLength":396,
			"byteOffset":396,
			"target":34962
		},
		{
			"buffer":0,
			"byteLength":264,
			"byteOffset":792,
			"target":34962
		},
		{
			"buffer":0,
			"byteLength":132,
			"byteOffset":1056,
			"target":34962
		},
		{
			"buffer":0,
			"byteLength":528,
			"byteOffset":1188,
			"target":34962
		},
		{
			"buffer":0,
			"byteLength":306,
			"byteOffset":1716,
			"target":34963
		},
		{
			"buffer":0,
			"byteLength":2816,
			"byteOffset":2024
		},
		{
			"buffer":0,
			"byteLength":240,
			"byteOffset":4840,
			"target":34962
		},
		{
			"buffer":0,
			"byteLength":240,
			"byteOffset":5080,
			"target":34962
		},
		{
			"buffer":0,
			"byteLength":160,
			"byteOffset":5320,
			"target":34962
		},
		{
			"buffer":0,
			"byteLength":80,
			"byteOffset":5480,
			"target":34962
		},
		{
			"buffer":0,
			"byteLength":320,
			"byteOffset":5560,
			"target":34962
		},
		{
			"buffer":0,
			"byteLength":150,
			"byteOffset":5880,
			"target":34963
		},
		{
			"buffer":0,
			"byteLength":384,
			"byteOffset":6032,
			"target":34962
		},
		{
			"buffer":0,
			"byteLength":384,
			"byteOffset":6416,
			"target":34962
		},
		{
			"buffer":0,
			"byteLength":256,
			"byteOffset":6800,
			"target":34962
		},
		{
			"buffer":0,
			"byteLength":128,
			"byteOffset":7056,
			"target":34962
		},
		{
			"buffer":0,
			"byteLength":512,
			"byteOffset":7184,
			"target":34962
		},
		{
			"buffer":0,
			"byteLength":300,
			"byteOffset":7696,
			"target":34963
		},
		{
			"buffer":0,
			"byteLength":156,
			"byteOffset":7996,
			"target":34962
		},
		{
			"buffer":0,
			"byteLength":156,
			"byteOffset":8152,
			"target":34962
		},
		{
			"buffer":0,
			"byteLength":104,
			"byteOffset":8308,
			"target":34962
		},
		{
			"buffer":0,
			"byteLength":52,
			"byteOffset":8412,
			"target":34962
		},
		{
			"buffer":0,
			"byteLength":208,
			"byteOffset":8464,
			"target":34962
		},
		{
			"buffer":0,
			"byteLength":72,
			"byteOffset":8672,
			"target":34963
		},
		{
			"buffer":0,
			"byteLength":240,
			"byteOffset":8744,
			"target":34962
		},
		{
			"buffer":0,
			"byteLength":240,
			"byteOffset":8984,
			"target":34962
		},
		{
			"buffer":0,
			"byteLength":160,
			"byteOffset":9224,
			"target":34962
		},
		{
			"buffer":0,
			"byteLength":80,
			"byteOffset":9384,
			"target":34962
		},
		{
			"buffer":0,
			"byteLength":320,
			"byteOffset":9464,
			"target":34962
		},
		{
			"buffer":0,
			"byteLength":144,
			"byteOffset":9784,
			"target":34963
		},
		{
			"buffer":0,
			"byteLength":396,
			"byteOffset":9928,
			"target":34962
		},
		{
			"buffer":0,
			"byteLength":396,
			"byteOffset":10324,
			"target":34962
		},
		{
			"buffer":0,
			"byteLength":264,
			"byteOffset":10720,
			"target":34962
		},
		{
			"buffer":0,
			"byteLength":132,
			"byteOffset":10984,
			"target":34962
		},
		{
			"buffer":0,
			"byteLength":528,
			"byteOffset":11116,
			"target":34962
		},
		{
			"buffer":0,
			"byteLength":336,
			"byteOffset":11644,
			"target":34963
		},
		{
			"buffer":0,
			"byteLength":396,
			"byteOffset":11980,
			"target":34962
		},
		{
			"buffer":0,
			"byteLength":396,
			"byteOffset":12376,
			"target":34962
		},
		{
			"buffer":0,
			"byteLength":264,
			"byteOffset":12772,
			"target":34962
		},
		{
			"buffer":0,
			"byteLength":132,
			"byteOffset":13036,
			"target":34962
		},
		{
			"buffer":0,
			"byteLength":528,
			"byteOffset":13168,
			"target":34962
		},
		{
			"buffer":0,
			"byteLength":336,
			"byteOffset":13696,
			"target":34963
		},
		{
			"buffer":0,
			"byteLength":1716,
			"byteOffset":14032,
			"target":34962
		},
		{
			"buffer":0,
			"byteLength":1716,
			"byteOffset":15748,
			"target":34962
		},
		{
			"buffer":0,
			"byteLength":1144,
			"byteOffset":17464,
			"target":34962
		},
		{
			"buffer":0,
			"byteLength":572,
			"byteOffset":18608,
			"target":34962
		},
		{
			"buffer":0,
			"byteLength":2288,
			"byteOffset":19180,
			"target":34962
		},
		{
			"buffer":0,
			"byteLength":1320,
			"byteOffset":21468,
			"target":34963
		},
		{
			"buffer":0,
			"byteLength":744,
			"byteOffset":22788,
			"target":34962
		},
		{
			"buffer":0,
			"byteLength":744,
			"byteOffset":23532,
			"target":34962
		},
		{
			"buffer":0,
			"byteLength":496,
			"byteOffset":24276,
			"target":34962
		},
		{
			"buffer":0,
			"byteLength":248,
			"byteOffset":24772,
			"target":34962
		},
		{
			"buffer":0,
			"byteLength":992,
			"byteOffset":25020,
			"target":34962
		},
		{
			"buffer":0,
			"byteLength":528,
			"byteOffset":26012,
			"target":34963
		},
		{
			"buffer":0,
			"byteLength":144,
			"byteOffset":26540,
			"target":34962
		},
		{
			"buffer":0,
			"byteLength":144,
			"byteOffset":26684,
			"target":34962
		},
		{
			"buffer":0,
			"byteLength":96,
			"byteOffset":26828,
			"target":34962
		},
		{
			"buffer":0,
			"byteLength":48,
			"byteOffset":26924,
			"target":34962
		},
		{
			"buffer":0,
			"byteLength":192,
			"byteOffset":26972,
			"target":34962
		},
		{
			"buffer":0,
			"byteLength":72,
			"byteOffset":27164,
			"target":34963
		},
		{
			"buffer":0,
			"byteLength":396,
			"byteOffset":27236,
			"target":34962
		},
		{
			"buffer":0,
			"byteLength":396,
			"byteOffset":27632,
			"target":34962
		},
		{
			"buffer":0,
			"byteLength":264,
			"byteOffset":28028,
			"target":34962
		},
		{
			"buffer":0,
			"byteLength":132,
			"byteOffset":28292,
			"target":34962
		},
		{
			"buffer":0,
			"byteLength":528,
			"byteOffset":28424,
			"target":34962
		},
		{
			"buffer":0,
			"byteLength":306,
			"byteOffset":28952,
			"target":34963
		},
		{
			"buffer":0,
			"byteLength":240,
			"byteOffset":29260,
			"target":34962
		},
		{
			"buffer":0,
			"byteLength":240,
			"byteOffset":29500,
			"target":34962
		},
		{
			"buffer":0,
			"byteLength":160,
			"byteOffset":29740,
			"target":34962
		},
		{
			"buffer":0,
			"byteLength":80,
			"byteOffset":29900,
			"target":34962
		},
		{
			"buffer":0,
			"byteLength":320,
			"byteOffset":29980,
			"target":34962
		},
		{
			"buffer":0,
			"byteLength":150,
			"byteOffset":30300,
			"target":34963
		},
		{
			"buffer":0,
			"byteLength":144,
			"byteOffset":30452,
			"target":34962
		},
		{
			"buffer":0,
			"byteLength":144,
			"byteOffset":30596,
			"target":34962
		},
		{
			"buffer":0,
			"byteLength":96,
			"byteOffset":30740,
			"target":34962
		},
		{
			"buffer":0,
			"byteLength":48,
			"byteOffset":30836,
			"target":34962
		},
		{
			"buffer":0,
			"byteLength":192,
			"byteOffset":30884,
			"target":34962
		},
		{
			"buffer":0,
			"byteLength":72,
			"byteOffset":31076,
			"target":34963
		},
		{
			"buffer":0,
			"byteLength":336,
			"byteOffset":31148,
			"target":34962
		},
		{
			"buffer":0,
			"byteLength":336,
			"byteOffset":31484,
			"target":34962
		},
		{
			"buffer":0,
			"byteLength":224,
			"byteOffset":31820,
			"target":34962
		},
		{
			"buffer":0,
			"byteLength":112,
			"byteOffset":32044,
			"target":34962
		},
		{
			"buffer":0,
			"byteLength":448,
			"byteOffset":32156,
			"target":34962
		},
		{
			"buffer":0,
			"byteLength":228,
			"byteOffset":32604,
			"target":34963
		},
		{
			"buffer":0,
			"byteLength":684,
			"byteOffset":32832,
			"target":34962
		},
		{
			"buffer":0,
			"byteLength":684,
			"byteOffset":33516,
			"target":34962
		},
		{
			"buffer":0,
			"byteLength":456,
			"byteOffset":34200,
			"target":34962
		},
		{
			"buffer":0,
			"byteLength":228,
			"byteOffset":34656,
			"target":34962
		},
		{
			"buffer":0,
			"byteLength":912,
			"byteOffset":34884,
			"target":34962
		},
		{
			"buffer":0,
			"byteLength":552,
			"byteOffset":35796,
			"target":34963
		},
		{
			"buffer":0,
			"byteLength":108,
			"byteOffset":36348,
			"target":34962
		},
		{
			"buffer":0,
			"byteLength":108,
			"byteOffset":36456,
			"target":34962
		},
		{
			"buffer":0,
			"byteLength":72,
			"byteOffset":36564,
			"target":34962
		},
		{
			"buffer":0,
			"byteLength":36,
			"byteOffset":36636,
			"target":34962
		},
		{
			"buffer":0,
			"byteLength":144,
			"byteOffset":36672,
			"target":34962
		},
		{
			"buffer":0,
			"byteLength":48,
			"byteOffset":36816,
			"target":34963
		},
		{
			"buffer":0,
			"byteLength":240,
			"byteOffset":36864,
			"target":34962
		},
		{
			"buffer":0,
			"byteLength":240,
			"byteOffset":37104,
			"target":34962
		},
		{
			"buffer":0,
			"byteLength":160,
			"byteOffset":37344,
			"target":34962
		},
		{
			"buffer":0,
			"byteLength":80,
			"byteOffset":37504,
			"target":34962
		},
		{
			"buffer":0,
			"byteLength":320,
			"byteOffset":37584,
			"target":34962
		},
		{
			"buffer":0,
			"byteLength":144,
			"byteOffset":37904,
			"target":34963
		}
	],
	"samplers":[
		{
			"magFilter":9729,
			"minFilter":9987
		}
	],
	"buffers":[
		{
			"byteLength":38048,
			"uri":"Ballery.bin"
		}
	]
}
