{
	"asset":{
		"generator":"Khronos glTF Blender I/O v4.0.44",
		"version":"2.0"
	},
	"extensionsUsed":[
		"KHR_materials_specular",
		"KHR_materials_ior"
	],
	"scene":0,
	"scenes":[
		{
			"name":"Scene",
			"nodes":[
				56
			]
		}
	],
	"nodes":[
		{
			"name":"n012_object_00004354",
			"rotation":[
				0,
				-0.8195638656616211,
				-4.233284554739169e-18,
				0.5729878544807434
			],
			"translation":[
				3.226536512374878,
				0.5424458980560303,
				0.005293276626616716
			]
		},
		{
			"children":[
				0
			],
			"name":"n011_object_00004388",
			"rotation":[
				6.9388897680041656e-18,
				5.820766091346741e-11,
				5.416378650997225e-21,
				1
			],
			"translation":[
				-3.2265353202819824,
				-0.5442559719085693,
				-0.005293416325002909
			]
		},
		{
			"children":[
				1
			],
			"name":"n010_object_000043BC",
			"rotation":[
				3.469447779134227e-18,
				0.000808834854979068,
				-3.552714525833448e-15,
				0.9999996423721313
			],
			"scale":[
				1.0000001192092896,
				1,
				1.0000001192092896
			],
			"translation":[
				5.921151569054928e-08,
				2.4499590267623716e-07,
				1.1903454577577577e-07
			]
		},
		{
			"children":[
				2
			],
			"name":"n009_object_000043F0",
			"rotation":[
				-1.0842021724855044e-19,
				-2.7537347705219872e-05,
				-3.552713678800501e-15,
				1
			],
			"translation":[
				-3.425761292419338e-07,
				0.0018081730231642723,
				5.063852768216748e-07
			]
		},
		{
			"children":[
				3
			],
			"name":"n008_object_00004424",
			"rotation":[
				-1.6940658945086007e-21,
				-1.3073986337985843e-12,
				-3.552713678800501e-15,
				1
			],
			"translation":[
				1.7985714673995972,
				-1.7617058753967285,
				-0.0001396837324136868
			]
		},
		{
			"children":[
				4
			],
			"name":"n007_object_00004458",
			"rotation":[
				-1.6940660964569924e-21,
				-0.00013780593872070312,
				-3.552713678800501e-15,
				1
			],
			"scale":[
				0.9999999403953552,
				1,
				0.9999999403953552
			],
			"translation":[
				-1.714490532875061,
				-1.687742829322815,
				-0.0007951378356665373
			]
		},
		{
			"children":[
				5
			],
			"name":"n006_object_0000448C",
			"rotation":[
				-4.336808689942018e-19,
				0.0001653432846069336,
				0,
				1
			],
			"translation":[
				-1.98702689857555e-08,
				2.2946500255471847e-10,
				-1.7052101952685916e-07
			]
		},
		{
			"children":[
				6
			],
			"name":"n005_object_000044C0",
			"rotation":[
				0,
				0.7070390582084656,
				0,
				0.70717453956604
			],
			"translation":[
				1.4819543361663818,
				-0.3382740914821625,
				-0.0028385354671627283
			]
		},
		{
			"name":"n020_object_000041B4",
			"rotation":[
				0,
				-0.5741544365882874,
				0,
				0.8187470436096191
			],
			"scale":[
				0.9999999403953552,
				1,
				0.9999999403953552
			],
			"translation":[
				3.2263259887695312,
				0.543684720993042,
				0.005280028562992811
			]
		},
		{
			"children":[
				8
			],
			"name":"n019_object_000041E8",
			"rotation":[
				1.040833671995778e-17,
				5.820766091346741e-11,
				5.403143761196377e-21,
				1
			],
			"translation":[
				-3.226325750350952,
				-0.5454933643341064,
				-0.005280531011521816
			]
		},
		{
			"children":[
				9
			],
			"name":"n018_object_0000421C",
			"rotation":[
				3.469447779134227e-18,
				0.0008069871109910309,
				-3.552714525833448e-15,
				0.9999996423721313
			],
			"scale":[
				1.0000001192092896,
				1,
				1.0000001192092896
			],
			"translation":[
				-5.132210390002001e-08,
				2.449655767122749e-07,
				-1.1751554040984047e-07
			]
		},
		{
			"children":[
				10
			],
			"name":"n017_object_00004250",
			"rotation":[
				-1.0842021724855044e-19,
				-2.7656556994770654e-05,
				-3.552713678800501e-15,
				1
			],
			"translation":[
				2.8749983016496117e-07,
				0.0018076961860060692,
				1.4917081614385097e-07
			]
		},
		{
			"children":[
				11
			],
			"name":"n016_object_00004284",
			"rotation":[
				-1.6940658945086007e-21,
				-1.3073986337985843e-12,
				-3.552713678800501e-15,
				1
			],
			"translation":[
				1.7985714673995972,
				-1.7617063522338867,
				-0.00013968332496006042
			]
		},
		{
			"children":[
				12
			],
			"name":"n015_object_000042B8",
			"rotation":[
				-1.6940660964569924e-21,
				-0.00013780593872070312,
				-3.552713678800501e-15,
				1
			],
			"scale":[
				0.9999999403953552,
				1,
				0.9999999403953552
			],
			"translation":[
				-1.7144912481307983,
				-1.6877436637878418,
				-0.0007962019881233573
			]
		},
		{
			"children":[
				13
			],
			"name":"n014_object_000042EC",
			"rotation":[
				-4.336808689942018e-19,
				0.0001653432846069336,
				0,
				1
			],
			"translation":[
				-4.384450136285523e-09,
				1.991429798842148e-10,
				9.0430397392538e-08
			]
		},
		{
			"children":[
				14
			],
			"name":"n013_object_00004320",
			"rotation":[
				0,
				0.7070390582084656,
				0,
				0.70717453956604
			],
			"translation":[
				-1.4820555448532104,
				-0.3378264307975769,
				-0.0028386376798152924
			]
		},
		{
			"children":[
				7,
				15
			],
			"name":"n004_object_000044F4",
			"rotation":[
				0,
				-0.707058846950531,
				0,
				0.7071546912193298
			],
			"translation":[
				-0.0005673841224052012,
				1.9730671644210815,
				-5.093170329928398e-11
			]
		},
		{
			"children":[
				16
			],
			"name":"n003_object_00004528",
			"rotation":[
				5.293955920339377e-23,
				0,
				0,
				1
			],
			"translation":[
				0.0005673841224052012,
				-1.973067283630371,
				4.662902008956138e-11
			]
		},
		{
			"children":[
				17
			],
			"name":"n002_object_0000455C",
			"rotation":[
				5.293955920339377e-23,
				0,
				0,
				1
			],
			"translation":[
				4.336808689942018e-19,
				-2.2737367544323206e-13,
				0
			]
		},
		{
			"children":[
				18
			],
			"name":"n001_object_00004590",
			"rotation":[
				0,
				0.7071067690849304,
				0,
				0.7071067690849304
			],
			"scale":[
				1,
				0.9999999403953552,
				1
			],
			"translation":[
				7.275957614183426e-12,
				0,
				0
			]
		},
		{
			"name":"n024_object_000040E4",
			"rotation":[
				0,
				-0.7070589065551758,
				3.0663792102493874e-19,
				0.7071546316146851
			],
			"translation":[
				3.049014091491699,
				1.0968735218048096,
				2.451954230764386e-07
			]
		},
		{
			"name":"n029_object_00003FE0",
			"rotation":[
				0,
				-2.1094986379921465e-07,
				0,
				1
			],
			"translation":[
				-0.0008993340888991952,
				4.692956924438477,
				-0.7073109745979309
			]
		},
		{
			"name":"n032_object_000039EC",
			"translation":[
				-1.7661584694739219e-10,
				-9.236220677166784e-08,
				5.089472310260135e-08
			]
		},
		{
			"children":[
				22
			],
			"name":"n031_object_00003F78",
			"translation":[
				0.009999998845160007,
				1.8149863763028407e-06,
				5.089472310260135e-08
			]
		},
		{
			"name":"n034_object_00003420",
			"translation":[
				-1.7661584694739219e-10,
				-9.236220677166784e-08,
				4.5551175276159483e-08
			]
		},
		{
			"children":[
				24
			],
			"name":"n033_object_000039B8",
			"translation":[
				-0.004911999683827162,
				-1.0460365729159093e-06,
				4.5551175276159483e-08
			]
		},
		{
			"children":[
				23,
				25
			],
			"name":"n030_object_00003FAC",
			"rotation":[
				0,
				3.4779645829985384e-10,
				0,
				1
			],
			"translation":[
				-0.0028379573486745358,
				1.5334612131118774,
				1.2239259481430054
			]
		},
		{
			"name":"n037_object_00002B30",
			"rotation":[
				0,
				5.048709793414476e-29,
				-4.235164736271502e-22,
				1
			],
			"translation":[
				8.061482367338613e-05,
				-0.4202952980995178,
				-1.049492597579956
			]
		},
		{
			"children":[
				27
			],
			"name":"n036_object_000033B8",
			"rotation":[
				0,
				2.1129760341409565e-07,
				-4.235164736271502e-22,
				1
			],
			"translation":[
				8.951684139901772e-05,
				-0.4626988470554352,
				2.3526127338409424
			]
		},
		{
			"name":"n039_object_000024DC",
			"rotation":[
				0,
				5.048709793414476e-29,
				-4.235164736271502e-22,
				1
			],
			"translation":[
				0.00010195512004429474,
				-0.5320025086402893,
				0.003461494343355298
			]
		},
		{
			"children":[
				29
			],
			"name":"n038_object_00002990",
			"rotation":[
				0,
				2.1129760341409565e-07,
				-4.235164736271502e-22,
				1
			],
			"translation":[
				0.00026721248286776245,
				-1.3918794393539429,
				1.3012033700942993
			]
		},
		{
			"children":[
				28,
				30
			],
			"name":"n035_object_000033EC",
			"rotation":[
				0,
				-2.1094979274494108e-07,
				0,
				1
			],
			"translation":[
				2.947649591078516e-05,
				-0.15472838282585144,
				2.774278163909912
			]
		},
		{
			"name":"n041_object_00002308",
			"translation":[
				0.9841389656066895,
				0.00023585250892210752,
				8.19542310637189e-06
			]
		},
		{
			"name":"n042_object_00001DAC",
			"translation":[
				-0.9841388463973999,
				-0.00014132568321656436,
				8.205370249925181e-06
			]
		},
		{
			"children":[
				32,
				33
			],
			"name":"n040_object_0000233C",
			"rotation":[
				0,
				3.4779645829985384e-10,
				0,
				1
			],
			"translation":[
				-0.0004107483837287873,
				2.142484664916992,
				2.4096667766571045
			]
		},
		{
			"children":[
				21,
				26,
				31,
				34
			],
			"name":"n028_object_00004014",
			"rotation":[
				0,
				-0.7071066498756409,
				-5.989426296672787e-22,
				0.70710688829422
			],
			"translation":[
				6.515010833740234,
				-1.7428603172302246,
				5.239803613221738e-07
			]
		},
		{
			"children":[
				35
			],
			"name":"n027_object_00004048",
			"rotation":[
				5.293955920339377e-23,
				0,
				0,
				1
			],
			"translation":[
				-6.514459609985352,
				0.026857838034629822,
				-5.240113978288718e-07
			]
		},
		{
			"children":[
				36
			],
			"name":"n026_object_0000407C",
			"rotation":[
				5.293955920339377e-23,
				0,
				0,
				1
			],
			"translation":[
				9.313197324445355e-09,
				1.9073486328125e-06,
				4.883517635417833e-16
			]
		},
		{
			"children":[
				37
			],
			"name":"n025_object_000040B0",
			"rotation":[
				5.293955920339377e-23,
				0,
				0,
				1
			],
			"translation":[
				1.858978748714435e-09,
				1.7160015106201172,
				7.276039146186797e-12
			]
		},
		{
			"children":[
				20,
				38
			],
			"name":"n023_object_00004118",
			"rotation":[
				5.293955920339377e-23,
				0,
				0,
				1
			],
			"translation":[
				-1.3010426069826053e-18,
				3.843113660812378,
				2.9103830456733704e-11
			]
		},
		{
			"children":[
				39
			],
			"name":"n022_object_0000414C",
			"rotation":[
				5.293955920339377e-23,
				0,
				0,
				1
			],
			"translation":[
				4.336808689942018e-19,
				-2.2737367544323206e-13,
				-7.275957614183426e-12
			]
		},
		{
			"children":[
				40
			],
			"name":"n021_object_00004180",
			"rotation":[
				0,
				0.7071067690849304,
				0,
				0.7071067690849304
			],
			"scale":[
				1,
				0.9999999403953552,
				1
			],
			"translation":[
				7.275957614183426e-12,
				0,
				0
			]
		},
		{
			"name":"n043_object_00001878"
		},
		{
			"children":[
				19,
				41,
				42
			],
			"name":"n000_object_000045C4",
			"rotation":[
				-0.7071067690849304,
				0,
				0,
				0.7071067690849304
			],
			"translation":[
				9.999999747378752e-05,
				0,
				0
			]
		},
		{
			"mesh":0,
			"name":"meshnode_0",
			"skin":0
		},
		{
			"mesh":1,
			"name":"meshnode_1",
			"skin":0
		},
		{
			"mesh":2,
			"name":"meshnode_10",
			"skin":0
		},
		{
			"mesh":3,
			"name":"meshnode_11",
			"skin":0
		},
		{
			"mesh":4,
			"name":"meshnode_2",
			"skin":0
		},
		{
			"mesh":5,
			"name":"meshnode_3",
			"skin":0
		},
		{
			"mesh":6,
			"name":"meshnode_4",
			"skin":0
		},
		{
			"mesh":7,
			"name":"meshnode_5",
			"skin":0
		},
		{
			"mesh":8,
			"name":"meshnode_6",
			"skin":0
		},
		{
			"mesh":9,
			"name":"meshnode_7",
			"skin":0
		},
		{
			"mesh":10,
			"name":"meshnode_8",
			"skin":0
		},
		{
			"mesh":11,
			"name":"meshnode_9",
			"skin":0
		},
		{
			"children":[
				44,
				45,
				46,
				47,
				48,
				49,
				50,
				51,
				52,
				53,
				54,
				55,
				43
			],
			"name":"Armature",
			"rotation":[
				0.7071068286895752,
				0,
				0,
				0.7071068286895752
			]
		}
	],
	"materials":[
		{
			"doubleSided":true,
			"extensions":{
				"KHR_materials_specular":{
					"specularFactor":0
				},
				"KHR_materials_ior":{
					"ior":1.4500000476837158
				}
			},
			"name":"attach_00003F60_material_0",
			"pbrMetallicRoughness":{
				"baseColorTexture":{
					"index":0
				},
				"metallicFactor":0,
				"roughnessFactor":0.5
			}
		},
		{
			"doubleSided":true,
			"extensions":{
				"KHR_materials_specular":{
					"specularFactor":0
				},
				"KHR_materials_ior":{
					"ior":1.4500000476837158
				}
			},
			"name":"attach_000039A0_material_0",
			"pbrMetallicRoughness":{
				"baseColorTexture":{
					"index":1
				},
				"metallicFactor":0,
				"roughnessFactor":0.5
			}
		},
		{
			"doubleSided":true,
			"extensions":{
				"KHR_materials_specular":{
					"specularFactor":0
				},
				"KHR_materials_ior":{
					"ior":1.4500000476837158
				}
			},
			"name":"attach_00001D94_material_0",
			"pbrMetallicRoughness":{
				"baseColorTexture":{
					"index":2
				},
				"metallicFactor":0,
				"roughnessFactor":0.5
			}
		},
		{
			"doubleSided":true,
			"extensions":{
				"KHR_materials_specular":{
					"specularFactor":0
				},
				"KHR_materials_ior":{
					"ior":1.4500000476837158
				}
			},
			"name":"attach_00001860_material_0",
			"pbrMetallicRoughness":{
				"baseColorTexture":{
					"index":3
				},
				"metallicFactor":0,
				"roughnessFactor":0.5
			}
		},
		{
			"doubleSided":true,
			"extensions":{
				"KHR_materials_specular":{
					"specularFactor":0
				},
				"KHR_materials_ior":{
					"ior":1.4500000476837158
				}
			},
			"name":"attach_000033A0_material_0",
			"pbrMetallicRoughness":{
				"baseColorTexture":{
					"index":4
				},
				"metallicFactor":0,
				"roughnessFactor":0.5
			}
		},
		{
			"doubleSided":true,
			"extensions":{
				"KHR_materials_specular":{
					"specularFactor":0
				},
				"KHR_materials_ior":{
					"ior":1.4500000476837158
				}
			},
			"name":"attach_000033A0_material_1",
			"pbrMetallicRoughness":{
				"baseColorTexture":{
					"index":5
				},
				"metallicFactor":0,
				"roughnessFactor":0.5
			}
		},
		{
			"doubleSided":true,
			"extensions":{
				"KHR_materials_specular":{
					"specularFactor":0
				},
				"KHR_materials_ior":{
					"ior":1.4500000476837158
				}
			},
			"name":"attach_000033A0_material_2",
			"pbrMetallicRoughness":{
				"baseColorTexture":{
					"index":6
				},
				"metallicFactor":0,
				"roughnessFactor":0.5
			}
		},
		{
			"alphaMode":"BLEND",
			"doubleSided":true,
			"extensions":{
				"KHR_materials_specular":{
					"specularFactor":0
				},
				"KHR_materials_ior":{
					"ior":1.4500000476837158
				}
			},
			"name":"attach_00002B18_material_0",
			"pbrMetallicRoughness":{
				"baseColorTexture":{
					"index":7
				},
				"metallicFactor":0,
				"roughnessFactor":0.5
			}
		},
		{
			"doubleSided":true,
			"extensions":{
				"KHR_materials_specular":{
					"specularFactor":0
				},
				"KHR_materials_ior":{
					"ior":1.4500000476837158
				}
			},
			"name":"attach_00002978_material_0",
			"pbrMetallicRoughness":{
				"baseColorTexture":{
					"index":8
				},
				"metallicFactor":0,
				"roughnessFactor":0.5
			}
		},
		{
			"doubleSided":true,
			"extensions":{
				"KHR_materials_specular":{
					"specularFactor":0
				},
				"KHR_materials_ior":{
					"ior":1.4500000476837158
				}
			},
			"name":"attach_00002978_material_1",
			"pbrMetallicRoughness":{
				"baseColorTexture":{
					"index":9
				},
				"metallicFactor":0,
				"roughnessFactor":0.5
			}
		},
		{
			"alphaMode":"BLEND",
			"doubleSided":true,
			"extensions":{
				"KHR_materials_specular":{
					"specularFactor":0
				},
				"KHR_materials_ior":{
					"ior":1.4500000476837158
				}
			},
			"name":"attach_000024C4_material_0",
			"pbrMetallicRoughness":{
				"baseColorTexture":{
					"index":10
				},
				"metallicFactor":0,
				"roughnessFactor":0.5
			}
		},
		{
			"doubleSided":true,
			"extensions":{
				"KHR_materials_specular":{
					"specularFactor":0
				},
				"KHR_materials_ior":{
					"ior":1.4500000476837158
				}
			},
			"name":"attach_000022F0_material_0",
			"pbrMetallicRoughness":{
				"baseColorTexture":{
					"index":11
				},
				"metallicFactor":0,
				"roughnessFactor":0.5
			}
		}
	],
	"meshes":[
		{
			"name":"meshId0_name",
			"primitives":[
				{
					"attributes":{
						"POSITION":0,
						"NORMAL":1,
						"TEXCOORD_0":2,
						"JOINTS_0":3,
						"WEIGHTS_0":4
					},
					"indices":5,
					"material":0
				}
			]
		},
		{
			"name":"meshId1_name",
			"primitives":[
				{
					"attributes":{
						"POSITION":7,
						"NORMAL":8,
						"TEXCOORD_0":9,
						"JOINTS_0":10,
						"WEIGHTS_0":11
					},
					"indices":12,
					"material":1
				}
			]
		},
		{
			"name":"meshId10_name",
			"primitives":[
				{
					"attributes":{
						"POSITION":13,
						"NORMAL":14,
						"TEXCOORD_0":15,
						"JOINTS_0":16,
						"WEIGHTS_0":17
					},
					"indices":18,
					"material":2
				}
			]
		},
		{
			"name":"meshId11_name",
			"primitives":[
				{
					"attributes":{
						"POSITION":19,
						"NORMAL":20,
						"TEXCOORD_0":21,
						"JOINTS_0":22,
						"WEIGHTS_0":23
					},
					"indices":24,
					"material":3
				}
			]
		},
		{
			"name":"meshId2_name",
			"primitives":[
				{
					"attributes":{
						"POSITION":25,
						"NORMAL":26,
						"TEXCOORD_0":27,
						"JOINTS_0":28,
						"WEIGHTS_0":29
					},
					"indices":30,
					"material":4
				}
			]
		},
		{
			"name":"meshId3_name",
			"primitives":[
				{
					"attributes":{
						"POSITION":31,
						"NORMAL":32,
						"TEXCOORD_0":33,
						"JOINTS_0":34,
						"WEIGHTS_0":35
					},
					"indices":36,
					"material":5
				}
			]
		},
		{
			"name":"meshId4_name",
			"primitives":[
				{
					"attributes":{
						"POSITION":37,
						"NORMAL":38,
						"TEXCOORD_0":39,
						"JOINTS_0":40,
						"WEIGHTS_0":41
					},
					"indices":42,
					"material":6
				}
			]
		},
		{
			"name":"meshId5_name",
			"primitives":[
				{
					"attributes":{
						"POSITION":43,
						"NORMAL":44,
						"TEXCOORD_0":45,
						"JOINTS_0":46,
						"WEIGHTS_0":47
					},
					"indices":48,
					"material":7
				}
			]
		},
		{
			"name":"meshId6_name",
			"primitives":[
				{
					"attributes":{
						"POSITION":49,
						"NORMAL":50,
						"TEXCOORD_0":51,
						"JOINTS_0":52,
						"WEIGHTS_0":53
					},
					"indices":54,
					"material":8
				}
			]
		},
		{
			"name":"meshId7_name",
			"primitives":[
				{
					"attributes":{
						"POSITION":55,
						"NORMAL":56,
						"TEXCOORD_0":57,
						"JOINTS_0":58,
						"WEIGHTS_0":59
					},
					"indices":60,
					"material":9
				}
			]
		},
		{
			"name":"meshId8_name",
			"primitives":[
				{
					"attributes":{
						"POSITION":61,
						"NORMAL":62,
						"TEXCOORD_0":63,
						"JOINTS_0":64,
						"WEIGHTS_0":65
					},
					"indices":48,
					"material":10
				}
			]
		},
		{
			"name":"meshId9_name",
			"primitives":[
				{
					"attributes":{
						"POSITION":66,
						"NORMAL":67,
						"TEXCOORD_0":68,
						"JOINTS_0":69,
						"WEIGHTS_0":70
					},
					"indices":71,
					"material":11
				}
			]
		}
	],
	"textures":[
		{
			"sampler":0,
			"source":0
		},
		{
			"sampler":0,
			"source":0
		},
		{
			"sampler":0,
			"source":1
		},
		{
			"sampler":0,
			"source":2
		},
		{
			"sampler":0,
			"source":3
		},
		{
			"sampler":0,
			"source":4
		},
		{
			"sampler":0,
			"source":5
		},
		{
			"sampler":0,
			"source":6
		},
		{
			"sampler":0,
			"source":0
		},
		{
			"sampler":0,
			"source":7
		},
		{
			"sampler":0,
			"source":6
		},
		{
			"sampler":0,
			"source":1
		}
	],
	"images":[
		{
			"mimeType":"image/png",
			"name":"kaba_beta1_o.png",
			"uri":"kaba_beta1_o.png"
		},
		{
			"mimeType":"image/png",
			"name":"kaba_eye_o.png",
			"uri":"kaba_eye_o.png"
		},
		{
			"mimeType":"image/png",
			"name":"kaba_body_o.png",
			"uri":"kaba_body_o.png"
		},
		{
			"mimeType":"image/png",
			"name":"kaba_nose_o.png",
			"uri":"kaba_nose_o.png"
		},
		{
			"mimeType":"image/png",
			"name":"kaba_nose2_o.png",
			"uri":"kaba_nose2_o.png"
		},
		{
			"mimeType":"image/png",
			"name":"kaba_ago_u_o.png",
			"uri":"kaba_ago_u_o.png"
		},
		{
			"mimeType":"image/png",
			"name":"kaba_ha_o.png",
			"uri":"kaba_ha_o.png"
		},
		{
			"mimeType":"image/png",
			"name":"kaba_ago_d_o.png",
			"uri":"kaba_ago_d_o.png"
		}
	],
	"skins":[
		{
			"inverseBindMatrices":6,
			"joints":[
				43,
				19,
				18,
				17,
				16,
				7,
				6,
				5,
				4,
				3,
				2,
				1,
				0,
				15,
				14,
				13,
				12,
				11,
				10,
				9,
				8,
				41,
				40,
				39,
				20,
				38,
				37,
				36,
				35,
				21,
				26,
				23,
				22,
				25,
				24,
				31,
				28,
				27,
				30,
				29,
				34,
				32,
				33,
				42
			],
			"name":"Armature"
		}
	],
	"accessors":[
		{
			"bufferView":0,
			"componentType":5126,
			"count":33,
			"max":[
				0.01003057137131691,
				8.528116226196289,
				3.1424849033355713
			],
			"min":[
				-2.4145405292510986,
				4.626277446746826,
				-0.7457144260406494
			],
			"type":"VEC3"
		},
		{
			"bufferView":1,
			"componentType":5126,
			"count":33,
			"type":"VEC3"
		},
		{
			"bufferView":2,
			"componentType":5126,
			"count":33,
			"type":"VEC2"
		},
		{
			"bufferView":3,
			"componentType":5121,
			"count":33,
			"type":"VEC4"
		},
		{
			"bufferView":4,
			"componentType":5126,
			"count":33,
			"type":"VEC4"
		},
		{
			"bufferView":5,
			"componentType":5123,
			"count":186,
			"type":"SCALAR"
		},
		{
			"bufferView":6,
			"componentType":5126,
			"count":44,
			"type":"MAT4"
		},
		{
			"bufferView":7,
			"componentType":5126,
			"count":33,
			"max":[
				2.4137232303619385,
				8.528327941894531,
				3.1424832344055176
			],
			"min":[
				-0.011199893429875374,
				4.626835346221924,
				-0.7457153797149658
			],
			"type":"VEC3"
		},
		{
			"bufferView":8,
			"componentType":5126,
			"count":33,
			"type":"VEC3"
		},
		{
			"bufferView":9,
			"componentType":5126,
			"count":33,
			"type":"VEC2"
		},
		{
			"bufferView":10,
			"componentType":5121,
			"count":33,
			"type":"VEC4"
		},
		{
			"bufferView":11,
			"componentType":5126,
			"count":33,
			"type":"VEC4"
		},
		{
			"bufferView":12,
			"componentType":5123,
			"count":186,
			"type":"SCALAR"
		},
		{
			"bufferView":13,
			"componentType":5126,
			"count":33,
			"max":[
				0.2514405846595764,
				7.381532669067383,
				3.796640396118164
			],
			"min":[
				-2.2205402851104736,
				4.5893754959106445,
				1.2505961656570435
			],
			"type":"VEC3"
		},
		{
			"bufferView":14,
			"componentType":5126,
			"count":33,
			"type":"VEC3"
		},
		{
			"bufferView":15,
			"componentType":5126,
			"count":33,
			"type":"VEC2"
		},
		{
			"bufferView":16,
			"componentType":5121,
			"count":33,
			"type":"VEC4"
		},
		{
			"bufferView":17,
			"componentType":5126,
			"count":33,
			"type":"VEC4"
		},
		{
			"bufferView":18,
			"componentType":5123,
			"count":168,
			"type":"SCALAR"
		},
		{
			"bufferView":19,
			"componentType":5126,
			"count":165,
			"max":[
				11.816976547241211,
				6.771422863006592,
				4.637724876403809
			],
			"min":[
				-11.816976547241211,
				-3.837402105331421,
				-4.12248420715332
			],
			"type":"VEC3"
		},
		{
			"bufferView":20,
			"componentType":5126,
			"count":165,
			"type":"VEC3"
		},
		{
			"bufferView":21,
			"componentType":5126,
			"count":165,
			"type":"VEC2"
		},
		{
			"bufferView":22,
			"componentType":5121,
			"count":165,
			"type":"VEC4"
		},
		{
			"bufferView":23,
			"componentType":5126,
			"count":165,
			"type":"VEC4"
		},
		{
			"bufferView":24,
			"componentType":5123,
			"count":924,
			"type":"SCALAR"
		},
		{
			"bufferView":25,
			"componentType":5126,
			"count":24,
			"max":[
				3.333866596221924,
				6.576132297515869,
				8.818750381469727
			],
			"min":[
				-3.334113597869873,
				2.941455125808716,
				6.703730583190918
			],
			"type":"VEC3"
		},
		{
			"bufferView":26,
			"componentType":5126,
			"count":24,
			"type":"VEC3"
		},
		{
			"bufferView":27,
			"componentType":5126,
			"count":24,
			"type":"VEC2"
		},
		{
			"bufferView":28,
			"componentType":5121,
			"count":24,
			"type":"VEC4"
		},
		{
			"bufferView":29,
			"componentType":5126,
			"count":24,
			"type":"VEC4"
		},
		{
			"bufferView":30,
			"componentType":5123,
			"count":96,
			"type":"SCALAR"
		},
		{
			"bufferView":31,
			"componentType":5126,
			"count":37,
			"max":[
				4.032591819763184,
				6.576132297515869,
				7.129067897796631
			],
			"min":[
				-4.032500267028809,
				0.026690300554037094,
				1.4343509674072266
			],
			"type":"VEC3"
		},
		{
			"bufferView":32,
			"componentType":5126,
			"count":37,
			"type":"VEC3"
		},
		{
			"bufferView":33,
			"componentType":5126,
			"count":37,
			"type":"VEC2"
		},
		{
			"bufferView":34,
			"componentType":5121,
			"count":37,
			"type":"VEC4"
		},
		{
			"bufferView":35,
			"componentType":5126,
			"count":37,
			"type":"VEC4"
		},
		{
			"bufferView":36,
			"componentType":5123,
			"count":162,
			"type":"SCALAR"
		},
		{
			"bufferView":37,
			"componentType":5126,
			"count":9,
			"max":[
				2.939103126525879,
				3.167151927947998,
				8.29515266418457
			],
			"min":[
				-2.9378247261047363,
				0.026690300554037094,
				3.900386095046997
			],
			"type":"VEC3"
		},
		{
			"bufferView":38,
			"componentType":5126,
			"count":9,
			"type":"VEC3"
		},
		{
			"bufferView":39,
			"componentType":5126,
			"count":9,
			"type":"VEC2"
		},
		{
			"bufferView":40,
			"componentType":5121,
			"count":9,
			"type":"VEC4"
		},
		{
			"bufferView":41,
			"componentType":5126,
			"count":9,
			"type":"VEC4"
		},
		{
			"bufferView":42,
			"componentType":5123,
			"count":24,
			"type":"SCALAR"
		},
		{
			"bufferView":43,
			"componentType":5126,
			"count":10,
			"max":[
				2.7953438758850098,
				3.250441789627075,
				8.255660057067871
			],
			"min":[
				-2.7933433055877686,
				2.228207588195801,
				4.067169189453125
			],
			"type":"VEC3"
		},
		{
			"bufferView":44,
			"componentType":5126,
			"count":10,
			"type":"VEC3"
		},
		{
			"bufferView":45,
			"componentType":5126,
			"count":10,
			"type":"VEC2"
		},
		{
			"bufferView":46,
			"componentType":5121,
			"count":10,
			"type":"VEC4"
		},
		{
			"bufferView":47,
			"componentType":5126,
			"count":10,
			"type":"VEC4"
		},
		{
			"bufferView":48,
			"componentType":5123,
			"count":24,
			"type":"SCALAR"
		},
		{
			"bufferView":49,
			"componentType":5126,
			"count":26,
			"max":[
				3.377506732940674,
				3.810857057571411,
				8.363214492797852
			],
			"min":[
				-3.3774051666259766,
				0.10160139203071594,
				2.8238518238067627
			],
			"type":"VEC3"
		},
		{
			"bufferView":50,
			"componentType":5126,
			"count":26,
			"type":"VEC3"
		},
		{
			"bufferView":51,
			"componentType":5126,
			"count":26,
			"type":"VEC2"
		},
		{
			"bufferView":52,
			"componentType":5121,
			"count":26,
			"type":"VEC4"
		},
		{
			"bufferView":53,
			"componentType":5126,
			"count":26,
			"type":"VEC4"
		},
		{
			"bufferView":54,
			"componentType":5123,
			"count":117,
			"type":"SCALAR"
		},
		{
			"bufferView":55,
			"componentType":5126,
			"count":11,
			"max":[
				3.1892919540405273,
				2.1237833499908447,
				8.363214492797852
			],
			"min":[
				-3.1884689331054688,
				1.2420121431350708,
				2.922663450241089
			],
			"type":"VEC3"
		},
		{
			"bufferView":56,
			"componentType":5126,
			"count":11,
			"type":"VEC3"
		},
		{
			"bufferView":57,
			"componentType":5126,
			"count":11,
			"type":"VEC2"
		},
		{
			"bufferView":58,
			"componentType":5121,
			"count":11,
			"type":"VEC4"
		},
		{
			"bufferView":59,
			"componentType":5126,
			"count":11,
			"type":"VEC4"
		},
		{
			"bufferView":60,
			"componentType":5123,
			"count":27,
			"type":"SCALAR"
		},
		{
			"bufferView":61,
			"componentType":5126,
			"count":10,
			"max":[
				2.7948734760284424,
				2.3253133296966553,
				8.254239082336426
			],
			"min":[
				-2.7938244342803955,
				1.1096991300582886,
				4.071589946746826
			],
			"type":"VEC3"
		},
		{
			"bufferView":62,
			"componentType":5126,
			"count":10,
			"type":"VEC3"
		},
		{
			"bufferView":63,
			"componentType":5126,
			"count":10,
			"type":"VEC2"
		},
		{
			"bufferView":64,
			"componentType":5121,
			"count":10,
			"type":"VEC4"
		},
		{
			"bufferView":65,
			"componentType":5126,
			"count":10,
			"type":"VEC4"
		},
		{
			"bufferView":66,
			"componentType":5126,
			"count":33,
			"max":[
				2.219681739807129,
				7.3818464279174805,
				3.7966408729553223
			],
			"min":[
				-0.2522215247154236,
				4.589817047119141,
				1.2505953311920166
			],
			"type":"VEC3"
		},
		{
			"bufferView":67,
			"componentType":5126,
			"count":33,
			"type":"VEC3"
		},
		{
			"bufferView":68,
			"componentType":5126,
			"count":33,
			"type":"VEC2"
		},
		{
			"bufferView":69,
			"componentType":5121,
			"count":33,
			"type":"VEC4"
		},
		{
			"bufferView":70,
			"componentType":5126,
			"count":33,
			"type":"VEC4"
		},
		{
			"bufferView":71,
			"componentType":5123,
			"count":168,
			"type":"SCALAR"
		}
	],
	"bufferViews":[
		{
			"buffer":0,
			"byteLength":396,
			"byteOffset":0,
			"target":34962
		},
		{
			"buffer":0,
			"byteLength":396,
			"byteOffset":396,
			"target":34962
		},
		{
			"buffer":0,
			"byteLength":264,
			"byteOffset":792,
			"target":34962
		},
		{
			"buffer":0,
			"byteLength":132,
			"byteOffset":1056,
			"target":34962
		},
		{
			"buffer":0,
			"byteLength":528,
			"byteOffset":1188,
			"target":34962
		},
		{
			"buffer":0,
			"byteLength":372,
			"byteOffset":1716,
			"target":34963
		},
		{
			"buffer":0,
			"byteLength":2816,
			"byteOffset":2088
		},
		{
			"buffer":0,
			"byteLength":396,
			"byteOffset":4904,
			"target":34962
		},
		{
			"buffer":0,
			"byteLength":396,
			"byteOffset":5300,
			"target":34962
		},
		{
			"buffer":0,
			"byteLength":264,
			"byteOffset":5696,
			"target":34962
		},
		{
			"buffer":0,
			"byteLength":132,
			"byteOffset":5960,
			"target":34962
		},
		{
			"buffer":0,
			"byteLength":528,
			"byteOffset":6092,
			"target":34962
		},
		{
			"buffer":0,
			"byteLength":372,
			"byteOffset":6620,
			"target":34963
		},
		{
			"buffer":0,
			"byteLength":396,
			"byteOffset":6992,
			"target":34962
		},
		{
			"buffer":0,
			"byteLength":396,
			"byteOffset":7388,
			"target":34962
		},
		{
			"buffer":0,
			"byteLength":264,
			"byteOffset":7784,
			"target":34962
		},
		{
			"buffer":0,
			"byteLength":132,
			"byteOffset":8048,
			"target":34962
		},
		{
			"buffer":0,
			"byteLength":528,
			"byteOffset":8180,
			"target":34962
		},
		{
			"buffer":0,
			"byteLength":336,
			"byteOffset":8708,
			"target":34963
		},
		{
			"buffer":0,
			"byteLength":1980,
			"byteOffset":9044,
			"target":34962
		},
		{
			"buffer":0,
			"byteLength":1980,
			"byteOffset":11024,
			"target":34962
		},
		{
			"buffer":0,
			"byteLength":1320,
			"byteOffset":13004,
			"target":34962
		},
		{
			"buffer":0,
			"byteLength":660,
			"byteOffset":14324,
			"target":34962
		},
		{
			"buffer":0,
			"byteLength":2640,
			"byteOffset":14984,
			"target":34962
		},
		{
			"buffer":0,
			"byteLength":1848,
			"byteOffset":17624,
			"target":34963
		},
		{
			"buffer":0,
			"byteLength":288,
			"byteOffset":19472,
			"target":34962
		},
		{
			"buffer":0,
			"byteLength":288,
			"byteOffset":19760,
			"target":34962
		},
		{
			"buffer":0,
			"byteLength":192,
			"byteOffset":20048,
			"target":34962
		},
		{
			"buffer":0,
			"byteLength":96,
			"byteOffset":20240,
			"target":34962
		},
		{
			"buffer":0,
			"byteLength":384,
			"byteOffset":20336,
			"target":34962
		},
		{
			"buffer":0,
			"byteLength":192,
			"byteOffset":20720,
			"target":34963
		},
		{
			"buffer":0,
			"byteLength":444,
			"byteOffset":20912,
			"target":34962
		},
		{
			"buffer":0,
			"byteLength":444,
			"byteOffset":21356,
			"target":34962
		},
		{
			"buffer":0,
			"byteLength":296,
			"byteOffset":21800,
			"target":34962
		},
		{
			"buffer":0,
			"byteLength":148,
			"byteOffset":22096,
			"target":34962
		},
		{
			"buffer":0,
			"byteLength":592,
			"byteOffset":22244,
			"target":34962
		},
		{
			"buffer":0,
			"byteLength":324,
			"byteOffset":22836,
			"target":34963
		},
		{
			"buffer":0,
			"byteLength":108,
			"byteOffset":23160,
			"target":34962
		},
		{
			"buffer":0,
			"byteLength":108,
			"byteOffset":23268,
			"target":34962
		},
		{
			"buffer":0,
			"byteLength":72,
			"byteOffset":23376,
			"target":34962
		},
		{
			"buffer":0,
			"byteLength":36,
			"byteOffset":23448,
			"target":34962
		},
		{
			"buffer":0,
			"byteLength":144,
			"byteOffset":23484,
			"target":34962
		},
		{
			"buffer":0,
			"byteLength":48,
			"byteOffset":23628,
			"target":34963
		},
		{
			"buffer":0,
			"byteLength":120,
			"byteOffset":23676,
			"target":34962
		},
		{
			"buffer":0,
			"byteLength":120,
			"byteOffset":23796,
			"target":34962
		},
		{
			"buffer":0,
			"byteLength":80,
			"byteOffset":23916,
			"target":34962
		},
		{
			"buffer":0,
			"byteLength":40,
			"byteOffset":23996,
			"target":34962
		},
		{
			"buffer":0,
			"byteLength":160,
			"byteOffset":24036,
			"target":34962
		},
		{
			"buffer":0,
			"byteLength":48,
			"byteOffset":24196,
			"target":34963
		},
		{
			"buffer":0,
			"byteLength":312,
			"byteOffset":24244,
			"target":34962
		},
		{
			"buffer":0,
			"byteLength":312,
			"byteOffset":24556,
			"target":34962
		},
		{
			"buffer":0,
			"byteLength":208,
			"byteOffset":24868,
			"target":34962
		},
		{
			"buffer":0,
			"byteLength":104,
			"byteOffset":25076,
			"target":34962
		},
		{
			"buffer":0,
			"byteLength":416,
			"byteOffset":25180,
			"target":34962
		},
		{
			"buffer":0,
			"byteLength":234,
			"byteOffset":25596,
			"target":34963
		},
		{
			"buffer":0,
			"byteLength":132,
			"byteOffset":25832,
			"target":34962
		},
		{
			"buffer":0,
			"byteLength":132,
			"byteOffset":25964,
			"target":34962
		},
		{
			"buffer":0,
			"byteLength":88,
			"byteOffset":26096,
			"target":34962
		},
		{
			"buffer":0,
			"byteLength":44,
			"byteOffset":26184,
			"target":34962
		},
		{
			"buffer":0,
			"byteLength":176,
			"byteOffset":26228,
			"target":34962
		},
		{
			"buffer":0,
			"byteLength":54,
			"byteOffset":26404,
			"target":34963
		},
		{
			"buffer":0,
			"byteLength":120,
			"byteOffset":26460,
			"target":34962
		},
		{
			"buffer":0,
			"byteLength":120,
			"byteOffset":26580,
			"target":34962
		},
		{
			"buffer":0,
			"byteLength":80,
			"byteOffset":26700,
			"target":34962
		},
		{
			"buffer":0,
			"byteLength":40,
			"byteOffset":26780,
			"target":34962
		},
		{
			"buffer":0,
			"byteLength":160,
			"byteOffset":26820,
			"target":34962
		},
		{
			"buffer":0,
			"byteLength":396,
			"byteOffset":26980,
			"target":34962
		},
		{
			"buffer":0,
			"byteLength":396,
			"byteOffset":27376,
			"target":34962
		},
		{
			"buffer":0,
			"byteLength":264,
			"byteOffset":27772,
			"target":34962
		},
		{
			"buffer":0,
			"byteLength":132,
			"byteOffset":28036,
			"target":34962
		},
		{
			"buffer":0,
			"byteLength":528,
			"byteOffset":28168,
			"target":34962
		},
		{
			"buffer":0,
			"byteLength":336,
			"byteOffset":28696,
			"target":34963
		}
	],
	"samplers":[
		{
			"magFilter":9729,
			"minFilter":9987
		}
	],
	"buffers":[
		{
			"byteLength":29032,
			"uri":"OpponentBallery.bin"
		}
	]
}
