{
	"asset":{
		"generator":"Khronos glTF Blender I/O v4.0.44",
		"version":"2.0"
	},
	"extensionsUsed":[
		"KHR_materials_specular",
		"KHR_materials_ior"
	],
	"scene":0,
	"scenes":[
		{
			"name":"Scene",
			"nodes":[
				56
			]
		}
	],
	"nodes":[
		{
			"name":"n009_object_00004A00",
			"rotation":[
				0,
				-0.1477261781692505,
				0,
				0.98902827501297
			],
			"translation":[
				-1.0463558435440063,
				-0.0001618147944100201,
				-4.257295950083062e-05
			]
		},
		{
			"name":"n010_object_000044A4",
			"rotation":[
				0,
				0.1477261781692505,
				0,
				0.98902827501297
			],
			"translation":[
				1.0463560819625854,
				0.00023968209279701114,
				-4.1784598579397425e-05
			]
		},
		{
			"children":[
				0,
				1
			],
			"name":"n008_object_00004A34",
			"rotation":[
				0,
				-5.0066901735590363e-08,
				0,
				1
			],
			"translation":[
				-0.0005395038169808686,
				2.757535219192505,
				2.197892427444458
			]
		},
		{
			"name":"n012_object_00003F04",
			"rotation":[
				0,
				2.1129712024503533e-07,
				0,
				1
			],
			"translation":[
				0.9516058564186096,
				1.6491302251815796,
				-0.6765931844711304
			]
		},
		{
			"name":"n013_object_00003B24",
			"rotation":[
				0,
				2.1129712024503533e-07,
				0,
				1
			],
			"translation":[
				-0.9521380662918091,
				1.6487654447555542,
				-0.6765929460525513
			]
		},
		{
			"children":[
				3,
				4
			],
			"name":"n011_object_00003F38",
			"rotation":[
				0,
				-5.0066901735590363e-08,
				0,
				1
			],
			"translation":[
				-0.00021420822304207832,
				0.8252770900726318,
				2.7868826389312744
			]
		},
		{
			"name":"n015_object_00003720",
			"rotation":[
				0,
				0,
				-5.421010862427522e-20,
				1
			],
			"translation":[
				7.292327852681524e-11,
				4.2204337091789057e-07,
				5.862929697286745e-08
			]
		},
		{
			"name":"n016_object_0000306C",
			"rotation":[
				0,
				0,
				-5.421010862427522e-20,
				1
			],
			"translation":[
				0.007305999286472797,
				2.3293919184652623e-06,
				5.8351986353955e-07
			]
		},
		{
			"children":[
				6,
				7
			],
			"name":"n014_object_00003754",
			"rotation":[
				0,
				1.9366831111256033e-05,
				-5.421010862427522e-20,
				1
			],
			"translation":[
				-0.0038492432795464993,
				2.8606743812561035,
				0.7117504477500916
			]
		},
		{
			"name":"n018_object_000021F4",
			"translation":[
				0.000328873167745769,
				-1.4560511112213135,
				0.5155811309814453
			]
		},
		{
			"name":"n019_object_00001D34",
			"rotation":[
				0,
				-0.02313496172428131,
				5.552601401250418e-17,
				0.9997323155403137
			],
			"translation":[
				2.991330862045288,
				-1.3938292264938354,
				1.2085657119750977
			]
		},
		{
			"name":"n020_object_00001B94",
			"rotation":[
				-5.552578240193266e-17,
				-0.999736487865448,
				0,
				0.022953953593969345
			],
			"translation":[
				-2.9906973838806152,
				-1.3949757814407349,
				1.2085633277893066
			]
		},
		{
			"children":[
				9,
				10,
				11
			],
			"name":"n017_object_000029E0",
			"rotation":[
				0,
				1.5663690078326908e-07,
				0,
				1
			],
			"translation":[
				-0.0002142081066267565,
				0.8252780437469482,
				2.7868831157684326
			]
		},
		{
			"name":"n021_object_000019F4",
			"rotation":[
				0,
				-5.006687331388093e-08,
				0,
				1
			],
			"translation":[
				-0.001157092279754579,
				5.6829514503479,
				-0.6807636022567749
			]
		},
		{
			"children":[
				2,
				5,
				8,
				12,
				13
			],
			"name":"n007_object_00004A68",
			"rotation":[
				0,
				-0.7071065902709961,
				0,
				0.7071069478988647
			],
			"translation":[
				6.490453243255615,
				-2.612520456314087,
				1.2521988537628204e-05
			]
		},
		{
			"children":[
				14
			],
			"name":"n006_object_00004A9C",
			"rotation":[
				5.293955920339377e-23,
				0,
				0,
				1
			],
			"translation":[
				-6.514403820037842,
				0.0381002277135849,
				-5.240185032562295e-07
			]
		},
		{
			"children":[
				15
			],
			"name":"n005_object_00004AD0",
			"rotation":[
				5.293955920339377e-23,
				0,
				0,
				1
			],
			"translation":[
				1.2817496397588002e-08,
				2.3849358967709122e-06,
				-4.637133775922675e-13
			]
		},
		{
			"children":[
				16
			],
			"name":"n004_object_00004B04",
			"rotation":[
				5.293955920339377e-23,
				0,
				0,
				1
			],
			"translation":[
				0.0246727392077446,
				2.5744118690490723,
				-2.499799484212417e-05
			]
		},
		{
			"name":"n022_object_000019C0",
			"rotation":[
				0,
				-0.7070589065551758,
				3.0663792102493874e-19,
				0.7071546316146851
			],
			"translation":[
				3.0567023754119873,
				2.093609094619751,
				-2.5754219677764922e-05
			]
		},
		{
			"children":[
				17,
				18
			],
			"name":"n003_object_00004B38",
			"rotation":[
				5.293955920339377e-23,
				0,
				0,
				1
			],
			"translation":[
				-0.014737703837454319,
				3.843086004257202,
				-1.1607984573558383e-09
			]
		},
		{
			"children":[
				19
			],
			"name":"n002_object_00004B6C",
			"rotation":[
				5.293955920339377e-23,
				0,
				0,
				1
			],
			"translation":[
				2.168404344971009e-19,
				-2.2737367544323206e-13,
				-3.637978807091713e-12
			]
		},
		{
			"children":[
				20
			],
			"name":"n001_object_00004BA0",
			"rotation":[
				0,
				0.7071067690849304,
				0,
				0.7071067690849304
			],
			"scale":[
				1,
				0.9999999403953552,
				1
			],
			"translation":[
				-4.999999509891495e-05,
				0,
				0
			]
		},
		{
			"name":"n030_object_00001820",
			"rotation":[
				0,
				-0.707101047039032,
				0,
				0.7071124911308289
			],
			"translation":[
				3.2264890670776367,
				0.5427567958831787,
				-4.977226240043819e-07
			]
		},
		{
			"children":[
				22
			],
			"name":"n029_object_00001854",
			"translation":[
				-3.2264881134033203,
				-0.5445647239685059,
				-1.9563655584420303e-08
			]
		},
		{
			"children":[
				23
			],
			"name":"n028_object_00001888",
			"translation":[
				-1.0717201348597882e-08,
				7.334220342158915e-09,
				9.852391968934171e-08
			]
		},
		{
			"children":[
				24
			],
			"name":"n027_object_000018BC",
			"translation":[
				-4.354003237949655e-07,
				0.001809365930967033,
				9.852210069993816e-08
			]
		},
		{
			"children":[
				25
			],
			"name":"n026_object_000018F0",
			"translation":[
				1.7987406253814697,
				-1.761533260345459,
				-2.0770887232401947e-08
			]
		},
		{
			"children":[
				26
			],
			"name":"n025_object_00001924",
			"translation":[
				-1.7143291234970093,
				-1.687907338142395,
				-2.9316453264982556e-07
			]
		},
		{
			"children":[
				27
			],
			"name":"n024_object_00001958",
			"translation":[
				-9.595567007636419e-09,
				3.07637080254608e-08,
				6.299164567735716e-08
			]
		},
		{
			"children":[
				28
			],
			"name":"n023_object_0000198C",
			"rotation":[
				0,
				0.7070390582084656,
				0,
				0.70717453956604
			],
			"translation":[
				1.4820001125335693,
				-0.43726304173469543,
				-0.012734000571072102
			]
		},
		{
			"name":"n038_object_00001680",
			"rotation":[
				0,
				-0.707101047039032,
				0,
				0.7071124911308289
			],
			"translation":[
				3.226278781890869,
				0.5439941883087158,
				3.368787986346433e-07
			]
		},
		{
			"children":[
				30
			],
			"name":"n037_object_000016B4",
			"translation":[
				-3.226278781890869,
				-0.5458033084869385,
				-1.7899445481361909e-07
			]
		},
		{
			"children":[
				31
			],
			"name":"n036_object_000016E8",
			"translation":[
				-6.05463412739482e-08,
				7.225900162666221e-07,
				-1.400201625756381e-07
			]
		},
		{
			"children":[
				32
			],
			"name":"n035_object_0000171C",
			"translation":[
				2.59857785067652e-07,
				0.0018091275123879313,
				9.838749548407577e-08
			]
		},
		{
			"children":[
				33
			],
			"name":"n034_object_00001750",
			"translation":[
				1.7987405061721802,
				-1.761533260345459,
				-1.212863821820065e-06
			]
		},
		{
			"children":[
				34
			],
			"name":"n033_object_00001784",
			"translation":[
				-1.7143299579620361,
				-1.6879081726074219,
				-5.474594999554938e-08
			]
		},
		{
			"children":[
				35
			],
			"name":"n032_object_000017B8",
			"translation":[
				-2.1036768771409697e-08,
				3.0763782632448056e-08,
				-5.640727707145743e-08
			]
		},
		{
			"children":[
				36
			],
			"name":"n031_object_000017EC",
			"rotation":[
				0,
				0.7070390582084656,
				0,
				0.70717453956604
			],
			"translation":[
				-1.482009768486023,
				-0.43721804022789,
				-0.012735000811517239
			]
		},
		{
			"name":"n039_object_0000164C"
		},
		{
			"children":[
				21,
				29,
				37,
				38
			],
			"name":"n000_object_00004BD4",
			"rotation":[
				-0.7071067690849304,
				0,
				0,
				0.7071067690849304
			],
			"translation":[
				9.999999747378752e-05,
				0,
				0
			]
		},
		{
			"mesh":0,
			"name":"meshnode_0",
			"skin":0
		},
		{
			"mesh":1,
			"name":"meshnode_1",
			"skin":0
		},
		{
			"mesh":2,
			"name":"meshnode_10",
			"skin":0
		},
		{
			"mesh":3,
			"name":"meshnode_11",
			"skin":0
		},
		{
			"mesh":4,
			"name":"meshnode_12",
			"skin":0
		},
		{
			"mesh":5,
			"name":"meshnode_13",
			"skin":0
		},
		{
			"mesh":6,
			"name":"meshnode_14",
			"skin":0
		},
		{
			"mesh":7,
			"name":"meshnode_15",
			"skin":0
		},
		{
			"mesh":8,
			"name":"meshnode_2",
			"skin":0
		},
		{
			"mesh":9,
			"name":"meshnode_3",
			"skin":0
		},
		{
			"mesh":10,
			"name":"meshnode_4",
			"skin":0
		},
		{
			"mesh":11,
			"name":"meshnode_5",
			"skin":0
		},
		{
			"mesh":12,
			"name":"meshnode_6",
			"skin":0
		},
		{
			"mesh":13,
			"name":"meshnode_7",
			"skin":0
		},
		{
			"mesh":14,
			"name":"meshnode_8",
			"skin":0
		},
		{
			"mesh":15,
			"name":"meshnode_9",
			"skin":0
		},
		{
			"children":[
				40,
				41,
				42,
				43,
				44,
				45,
				46,
				47,
				48,
				49,
				50,
				51,
				52,
				53,
				54,
				55,
				39
			],
			"name":"Armature",
			"rotation":[
				0.7071068286895752,
				0,
				0,
				0.7071068286895752
			]
		}
	],
	"materials":[
		{
			"doubleSided":true,
			"extensions":{
				"KHR_materials_specular":{
					"specularFactor":0
				},
				"KHR_materials_ior":{
					"ior":1.4500000476837158
				}
			},
			"name":"attach_000049E8_material_0",
			"pbrMetallicRoughness":{
				"baseColorTexture":{
					"index":0
				},
				"metallicFactor":0,
				"roughnessFactor":0.5
			}
		},
		{
			"doubleSided":true,
			"extensions":{
				"KHR_materials_specular":{
					"specularFactor":0
				},
				"KHR_materials_ior":{
					"ior":1.4500000476837158
				}
			},
			"name":"attach_0000448C_material_0",
			"pbrMetallicRoughness":{
				"baseColorTexture":{
					"index":1
				},
				"metallicFactor":0,
				"roughnessFactor":0.5
			}
		},
		{
			"doubleSided":true,
			"extensions":{
				"KHR_materials_specular":{
					"specularFactor":0
				},
				"KHR_materials_ior":{
					"ior":1.4500000476837158
				}
			},
			"name":"attach_00001D1C_material_0",
			"pbrMetallicRoughness":{
				"baseColorTexture":{
					"index":2
				},
				"metallicFactor":0,
				"roughnessFactor":0.5
			}
		},
		{
			"doubleSided":true,
			"extensions":{
				"KHR_materials_specular":{
					"specularFactor":0
				},
				"KHR_materials_ior":{
					"ior":1.4500000476837158
				}
			},
			"name":"attach_00001B7C_material_0",
			"pbrMetallicRoughness":{
				"baseColorTexture":{
					"index":3
				},
				"metallicFactor":0,
				"roughnessFactor":0.5
			}
		},
		{
			"doubleSided":true,
			"extensions":{
				"KHR_materials_specular":{
					"specularFactor":0
				},
				"KHR_materials_ior":{
					"ior":1.4500000476837158
				}
			},
			"name":"attach_00001634_material_0",
			"pbrMetallicRoughness":{
				"baseColorTexture":{
					"index":4
				},
				"metallicFactor":0,
				"roughnessFactor":0.5
			}
		},
		{
			"doubleSided":true,
			"extensions":{
				"KHR_materials_specular":{
					"specularFactor":0
				},
				"KHR_materials_ior":{
					"ior":1.4500000476837158
				}
			},
			"name":"attach_00001634_material_1",
			"pbrMetallicRoughness":{
				"baseColorTexture":{
					"index":5
				},
				"metallicFactor":0,
				"roughnessFactor":0.5
			}
		},
		{
			"doubleSided":true,
			"extensions":{
				"KHR_materials_specular":{
					"specularFactor":0
				},
				"KHR_materials_ior":{
					"ior":1.4500000476837158
				}
			},
			"name":"attach_00001634_material_2",
			"pbrMetallicRoughness":{
				"baseColorTexture":{
					"index":6
				},
				"metallicFactor":0,
				"roughnessFactor":0.5
			}
		},
		{
			"doubleSided":true,
			"extensions":{
				"KHR_materials_specular":{
					"specularFactor":0
				},
				"KHR_materials_ior":{
					"ior":1.4500000476837158
				}
			},
			"name":"attach_00001634_material_3",
			"pbrMetallicRoughness":{
				"baseColorTexture":{
					"index":7
				},
				"metallicFactor":0,
				"roughnessFactor":0.5
			}
		},
		{
			"doubleSided":true,
			"extensions":{
				"KHR_materials_specular":{
					"specularFactor":0
				},
				"KHR_materials_ior":{
					"ior":1.4500000476837158
				}
			},
			"name":"attach_00003EEC_material_0",
			"pbrMetallicRoughness":{
				"baseColorTexture":{
					"index":8
				},
				"metallicFactor":0,
				"roughnessFactor":0.5
			}
		},
		{
			"doubleSided":true,
			"extensions":{
				"KHR_materials_specular":{
					"specularFactor":0
				},
				"KHR_materials_ior":{
					"ior":1.4500000476837158
				}
			},
			"name":"attach_00003B0C_material_0",
			"pbrMetallicRoughness":{
				"baseColorTexture":{
					"index":9
				},
				"metallicFactor":0,
				"roughnessFactor":0.5
			}
		},
		{
			"doubleSided":true,
			"extensions":{
				"KHR_materials_specular":{
					"specularFactor":0
				},
				"KHR_materials_ior":{
					"ior":1.4500000476837158
				}
			},
			"name":"attach_00003708_material_0",
			"pbrMetallicRoughness":{
				"baseColorTexture":{
					"index":10
				},
				"metallicFactor":0,
				"roughnessFactor":0.5
			}
		},
		{
			"doubleSided":true,
			"extensions":{
				"KHR_materials_specular":{
					"specularFactor":0
				},
				"KHR_materials_ior":{
					"ior":1.4500000476837158
				}
			},
			"name":"attach_00003054_material_0",
			"pbrMetallicRoughness":{
				"baseColorTexture":{
					"index":11
				},
				"metallicFactor":0,
				"roughnessFactor":0.5
			}
		},
		{
			"doubleSided":true,
			"extensions":{
				"KHR_materials_specular":{
					"specularFactor":0
				},
				"KHR_materials_ior":{
					"ior":1.4500000476837158
				}
			},
			"name":"attach_000029C8_material_0",
			"pbrMetallicRoughness":{
				"baseColorTexture":{
					"index":12
				},
				"metallicFactor":0,
				"roughnessFactor":0.5
			}
		},
		{
			"doubleSided":true,
			"extensions":{
				"KHR_materials_specular":{
					"specularFactor":0
				},
				"KHR_materials_ior":{
					"ior":1.4500000476837158
				}
			},
			"name":"attach_000029C8_material_1",
			"pbrMetallicRoughness":{
				"baseColorTexture":{
					"index":13
				},
				"metallicFactor":0,
				"roughnessFactor":0.5
			}
		},
		{
			"doubleSided":true,
			"extensions":{
				"KHR_materials_specular":{
					"specularFactor":0
				},
				"KHR_materials_ior":{
					"ior":1.4500000476837158
				}
			},
			"name":"attach_000021DC_material_0",
			"pbrMetallicRoughness":{
				"baseColorTexture":{
					"index":14
				},
				"metallicFactor":0,
				"roughnessFactor":0.5
			}
		},
		{
			"doubleSided":true,
			"extensions":{
				"KHR_materials_specular":{
					"specularFactor":0
				},
				"KHR_materials_ior":{
					"ior":1.4500000476837158
				}
			},
			"name":"attach_000021DC_material_1",
			"pbrMetallicRoughness":{
				"baseColorTexture":{
					"index":15
				},
				"metallicFactor":0,
				"roughnessFactor":0.5
			}
		}
	],
	"meshes":[
		{
			"name":"meshId0_name",
			"primitives":[
				{
					"attributes":{
						"POSITION":0,
						"NORMAL":1,
						"TEXCOORD_0":2,
						"JOINTS_0":3,
						"WEIGHTS_0":4
					},
					"indices":5,
					"material":0
				}
			]
		},
		{
			"name":"meshId1_name",
			"primitives":[
				{
					"attributes":{
						"POSITION":7,
						"NORMAL":8,
						"TEXCOORD_0":9,
						"JOINTS_0":10,
						"WEIGHTS_0":11
					},
					"indices":12,
					"material":1
				}
			]
		},
		{
			"name":"meshId10_name",
			"primitives":[
				{
					"attributes":{
						"POSITION":13,
						"NORMAL":14,
						"TEXCOORD_0":15,
						"JOINTS_0":16,
						"WEIGHTS_0":17
					},
					"indices":18,
					"material":2
				}
			]
		},
		{
			"name":"meshId11_name",
			"primitives":[
				{
					"attributes":{
						"POSITION":19,
						"NORMAL":20,
						"TEXCOORD_0":21,
						"JOINTS_0":22,
						"WEIGHTS_0":23
					},
					"indices":24,
					"material":3
				}
			]
		},
		{
			"name":"meshId12_name",
			"primitives":[
				{
					"attributes":{
						"POSITION":25,
						"NORMAL":26,
						"TEXCOORD_0":27,
						"JOINTS_0":28,
						"WEIGHTS_0":29
					},
					"indices":30,
					"material":4
				}
			]
		},
		{
			"name":"meshId13_name",
			"primitives":[
				{
					"attributes":{
						"POSITION":31,
						"NORMAL":32,
						"TEXCOORD_0":33,
						"JOINTS_0":34,
						"WEIGHTS_0":35
					},
					"indices":36,
					"material":5
				}
			]
		},
		{
			"name":"meshId14_name",
			"primitives":[
				{
					"attributes":{
						"POSITION":37,
						"NORMAL":38,
						"TEXCOORD_0":39,
						"JOINTS_0":40,
						"WEIGHTS_0":41
					},
					"indices":42,
					"material":6
				}
			]
		},
		{
			"name":"meshId15_name",
			"primitives":[
				{
					"attributes":{
						"POSITION":43,
						"NORMAL":44,
						"TEXCOORD_0":45,
						"JOINTS_0":46,
						"WEIGHTS_0":47
					},
					"indices":48,
					"material":7
				}
			]
		},
		{
			"name":"meshId2_name",
			"primitives":[
				{
					"attributes":{
						"POSITION":49,
						"NORMAL":50,
						"TEXCOORD_0":51,
						"JOINTS_0":52,
						"WEIGHTS_0":53
					},
					"indices":54,
					"material":8
				}
			]
		},
		{
			"name":"meshId3_name",
			"primitives":[
				{
					"attributes":{
						"POSITION":55,
						"NORMAL":56,
						"TEXCOORD_0":57,
						"JOINTS_0":58,
						"WEIGHTS_0":59
					},
					"indices":60,
					"material":9
				}
			]
		},
		{
			"name":"meshId4_name",
			"primitives":[
				{
					"attributes":{
						"POSITION":61,
						"NORMAL":62,
						"TEXCOORD_0":63,
						"JOINTS_0":64,
						"WEIGHTS_0":65
					},
					"indices":66,
					"material":10
				}
			]
		},
		{
			"name":"meshId5_name",
			"primitives":[
				{
					"attributes":{
						"POSITION":67,
						"NORMAL":68,
						"TEXCOORD_0":69,
						"JOINTS_0":70,
						"WEIGHTS_0":71
					},
					"indices":72,
					"material":11
				}
			]
		},
		{
			"name":"meshId6_name",
			"primitives":[
				{
					"attributes":{
						"POSITION":73,
						"NORMAL":74,
						"TEXCOORD_0":75,
						"JOINTS_0":76,
						"WEIGHTS_0":77
					},
					"indices":78,
					"material":12
				}
			]
		},
		{
			"name":"meshId7_name",
			"primitives":[
				{
					"attributes":{
						"POSITION":79,
						"NORMAL":80,
						"TEXCOORD_0":81,
						"JOINTS_0":82,
						"WEIGHTS_0":83
					},
					"indices":84,
					"material":13
				}
			]
		},
		{
			"name":"meshId8_name",
			"primitives":[
				{
					"attributes":{
						"POSITION":85,
						"NORMAL":86,
						"TEXCOORD_0":87,
						"JOINTS_0":88,
						"WEIGHTS_0":89
					},
					"indices":90,
					"material":14
				}
			]
		},
		{
			"name":"meshId9_name",
			"primitives":[
				{
					"attributes":{
						"POSITION":91,
						"NORMAL":92,
						"TEXCOORD_0":93,
						"JOINTS_0":94,
						"WEIGHTS_0":95
					},
					"indices":96,
					"material":15
				}
			]
		}
	],
	"textures":[
		{
			"sampler":0,
			"source":0
		},
		{
			"sampler":0,
			"source":0
		},
		{
			"sampler":0,
			"source":1
		},
		{
			"sampler":0,
			"source":1
		},
		{
			"sampler":0,
			"source":2
		},
		{
			"sampler":0,
			"source":3
		},
		{
			"sampler":0,
			"source":4
		},
		{
			"sampler":0,
			"source":5
		},
		{
			"sampler":0,
			"source":2
		},
		{
			"sampler":0,
			"source":2
		},
		{
			"sampler":0,
			"source":2
		},
		{
			"sampler":0,
			"source":2
		},
		{
			"sampler":0,
			"source":6
		},
		{
			"sampler":0,
			"source":7
		},
		{
			"sampler":0,
			"source":2
		},
		{
			"sampler":0,
			"source":8
		}
	],
	"images":[
		{
			"mimeType":"image/png",
			"name":"todo_eye.png",
			"uri":"todo_eye.png"
		},
		{
			"mimeType":"image/png",
			"name":"backtuskcolor.png",
			"uri":"backtuskcolor.png"
		},
		{
			"mimeType":"image/png",
			"name":"todo_beta.png",
			"uri":"todo_beta.png"
		},
		{
			"mimeType":"image/png",
			"name":"todoarm.png",
			"uri":"todoarm.png"
		},
		{
			"mimeType":"image/png",
			"name":"todofront.png",
			"uri":"todofront.png"
		},
		{
			"mimeType":"image/png",
			"name":"todoback.png",
			"uri":"todoback.png"
		},
		{
			"mimeType":"image/png",
			"name":"todouwaago.png",
			"uri":"todouwaago.png"
		},
		{
			"mimeType":"image/png",
			"name":"todonose.png",
			"uri":"todonose.png"
		},
		{
			"mimeType":"image/png",
			"name":"todositaago2.png",
			"uri":"todositaago2.png"
		}
	],
	"skins":[
		{
			"inverseBindMatrices":6,
			"joints":[
				39,
				21,
				20,
				19,
				17,
				16,
				15,
				14,
				2,
				0,
				1,
				5,
				3,
				4,
				8,
				6,
				7,
				12,
				9,
				10,
				11,
				13,
				18,
				29,
				28,
				27,
				26,
				25,
				24,
				23,
				22,
				37,
				36,
				35,
				34,
				33,
				32,
				31,
				30,
				38
			],
			"name":"Armature"
		}
	],
	"accessors":[
		{
			"bufferView":0,
			"componentType":5126,
			"count":33,
			"max":[
				0.3092994689941406,
				8.350412368774414,
				3.635857343673706
			],
			"min":[
				-2.4032135009765625,
				5.440761089324951,
				0.7878715991973877
			],
			"type":"VEC3"
		},
		{
			"bufferView":1,
			"componentType":5126,
			"count":33,
			"type":"VEC3"
		},
		{
			"bufferView":2,
			"componentType":5126,
			"count":33,
			"type":"VEC2"
		},
		{
			"bufferView":3,
			"componentType":5121,
			"count":33,
			"type":"VEC4"
		},
		{
			"bufferView":4,
			"componentType":5126,
			"count":33,
			"type":"VEC4"
		},
		{
			"bufferView":5,
			"componentType":5123,
			"count":168,
			"type":"SCALAR"
		},
		{
			"bufferView":6,
			"componentType":5126,
			"count":40,
			"type":"MAT4"
		},
		{
			"bufferView":7,
			"componentType":5126,
			"count":33,
			"max":[
				2.4020402431488037,
				8.350933074951172,
				3.6358566284179688
			],
			"min":[
				-0.31053197383880615,
				5.441061973571777,
				0.7878714203834534
			],
			"type":"VEC3"
		},
		{
			"bufferView":8,
			"componentType":5126,
			"count":33,
			"type":"VEC3"
		},
		{
			"bufferView":9,
			"componentType":5126,
			"count":33,
			"type":"VEC2"
		},
		{
			"bufferView":10,
			"componentType":5121,
			"count":33,
			"type":"VEC4"
		},
		{
			"bufferView":11,
			"componentType":5126,
			"count":33,
			"type":"VEC4"
		},
		{
			"bufferView":12,
			"componentType":5123,
			"count":168,
			"type":"SCALAR"
		},
		{
			"bufferView":13,
			"componentType":5126,
			"count":24,
			"max":[
				3.871873140335083,
				5.286543369293213,
				4.912514686584473
			],
			"min":[
				1.4665640592575073,
				1.1157106161117554,
				2.472318172454834
			],
			"type":"VEC3"
		},
		{
			"bufferView":14,
			"componentType":5126,
			"count":24,
			"type":"VEC3"
		},
		{
			"bufferView":15,
			"componentType":5126,
			"count":24,
			"type":"VEC2"
		},
		{
			"bufferView":16,
			"componentType":5121,
			"count":24,
			"type":"VEC4"
		},
		{
			"bufferView":17,
			"componentType":5126,
			"count":24,
			"type":"VEC4"
		},
		{
			"bufferView":18,
			"componentType":5123,
			"count":48,
			"type":"SCALAR"
		},
		{
			"bufferView":19,
			"componentType":5126,
			"count":24,
			"max":[
				-1.4665471315383911,
				5.285622596740723,
				4.91251277923584
			],
			"min":[
				-3.8712046146392822,
				1.1143234968185425,
				2.4723331928253174
			],
			"type":"VEC3"
		},
		{
			"bufferView":20,
			"componentType":5126,
			"count":24,
			"type":"VEC3"
		},
		{
			"bufferView":21,
			"componentType":5126,
			"count":24,
			"type":"VEC2"
		},
		{
			"bufferView":22,
			"componentType":5121,
			"count":24,
			"type":"VEC4"
		},
		{
			"bufferView":23,
			"componentType":5126,
			"count":24,
			"type":"VEC4"
		},
		{
			"bufferView":24,
			"componentType":5123,
			"count":48,
			"type":"SCALAR"
		},
		{
			"bufferView":25,
			"componentType":5126,
			"count":52,
			"max":[
				11.998220443725586,
				5.176968574523926,
				1.8221956491470337
			],
			"min":[
				-11.998220443725586,
				4.228988170623779,
				-1.2313454151153564
			],
			"type":"VEC3"
		},
		{
			"bufferView":26,
			"componentType":5126,
			"count":52,
			"type":"VEC3"
		},
		{
			"bufferView":27,
			"componentType":5126,
			"count":52,
			"type":"VEC2"
		},
		{
			"bufferView":28,
			"componentType":5121,
			"count":52,
			"type":"VEC4"
		},
		{
			"bufferView":29,
			"componentType":5126,
			"count":52,
			"type":"VEC4"
		},
		{
			"bufferView":30,
			"componentType":5123,
			"count":216,
			"type":"SCALAR"
		},
		{
			"bufferView":31,
			"componentType":5126,
			"count":52,
			"max":[
				11.998220443725586,
				5.85737419128418,
				1.8221956491470337
			],
			"min":[
				-11.998220443725586,
				5.162077903747559,
				-1.2313454151153564
			],
			"type":"VEC3"
		},
		{
			"bufferView":32,
			"componentType":5126,
			"count":52,
			"type":"VEC3"
		},
		{
			"bufferView":33,
			"componentType":5126,
			"count":52,
			"type":"VEC2"
		},
		{
			"bufferView":34,
			"componentType":5121,
			"count":52,
			"type":"VEC4"
		},
		{
			"bufferView":35,
			"componentType":5126,
			"count":52,
			"type":"VEC4"
		},
		{
			"bufferView":36,
			"componentType":5123,
			"count":216,
			"type":"SCALAR"
		},
		{
			"bufferView":37,
			"componentType":5126,
			"count":45,
			"max":[
				4.7710700035095215,
				7.517536163330078,
				4.676829814910889
			],
			"min":[
				-4.7710700035095215,
				-3.4914472103118896,
				0.2935676574707031
			],
			"type":"VEC3"
		},
		{
			"bufferView":38,
			"componentType":5126,
			"count":45,
			"type":"VEC3"
		},
		{
			"bufferView":39,
			"componentType":5126,
			"count":45,
			"type":"VEC2"
		},
		{
			"bufferView":40,
			"componentType":5121,
			"count":45,
			"type":"VEC4"
		},
		{
			"bufferView":41,
			"componentType":5126,
			"count":45,
			"type":"VEC4"
		},
		{
			"bufferView":42,
			"componentType":5123,
			"count":192,
			"type":"SCALAR"
		},
		{
			"bufferView":43,
			"componentType":5126,
			"count":45,
			"max":[
				4.7710700035095215,
				7.517536163330078,
				0.36400106549263
			],
			"min":[
				-4.7710700035095215,
				-3.4914472103118896,
				-4.16353702545166
			],
			"type":"VEC3"
		},
		{
			"bufferView":44,
			"componentType":5126,
			"count":45,
			"type":"VEC3"
		},
		{
			"bufferView":45,
			"componentType":5126,
			"count":45,
			"type":"VEC2"
		},
		{
			"bufferView":46,
			"componentType":5121,
			"count":45,
			"type":"VEC4"
		},
		{
			"bufferView":47,
			"componentType":5126,
			"count":45,
			"type":"VEC4"
		},
		{
			"bufferView":48,
			"componentType":5123,
			"count":192,
			"type":"SCALAR"
		},
		{
			"bufferView":49,
			"componentType":5126,
			"count":23,
			"max":[
				2.8155765533447266,
				6.860524654388428,
				3.8318419456481934
			],
			"min":[
				-0.9129477143287659,
				4.522480487823486,
				0.5069313049316406
			],
			"type":"VEC3"
		},
		{
			"bufferView":50,
			"componentType":5126,
			"count":23,
			"type":"VEC3"
		},
		{
			"bufferView":51,
			"componentType":5126,
			"count":23,
			"type":"VEC2"
		},
		{
			"bufferView":52,
			"componentType":5121,
			"count":23,
			"type":"VEC4"
		},
		{
			"bufferView":53,
			"componentType":5126,
			"count":23,
			"type":"VEC4"
		},
		{
			"bufferView":54,
			"componentType":5123,
			"count":111,
			"type":"SCALAR"
		},
		{
			"bufferView":55,
			"componentType":5126,
			"count":23,
			"max":[
				0.911778450012207,
				6.859562397003174,
				3.8318405151367188
			],
			"min":[
				-2.8166375160217285,
				4.522084712982178,
				0.7785167098045349
			],
			"type":"VEC3"
		},
		{
			"bufferView":56,
			"componentType":5126,
			"count":23,
			"type":"VEC3"
		},
		{
			"bufferView":57,
			"componentType":5126,
			"count":23,
			"type":"VEC2"
		},
		{
			"bufferView":58,
			"componentType":5121,
			"count":23,
			"type":"VEC4"
		},
		{
			"bufferView":59,
			"componentType":5126,
			"count":23,
			"type":"VEC4"
		},
		{
			"bufferView":60,
			"componentType":5123,
			"count":111,
			"type":"SCALAR"
		},
		{
			"bufferView":61,
			"componentType":5126,
			"count":40,
			"max":[
				2.854997396469116,
				9.456409454345703,
				4.026938438415527
			],
			"min":[
				-0.0004933055024594069,
				4.824958801269531,
				-0.6328144669532776
			],
			"type":"VEC3"
		},
		{
			"bufferView":62,
			"componentType":5126,
			"count":40,
			"type":"VEC3"
		},
		{
			"bufferView":63,
			"componentType":5126,
			"count":40,
			"type":"VEC2"
		},
		{
			"bufferView":64,
			"componentType":5121,
			"count":40,
			"type":"VEC4"
		},
		{
			"bufferView":65,
			"componentType":5126,
			"count":40,
			"type":"VEC4"
		},
		{
			"bufferView":66,
			"componentType":5123,
			"count":228,
			"type":"SCALAR"
		},
		{
			"bufferView":67,
			"componentType":5126,
			"count":40,
			"max":[
				0.00010388693772256374,
				9.455822944641113,
				4.026939868927002
			],
			"min":[
				-2.855224370956421,
				4.824160575866699,
				-0.6328141093254089
			],
			"type":"VEC3"
		},
		{
			"bufferView":68,
			"componentType":5126,
			"count":40,
			"type":"VEC3"
		},
		{
			"bufferView":69,
			"componentType":5126,
			"count":40,
			"type":"VEC2"
		},
		{
			"bufferView":70,
			"componentType":5121,
			"count":40,
			"type":"VEC4"
		},
		{
			"bufferView":71,
			"componentType":5126,
			"count":40,
			"type":"VEC4"
		},
		{
			"bufferView":72,
			"componentType":5123,
			"count":228,
			"type":"SCALAR"
		},
		{
			"bufferView":73,
			"componentType":5126,
			"count":33,
			"max":[
				4.15002965927124,
				5.885178565979004,
				6.0645670890808105
			],
			"min":[
				-4.150445461273193,
				2.270124912261963,
				1.807093620300293
			],
			"type":"VEC3"
		},
		{
			"bufferView":74,
			"componentType":5126,
			"count":33,
			"type":"VEC3"
		},
		{
			"bufferView":75,
			"componentType":5126,
			"count":33,
			"type":"VEC2"
		},
		{
			"bufferView":76,
			"componentType":5121,
			"count":33,
			"type":"VEC4"
		},
		{
			"bufferView":77,
			"componentType":5126,
			"count":33,
			"type":"VEC4"
		},
		{
			"bufferView":78,
			"componentType":5123,
			"count":141,
			"type":"SCALAR"
		},
		{
			"bufferView":79,
			"componentType":5126,
			"count":30,
			"max":[
				4.064113616943359,
				6.15615701675415,
				6.258168697357178
			],
			"min":[
				-4.064762115478516,
				2.812764883041382,
				1.807093620300293
			],
			"type":"VEC3"
		},
		{
			"bufferView":80,
			"componentType":5126,
			"count":30,
			"type":"VEC3"
		},
		{
			"bufferView":81,
			"componentType":5126,
			"count":30,
			"type":"VEC2"
		},
		{
			"bufferView":82,
			"componentType":5121,
			"count":30,
			"type":"VEC4"
		},
		{
			"bufferView":83,
			"componentType":5126,
			"count":30,
			"type":"VEC4"
		},
		{
			"bufferView":84,
			"componentType":5123,
			"count":123,
			"type":"SCALAR"
		},
		{
			"bufferView":85,
			"componentType":5126,
			"count":21,
			"max":[
				2.7020015716552734,
				2.9170327186584473,
				6.356893539428711
			],
			"min":[
				-2.701643228530884,
				1.651655912399292,
				1.1624010801315308
			],
			"type":"VEC3"
		},
		{
			"bufferView":86,
			"componentType":5126,
			"count":21,
			"type":"VEC3"
		},
		{
			"bufferView":87,
			"componentType":5126,
			"count":21,
			"type":"VEC2"
		},
		{
			"bufferView":88,
			"componentType":5121,
			"count":21,
			"type":"VEC4"
		},
		{
			"bufferView":89,
			"componentType":5126,
			"count":21,
			"type":"VEC4"
		},
		{
			"bufferView":90,
			"componentType":5123,
			"count":87,
			"type":"SCALAR"
		},
		{
			"bufferView":91,
			"componentType":5126,
			"count":14,
			"max":[
				2.701869010925293,
				3.4752774238586426,
				6.356893539428711
			],
			"min":[
				-2.701643228530884,
				2.898682117462158,
				1.164795160293579
			],
			"type":"VEC3"
		},
		{
			"bufferView":92,
			"componentType":5126,
			"count":14,
			"type":"VEC3"
		},
		{
			"bufferView":93,
			"componentType":5126,
			"count":14,
			"type":"VEC2"
		},
		{
			"bufferView":94,
			"componentType":5121,
			"count":14,
			"type":"VEC4"
		},
		{
			"bufferView":95,
			"componentType":5126,
			"count":14,
			"type":"VEC4"
		},
		{
			"bufferView":96,
			"componentType":5123,
			"count":51,
			"type":"SCALAR"
		}
	],
	"bufferViews":[
		{
			"buffer":0,
			"byteLength":396,
			"byteOffset":0,
			"target":34962
		},
		{
			"buffer":0,
			"byteLength":396,
			"byteOffset":396,
			"target":34962
		},
		{
			"buffer":0,
			"byteLength":264,
			"byteOffset":792,
			"target":34962
		},
		{
			"buffer":0,
			"byteLength":132,
			"byteOffset":1056,
			"target":34962
		},
		{
			"buffer":0,
			"byteLength":528,
			"byteOffset":1188,
			"target":34962
		},
		{
			"buffer":0,
			"byteLength":336,
			"byteOffset":1716,
			"target":34963
		},
		{
			"buffer":0,
			"byteLength":2560,
			"byteOffset":2052
		},
		{
			"buffer":0,
			"byteLength":396,
			"byteOffset":4612,
			"target":34962
		},
		{
			"buffer":0,
			"byteLength":396,
			"byteOffset":5008,
			"target":34962
		},
		{
			"buffer":0,
			"byteLength":264,
			"byteOffset":5404,
			"target":34962
		},
		{
			"buffer":0,
			"byteLength":132,
			"byteOffset":5668,
			"target":34962
		},
		{
			"buffer":0,
			"byteLength":528,
			"byteOffset":5800,
			"target":34962
		},
		{
			"buffer":0,
			"byteLength":336,
			"byteOffset":6328,
			"target":34963
		},
		{
			"buffer":0,
			"byteLength":288,
			"byteOffset":6664,
			"target":34962
		},
		{
			"buffer":0,
			"byteLength":288,
			"byteOffset":6952,
			"target":34962
		},
		{
			"buffer":0,
			"byteLength":192,
			"byteOffset":7240,
			"target":34962
		},
		{
			"buffer":0,
			"byteLength":96,
			"byteOffset":7432,
			"target":34962
		},
		{
			"buffer":0,
			"byteLength":384,
			"byteOffset":7528,
			"target":34962
		},
		{
			"buffer":0,
			"byteLength":96,
			"byteOffset":7912,
			"target":34963
		},
		{
			"buffer":0,
			"byteLength":288,
			"byteOffset":8008,
			"target":34962
		},
		{
			"buffer":0,
			"byteLength":288,
			"byteOffset":8296,
			"target":34962
		},
		{
			"buffer":0,
			"byteLength":192,
			"byteOffset":8584,
			"target":34962
		},
		{
			"buffer":0,
			"byteLength":96,
			"byteOffset":8776,
			"target":34962
		},
		{
			"buffer":0,
			"byteLength":384,
			"byteOffset":8872,
			"target":34962
		},
		{
			"buffer":0,
			"byteLength":96,
			"byteOffset":9256,
			"target":34963
		},
		{
			"buffer":0,
			"byteLength":624,
			"byteOffset":9352,
			"target":34962
		},
		{
			"buffer":0,
			"byteLength":624,
			"byteOffset":9976,
			"target":34962
		},
		{
			"buffer":0,
			"byteLength":416,
			"byteOffset":10600,
			"target":34962
		},
		{
			"buffer":0,
			"byteLength":208,
			"byteOffset":11016,
			"target":34962
		},
		{
			"buffer":0,
			"byteLength":832,
			"byteOffset":11224,
			"target":34962
		},
		{
			"buffer":0,
			"byteLength":432,
			"byteOffset":12056,
			"target":34963
		},
		{
			"buffer":0,
			"byteLength":624,
			"byteOffset":12488,
			"target":34962
		},
		{
			"buffer":0,
			"byteLength":624,
			"byteOffset":13112,
			"target":34962
		},
		{
			"buffer":0,
			"byteLength":416,
			"byteOffset":13736,
			"target":34962
		},
		{
			"buffer":0,
			"byteLength":208,
			"byteOffset":14152,
			"target":34962
		},
		{
			"buffer":0,
			"byteLength":832,
			"byteOffset":14360,
			"target":34962
		},
		{
			"buffer":0,
			"byteLength":432,
			"byteOffset":15192,
			"target":34963
		},
		{
			"buffer":0,
			"byteLength":540,
			"byteOffset":15624,
			"target":34962
		},
		{
			"buffer":0,
			"byteLength":540,
			"byteOffset":16164,
			"target":34962
		},
		{
			"buffer":0,
			"byteLength":360,
			"byteOffset":16704,
			"target":34962
		},
		{
			"buffer":0,
			"byteLength":180,
			"byteOffset":17064,
			"target":34962
		},
		{
			"buffer":0,
			"byteLength":720,
			"byteOffset":17244,
			"target":34962
		},
		{
			"buffer":0,
			"byteLength":384,
			"byteOffset":17964,
			"target":34963
		},
		{
			"buffer":0,
			"byteLength":540,
			"byteOffset":18348,
			"target":34962
		},
		{
			"buffer":0,
			"byteLength":540,
			"byteOffset":18888,
			"target":34962
		},
		{
			"buffer":0,
			"byteLength":360,
			"byteOffset":19428,
			"target":34962
		},
		{
			"buffer":0,
			"byteLength":180,
			"byteOffset":19788,
			"target":34962
		},
		{
			"buffer":0,
			"byteLength":720,
			"byteOffset":19968,
			"target":34962
		},
		{
			"buffer":0,
			"byteLength":384,
			"byteOffset":20688,
			"target":34963
		},
		{
			"buffer":0,
			"byteLength":276,
			"byteOffset":21072,
			"target":34962
		},
		{
			"buffer":0,
			"byteLength":276,
			"byteOffset":21348,
			"target":34962
		},
		{
			"buffer":0,
			"byteLength":184,
			"byteOffset":21624,
			"target":34962
		},
		{
			"buffer":0,
			"byteLength":92,
			"byteOffset":21808,
			"target":34962
		},
		{
			"buffer":0,
			"byteLength":368,
			"byteOffset":21900,
			"target":34962
		},
		{
			"buffer":0,
			"byteLength":222,
			"byteOffset":22268,
			"target":34963
		},
		{
			"buffer":0,
			"byteLength":276,
			"byteOffset":22492,
			"target":34962
		},
		{
			"buffer":0,
			"byteLength":276,
			"byteOffset":22768,
			"target":34962
		},
		{
			"buffer":0,
			"byteLength":184,
			"byteOffset":23044,
			"target":34962
		},
		{
			"buffer":0,
			"byteLength":92,
			"byteOffset":23228,
			"target":34962
		},
		{
			"buffer":0,
			"byteLength":368,
			"byteOffset":23320,
			"target":34962
		},
		{
			"buffer":0,
			"byteLength":222,
			"byteOffset":23688,
			"target":34963
		},
		{
			"buffer":0,
			"byteLength":480,
			"byteOffset":23912,
			"target":34962
		},
		{
			"buffer":0,
			"byteLength":480,
			"byteOffset":24392,
			"target":34962
		},
		{
			"buffer":0,
			"byteLength":320,
			"byteOffset":24872,
			"target":34962
		},
		{
			"buffer":0,
			"byteLength":160,
			"byteOffset":25192,
			"target":34962
		},
		{
			"buffer":0,
			"byteLength":640,
			"byteOffset":25352,
			"target":34962
		},
		{
			"buffer":0,
			"byteLength":456,
			"byteOffset":25992,
			"target":34963
		},
		{
			"buffer":0,
			"byteLength":480,
			"byteOffset":26448,
			"target":34962
		},
		{
			"buffer":0,
			"byteLength":480,
			"byteOffset":26928,
			"target":34962
		},
		{
			"buffer":0,
			"byteLength":320,
			"byteOffset":27408,
			"target":34962
		},
		{
			"buffer":0,
			"byteLength":160,
			"byteOffset":27728,
			"target":34962
		},
		{
			"buffer":0,
			"byteLength":640,
			"byteOffset":27888,
			"target":34962
		},
		{
			"buffer":0,
			"byteLength":456,
			"byteOffset":28528,
			"target":34963
		},
		{
			"buffer":0,
			"byteLength":396,
			"byteOffset":28984,
			"target":34962
		},
		{
			"buffer":0,
			"byteLength":396,
			"byteOffset":29380,
			"target":34962
		},
		{
			"buffer":0,
			"byteLength":264,
			"byteOffset":29776,
			"target":34962
		},
		{
			"buffer":0,
			"byteLength":132,
			"byteOffset":30040,
			"target":34962
		},
		{
			"buffer":0,
			"byteLength":528,
			"byteOffset":30172,
			"target":34962
		},
		{
			"buffer":0,
			"byteLength":282,
			"byteOffset":30700,
			"target":34963
		},
		{
			"buffer":0,
			"byteLength":360,
			"byteOffset":30984,
			"target":34962
		},
		{
			"buffer":0,
			"byteLength":360,
			"byteOffset":31344,
			"target":34962
		},
		{
			"buffer":0,
			"byteLength":240,
			"byteOffset":31704,
			"target":34962
		},
		{
			"buffer":0,
			"byteLength":120,
			"byteOffset":31944,
			"target":34962
		},
		{
			"buffer":0,
			"byteLength":480,
			"byteOffset":32064,
			"target":34962
		},
		{
			"buffer":0,
			"byteLength":246,
			"byteOffset":32544,
			"target":34963
		},
		{
			"buffer":0,
			"byteLength":252,
			"byteOffset":32792,
			"target":34962
		},
		{
			"buffer":0,
			"byteLength":252,
			"byteOffset":33044,
			"target":34962
		},
		{
			"buffer":0,
			"byteLength":168,
			"byteOffset":33296,
			"target":34962
		},
		{
			"buffer":0,
			"byteLength":84,
			"byteOffset":33464,
			"target":34962
		},
		{
			"buffer":0,
			"byteLength":336,
			"byteOffset":33548,
			"target":34962
		},
		{
			"buffer":0,
			"byteLength":174,
			"byteOffset":33884,
			"target":34963
		},
		{
			"buffer":0,
			"byteLength":168,
			"byteOffset":34060,
			"target":34962
		},
		{
			"buffer":0,
			"byteLength":168,
			"byteOffset":34228,
			"target":34962
		},
		{
			"buffer":0,
			"byteLength":112,
			"byteOffset":34396,
			"target":34962
		},
		{
			"buffer":0,
			"byteLength":56,
			"byteOffset":34508,
			"target":34962
		},
		{
			"buffer":0,
			"byteLength":224,
			"byteOffset":34564,
			"target":34962
		},
		{
			"buffer":0,
			"byteLength":102,
			"byteOffset":34788,
			"target":34963
		}
	],
	"samplers":[
		{
			"magFilter":9729,
			"minFilter":9987
		}
	],
	"buffers":[
		{
			"byteLength":34892,
			"uri":"Back.bin"
		}
	]
}
