{
	"asset":{
		"generator":"Khronos glTF Blender I/O v4.0.44",
		"version":"2.0"
	},
	"extensionsUsed":[
		"KHR_materials_specular",
		"KHR_materials_ior"
	],
	"scene":0,
	"scenes":[
		{
			"name":"Scene",
			"nodes":[
				53
			]
		}
	],
	"nodes":[
		{
			"name":"n009_object_00003DE8",
			"translation":[
				-1.0463557243347168,
				-0.00016276846872642636,
				-4.281137807993218e-05
			]
		},
		{
			"name":"n010_object_00003ABC",
			"translation":[
				1.0464682579040527,
				0.0002291916753165424,
				-4.297665145713836e-05
			]
		},
		{
			"children":[
				0,
				1
			],
			"name":"n008_object_00003E1C",
			"rotation":[
				0,
				-5.0066901735590363e-08,
				0,
				1
			],
			"translation":[
				-0.0005395037587732077,
				2.7575347423553467,
				2.197892427444458
			]
		},
		{
			"name":"n012_object_00003734",
			"translation":[
				-0.00013547635171562433,
				1.2441047430038452,
				-0.6149502396583557
			]
		},
		{
			"name":"n013_object_00003414",
			"translation":[
				-0.00013547635171562433,
				1.2441047430038452,
				-0.6149502396583557
			]
		},
		{
			"children":[
				3,
				4
			],
			"name":"n011_object_00003768",
			"rotation":[
				0,
				-5.0066901735590363e-08,
				0,
				1
			],
			"translation":[
				-0.00021420822304207832,
				0.8252770900726318,
				2.7868826389312744
			]
		},
		{
			"name":"n015_object_000030B0",
			"rotation":[
				0,
				0,
				-5.421010862427522e-20,
				1
			],
			"translation":[
				0.007305999286472797,
				2.3293919184652623e-06,
				5.8351986353955e-07
			]
		},
		{
			"name":"n016_object_00002AF0",
			"rotation":[
				0,
				0,
				-5.421010862427522e-20,
				1
			],
			"translation":[
				-0.0006129999528639019,
				8.988805006993061e-07,
				2.730118353611033e-07
			]
		},
		{
			"children":[
				6,
				7
			],
			"name":"n014_object_000030E4",
			"rotation":[
				0,
				1.9366831111256033e-05,
				-5.421010862427522e-20,
				1
			],
			"translation":[
				-0.0038492432795464993,
				2.8606743812561035,
				0.7117504477500916
			]
		},
		{
			"name":"n018_object_00001F7C",
			"translation":[
				0.0003288730513304472,
				-1.4560508728027344,
				0.5155811309814453
			]
		},
		{
			"name":"n019_object_00001C10",
			"rotation":[
				0,
				-0.02313496172428131,
				5.552601401250418e-17,
				0.9997323155403137
			],
			"translation":[
				2.991330862045288,
				-1.3938292264938354,
				1.2085652351379395
			]
		},
		{
			"name":"n020_object_00001AD0",
			"rotation":[
				-5.552578240193266e-17,
				-0.999736487865448,
				0,
				0.022953953593969345
			],
			"translation":[
				-2.9906156063079834,
				-1.3949486017227173,
				1.2085614204406738
			]
		},
		{
			"children":[
				9,
				10,
				11
			],
			"name":"n017_object_00002514",
			"rotation":[
				0,
				1.5663690078326908e-07,
				0,
				1
			],
			"translation":[
				-0.00021420781558845192,
				0.8252770900726318,
				2.7868831157684326
			]
		},
		{
			"name":"n021_object_00001990",
			"rotation":[
				0,
				-5.006687331388093e-08,
				0,
				1
			],
			"translation":[
				-0.0011570920469239354,
				5.682950496673584,
				-0.6807625889778137
			]
		},
		{
			"children":[
				2,
				5,
				8,
				12,
				13
			],
			"name":"n007_object_00003E50",
			"rotation":[
				0,
				-0.7071065902709961,
				0,
				0.7071069478988647
			],
			"translation":[
				6.490453243255615,
				-2.612520456314087,
				1.2521988537628204e-05
			]
		},
		{
			"children":[
				14
			],
			"name":"n006_object_00003E84",
			"rotation":[
				5.293955920339377e-23,
				0,
				0,
				1
			],
			"translation":[
				-6.514403820037842,
				0.0381002277135849,
				-5.240185032562295e-07
			]
		},
		{
			"children":[
				15
			],
			"name":"n005_object_00003EB8",
			"rotation":[
				5.293955920339377e-23,
				0,
				0,
				1
			],
			"translation":[
				1.2817496397588002e-08,
				2.3849358967709122e-06,
				-4.637133775922675e-13
			]
		},
		{
			"children":[
				16
			],
			"name":"n004_object_00003EEC",
			"rotation":[
				5.293955920339377e-23,
				0,
				0,
				1
			],
			"translation":[
				0.0246727392077446,
				2.5744118690490723,
				-2.499799484212417e-05
			]
		},
		{
			"name":"n022_object_0000195C",
			"rotation":[
				0,
				-0.7070589065551758,
				3.0663792102493874e-19,
				0.7071546316146851
			],
			"translation":[
				3.0567023754119873,
				2.093609094619751,
				-2.5754219677764922e-05
			]
		},
		{
			"children":[
				17,
				18
			],
			"name":"n003_object_00003F20",
			"rotation":[
				5.293955920339377e-23,
				0,
				0,
				1
			],
			"translation":[
				-0.014737703837454319,
				3.843086004257202,
				-1.1607984573558383e-09
			]
		},
		{
			"children":[
				19
			],
			"name":"n002_object_00003F54",
			"rotation":[
				5.293955920339377e-23,
				0,
				0,
				1
			],
			"translation":[
				2.168404344971009e-19,
				-2.2737367544323206e-13,
				-3.637978807091713e-12
			]
		},
		{
			"children":[
				20
			],
			"name":"n001_object_00003F88",
			"rotation":[
				0,
				0.7071067690849304,
				0,
				0.7071067690849304
			],
			"scale":[
				1,
				0.9999999403953552,
				1
			],
			"translation":[
				-4.999999509891495e-05,
				0,
				0
			]
		},
		{
			"name":"n030_object_000017BC",
			"rotation":[
				0,
				-0.707101047039032,
				0,
				0.7071124911308289
			],
			"translation":[
				3.2264890670776367,
				0.5427567958831787,
				-4.977226240043819e-07
			]
		},
		{
			"children":[
				22
			],
			"name":"n029_object_000017F0",
			"translation":[
				-3.2264881134033203,
				-0.5445647239685059,
				-1.9563655584420303e-08
			]
		},
		{
			"children":[
				23
			],
			"name":"n028_object_00001824",
			"translation":[
				-1.0717201348597882e-08,
				7.334220342158915e-09,
				9.852391968934171e-08
			]
		},
		{
			"children":[
				24
			],
			"name":"n027_object_00001858",
			"translation":[
				-4.354003237949655e-07,
				0.001809365930967033,
				9.852210069993816e-08
			]
		},
		{
			"children":[
				25
			],
			"name":"n026_object_0000188C",
			"translation":[
				1.7987406253814697,
				-1.761533260345459,
				-2.0770887232401947e-08
			]
		},
		{
			"children":[
				26
			],
			"name":"n025_object_000018C0",
			"translation":[
				-1.7143291234970093,
				-1.687907338142395,
				-2.9316453264982556e-07
			]
		},
		{
			"children":[
				27
			],
			"name":"n024_object_000018F4",
			"translation":[
				-9.595567007636419e-09,
				3.07637080254608e-08,
				6.299164567735716e-08
			]
		},
		{
			"children":[
				28
			],
			"name":"n023_object_00001928",
			"rotation":[
				0,
				0.7070390582084656,
				0,
				0.70717453956604
			],
			"translation":[
				1.4820001125335693,
				-0.43726304173469543,
				-0.012734000571072102
			]
		},
		{
			"name":"n038_object_0000161C",
			"rotation":[
				0,
				-0.707101047039032,
				0,
				0.7071124911308289
			],
			"translation":[
				3.226278781890869,
				0.5439941883087158,
				3.368787986346433e-07
			]
		},
		{
			"children":[
				30
			],
			"name":"n037_object_00001650",
			"translation":[
				-3.226278781890869,
				-0.5458033084869385,
				-1.7899445481361909e-07
			]
		},
		{
			"children":[
				31
			],
			"name":"n036_object_00001684",
			"translation":[
				-6.05463412739482e-08,
				7.225900162666221e-07,
				-1.400201625756381e-07
			]
		},
		{
			"children":[
				32
			],
			"name":"n035_object_000016B8",
			"translation":[
				2.59857785067652e-07,
				0.0018091275123879313,
				9.838749548407577e-08
			]
		},
		{
			"children":[
				33
			],
			"name":"n034_object_000016EC",
			"translation":[
				1.7987405061721802,
				-1.761533260345459,
				-1.212863821820065e-06
			]
		},
		{
			"children":[
				34
			],
			"name":"n033_object_00001720",
			"translation":[
				-1.7143299579620361,
				-1.6879081726074219,
				-5.474594999554938e-08
			]
		},
		{
			"children":[
				35
			],
			"name":"n032_object_00001754",
			"translation":[
				-2.1036768771409697e-08,
				3.0763782632448056e-08,
				-5.640727707145743e-08
			]
		},
		{
			"children":[
				36
			],
			"name":"n031_object_00001788",
			"rotation":[
				0,
				0.7070390582084656,
				0,
				0.70717453956604
			],
			"translation":[
				-1.482009768486023,
				-0.43721804022789,
				-0.012735000811517239
			]
		},
		{
			"name":"n039_object_000015E8"
		},
		{
			"children":[
				21,
				29,
				37,
				38
			],
			"name":"n000_object_00003FBC",
			"rotation":[
				-0.7071067690849304,
				0,
				0,
				0.7071067690849304
			],
			"translation":[
				9.999999747378752e-05,
				0,
				0
			]
		},
		{
			"mesh":0,
			"name":"meshnode_0",
			"skin":0
		},
		{
			"mesh":1,
			"name":"meshnode_1",
			"skin":0
		},
		{
			"mesh":2,
			"name":"meshnode_10",
			"skin":0
		},
		{
			"mesh":3,
			"name":"meshnode_11",
			"skin":0
		},
		{
			"mesh":4,
			"name":"meshnode_12",
			"skin":0
		},
		{
			"mesh":5,
			"name":"meshnode_2",
			"skin":0
		},
		{
			"mesh":6,
			"name":"meshnode_3",
			"skin":0
		},
		{
			"mesh":7,
			"name":"meshnode_4",
			"skin":0
		},
		{
			"mesh":8,
			"name":"meshnode_5",
			"skin":0
		},
		{
			"mesh":9,
			"name":"meshnode_6",
			"skin":0
		},
		{
			"mesh":10,
			"name":"meshnode_7",
			"skin":0
		},
		{
			"mesh":11,
			"name":"meshnode_8",
			"skin":0
		},
		{
			"mesh":12,
			"name":"meshnode_9",
			"skin":0
		},
		{
			"children":[
				40,
				41,
				42,
				43,
				44,
				45,
				46,
				47,
				48,
				49,
				50,
				51,
				52,
				39
			],
			"name":"Armature",
			"rotation":[
				0.7071068286895752,
				0,
				0,
				0.7071068286895752
			]
		}
	],
	"materials":[
		{
			"doubleSided":true,
			"extensions":{
				"KHR_materials_specular":{
					"specularFactor":0
				},
				"KHR_materials_ior":{
					"ior":1.4500000476837158
				}
			},
			"name":"attach_00003DD0_material_0",
			"pbrMetallicRoughness":{
				"baseColorTexture":{
					"index":0
				},
				"metallicFactor":0,
				"roughnessFactor":0.5
			}
		},
		{
			"doubleSided":true,
			"extensions":{
				"KHR_materials_specular":{
					"specularFactor":0
				},
				"KHR_materials_ior":{
					"ior":1.4500000476837158
				}
			},
			"name":"attach_00003AA4_material_0",
			"pbrMetallicRoughness":{
				"baseColorTexture":{
					"index":1
				},
				"metallicFactor":0,
				"roughnessFactor":0.5
			}
		},
		{
			"doubleSided":true,
			"extensions":{
				"KHR_materials_specular":{
					"specularFactor":0
				},
				"KHR_materials_ior":{
					"ior":1.4500000476837158
				}
			},
			"name":"attach_00001BF8_material_0",
			"pbrMetallicRoughness":{
				"baseColorTexture":{
					"index":2
				},
				"metallicFactor":0,
				"roughnessFactor":0.5
			}
		},
		{
			"doubleSided":true,
			"extensions":{
				"KHR_materials_specular":{
					"specularFactor":0
				},
				"KHR_materials_ior":{
					"ior":1.4500000476837158
				}
			},
			"name":"attach_00001AB8_material_0",
			"pbrMetallicRoughness":{
				"baseColorTexture":{
					"index":3
				},
				"metallicFactor":0,
				"roughnessFactor":0.5
			}
		},
		{
			"doubleSided":true,
			"extensions":{
				"KHR_materials_specular":{
					"specularFactor":0
				},
				"KHR_materials_ior":{
					"ior":1.4500000476837158
				}
			},
			"name":"attach_000015D0_material_0",
			"pbrMetallicRoughness":{
				"baseColorTexture":{
					"index":4
				},
				"metallicFactor":0,
				"roughnessFactor":0.5
			}
		},
		{
			"doubleSided":true,
			"extensions":{
				"KHR_materials_specular":{
					"specularFactor":0
				},
				"KHR_materials_ior":{
					"ior":1.4500000476837158
				}
			},
			"name":"attach_0000371C_material_0",
			"pbrMetallicRoughness":{
				"baseColorTexture":{
					"index":5
				},
				"metallicFactor":0,
				"roughnessFactor":0.5
			}
		},
		{
			"doubleSided":true,
			"extensions":{
				"KHR_materials_specular":{
					"specularFactor":0
				},
				"KHR_materials_ior":{
					"ior":1.4500000476837158
				}
			},
			"name":"attach_000033FC_material_0",
			"pbrMetallicRoughness":{
				"baseColorTexture":{
					"index":6
				},
				"metallicFactor":0,
				"roughnessFactor":0.5
			}
		},
		{
			"doubleSided":true,
			"extensions":{
				"KHR_materials_specular":{
					"specularFactor":0
				},
				"KHR_materials_ior":{
					"ior":1.4500000476837158
				}
			},
			"name":"attach_00003098_material_0",
			"pbrMetallicRoughness":{
				"baseColorTexture":{
					"index":7
				},
				"metallicFactor":0,
				"roughnessFactor":0.5
			}
		},
		{
			"doubleSided":true,
			"extensions":{
				"KHR_materials_specular":{
					"specularFactor":0
				},
				"KHR_materials_ior":{
					"ior":1.4500000476837158
				}
			},
			"name":"attach_00002AD8_material_0",
			"pbrMetallicRoughness":{
				"baseColorTexture":{
					"index":8
				},
				"metallicFactor":0,
				"roughnessFactor":0.5
			}
		},
		{
			"doubleSided":true,
			"extensions":{
				"KHR_materials_specular":{
					"specularFactor":0
				},
				"KHR_materials_ior":{
					"ior":1.4500000476837158
				}
			},
			"name":"attach_000024FC_material_0",
			"pbrMetallicRoughness":{
				"baseColorTexture":{
					"index":9
				},
				"metallicFactor":0,
				"roughnessFactor":0.5
			}
		},
		{
			"doubleSided":true,
			"extensions":{
				"KHR_materials_specular":{
					"specularFactor":0
				},
				"KHR_materials_ior":{
					"ior":1.4500000476837158
				}
			},
			"name":"attach_000024FC_material_1",
			"pbrMetallicRoughness":{
				"baseColorTexture":{
					"index":10
				},
				"metallicFactor":0,
				"roughnessFactor":0.5
			}
		},
		{
			"doubleSided":true,
			"extensions":{
				"KHR_materials_specular":{
					"specularFactor":0
				},
				"KHR_materials_ior":{
					"ior":1.4500000476837158
				}
			},
			"name":"attach_00001F64_material_0",
			"pbrMetallicRoughness":{
				"baseColorTexture":{
					"index":11
				},
				"metallicFactor":0,
				"roughnessFactor":0.5
			}
		},
		{
			"doubleSided":true,
			"extensions":{
				"KHR_materials_specular":{
					"specularFactor":0
				},
				"KHR_materials_ior":{
					"ior":1.4500000476837158
				}
			},
			"name":"attach_00001F64_material_1",
			"pbrMetallicRoughness":{
				"baseColorTexture":{
					"index":12
				},
				"metallicFactor":0,
				"roughnessFactor":0.5
			}
		}
	],
	"meshes":[
		{
			"name":"meshId0_name",
			"primitives":[
				{
					"attributes":{
						"POSITION":0,
						"NORMAL":1,
						"TEXCOORD_0":2,
						"JOINTS_0":3,
						"WEIGHTS_0":4
					},
					"indices":5,
					"material":0
				}
			]
		},
		{
			"name":"meshId1_name",
			"primitives":[
				{
					"attributes":{
						"POSITION":7,
						"NORMAL":8,
						"TEXCOORD_0":9,
						"JOINTS_0":10,
						"WEIGHTS_0":11
					},
					"indices":12,
					"material":1
				}
			]
		},
		{
			"name":"meshId10_name",
			"primitives":[
				{
					"attributes":{
						"POSITION":13,
						"NORMAL":14,
						"TEXCOORD_0":15,
						"JOINTS_0":16,
						"WEIGHTS_0":17
					},
					"indices":18,
					"material":2
				}
			]
		},
		{
			"name":"meshId11_name",
			"primitives":[
				{
					"attributes":{
						"POSITION":19,
						"NORMAL":20,
						"TEXCOORD_0":21,
						"JOINTS_0":22,
						"WEIGHTS_0":23
					},
					"indices":24,
					"material":3
				}
			]
		},
		{
			"name":"meshId12_name",
			"primitives":[
				{
					"attributes":{
						"POSITION":25,
						"NORMAL":26,
						"TEXCOORD_0":27,
						"JOINTS_0":28,
						"WEIGHTS_0":29
					},
					"indices":30,
					"material":4
				}
			]
		},
		{
			"name":"meshId2_name",
			"primitives":[
				{
					"attributes":{
						"POSITION":31,
						"NORMAL":32,
						"TEXCOORD_0":33,
						"JOINTS_0":34,
						"WEIGHTS_0":35
					},
					"indices":36,
					"material":5
				}
			]
		},
		{
			"name":"meshId3_name",
			"primitives":[
				{
					"attributes":{
						"POSITION":37,
						"NORMAL":38,
						"TEXCOORD_0":39,
						"JOINTS_0":40,
						"WEIGHTS_0":41
					},
					"indices":42,
					"material":6
				}
			]
		},
		{
			"name":"meshId4_name",
			"primitives":[
				{
					"attributes":{
						"POSITION":43,
						"NORMAL":44,
						"TEXCOORD_0":45,
						"JOINTS_0":46,
						"WEIGHTS_0":47
					},
					"indices":48,
					"material":7
				}
			]
		},
		{
			"name":"meshId5_name",
			"primitives":[
				{
					"attributes":{
						"POSITION":49,
						"NORMAL":50,
						"TEXCOORD_0":51,
						"JOINTS_0":52,
						"WEIGHTS_0":53
					},
					"indices":54,
					"material":8
				}
			]
		},
		{
			"name":"meshId6_name",
			"primitives":[
				{
					"attributes":{
						"POSITION":55,
						"NORMAL":56,
						"TEXCOORD_0":57,
						"JOINTS_0":58,
						"WEIGHTS_0":59
					},
					"indices":60,
					"material":9
				}
			]
		},
		{
			"name":"meshId7_name",
			"primitives":[
				{
					"attributes":{
						"POSITION":61,
						"NORMAL":62,
						"TEXCOORD_0":63,
						"JOINTS_0":64,
						"WEIGHTS_0":65
					},
					"indices":66,
					"material":10
				}
			]
		},
		{
			"name":"meshId8_name",
			"primitives":[
				{
					"attributes":{
						"POSITION":67,
						"NORMAL":68,
						"TEXCOORD_0":69,
						"JOINTS_0":70,
						"WEIGHTS_0":71
					},
					"indices":72,
					"material":11
				}
			]
		},
		{
			"name":"meshId9_name",
			"primitives":[
				{
					"attributes":{
						"POSITION":73,
						"NORMAL":74,
						"TEXCOORD_0":75,
						"JOINTS_0":76,
						"WEIGHTS_0":77
					},
					"indices":78,
					"material":12
				}
			]
		}
	],
	"textures":[
		{
			"sampler":0,
			"source":0
		},
		{
			"sampler":0,
			"source":0
		},
		{
			"sampler":0,
			"source":1
		},
		{
			"sampler":0,
			"source":1
		},
		{
			"sampler":0,
			"source":2
		},
		{
			"sampler":0,
			"source":3
		},
		{
			"sampler":0,
			"source":3
		},
		{
			"sampler":0,
			"source":3
		},
		{
			"sampler":0,
			"source":3
		},
		{
			"sampler":0,
			"source":4
		},
		{
			"sampler":0,
			"source":5
		},
		{
			"sampler":0,
			"source":3
		},
		{
			"sampler":0,
			"source":6
		}
	],
	"images":[
		{
			"mimeType":"image/png",
			"name":"todo_eye_o4.png",
			"uri":"todo_eye_o4.png"
		},
		{
			"mimeType":"image/png",
			"name":"opponentbacktuskcolor.png",
			"uri":"opponentbacktuskcolor.png"
		},
		{
			"mimeType":"image/png",
			"name":"todofront_o4.png",
			"uri":"todofront_o4.png"
		},
		{
			"mimeType":"image/png",
			"name":"todoarm_o4.png",
			"uri":"todoarm_o4.png"
		},
		{
			"mimeType":"image/png",
			"name":"todouwaago_o4.png",
			"uri":"todouwaago_o4.png"
		},
		{
			"mimeType":"image/png",
			"name":"todonose_o4.png",
			"uri":"todonose_o4.png"
		},
		{
			"mimeType":"image/png",
			"name":"todositaago2_o4.png",
			"uri":"todositaago2_o4.png"
		}
	],
	"skins":[
		{
			"inverseBindMatrices":6,
			"joints":[
				39,
				21,
				20,
				19,
				17,
				16,
				15,
				14,
				2,
				0,
				1,
				5,
				3,
				4,
				8,
				6,
				7,
				12,
				9,
				10,
				11,
				13,
				18,
				29,
				28,
				27,
				26,
				25,
				24,
				23,
				22,
				37,
				36,
				35,
				34,
				33,
				32,
				31,
				30,
				38
			],
			"name":"Armature"
		}
	],
	"accessors":[
		{
			"bufferView":0,
			"componentType":5126,
			"count":19,
			"max":[
				0.06484270095825195,
				8.3310546875,
				3.6957342624664307
			],
			"min":[
				-2.2998204231262207,
				5.3878493309021,
				0.9258154630661011
			],
			"type":"VEC3"
		},
		{
			"bufferView":1,
			"componentType":5126,
			"count":19,
			"type":"VEC3"
		},
		{
			"bufferView":2,
			"componentType":5126,
			"count":19,
			"type":"VEC2"
		},
		{
			"bufferView":3,
			"componentType":5121,
			"count":19,
			"type":"VEC4"
		},
		{
			"bufferView":4,
			"componentType":5126,
			"count":19,
			"type":"VEC4"
		},
		{
			"bufferView":5,
			"componentType":5123,
			"count":90,
			"type":"SCALAR"
		},
		{
			"bufferView":6,
			"componentType":5126,
			"count":40,
			"type":"MAT4"
		},
		{
			"bufferView":7,
			"componentType":5126,
			"count":19,
			"max":[
				2.2988343238830566,
				8.331337928771973,
				3.6957333087921143
			],
			"min":[
				-0.06623256206512451,
				5.388315677642822,
				0.9258147478103638
			],
			"type":"VEC3"
		},
		{
			"bufferView":8,
			"componentType":5126,
			"count":19,
			"type":"VEC3"
		},
		{
			"bufferView":9,
			"componentType":5126,
			"count":19,
			"type":"VEC2"
		},
		{
			"bufferView":10,
			"componentType":5121,
			"count":19,
			"type":"VEC4"
		},
		{
			"bufferView":11,
			"componentType":5126,
			"count":19,
			"type":"VEC4"
		},
		{
			"bufferView":12,
			"componentType":5123,
			"count":90,
			"type":"SCALAR"
		},
		{
			"bufferView":13,
			"componentType":5126,
			"count":17,
			"max":[
				3.871856927871704,
				5.2865424156188965,
				4.913064002990723
			],
			"min":[
				1.512131690979004,
				1.8157081604003906,
				2.669097900390625
			],
			"type":"VEC3"
		},
		{
			"bufferView":14,
			"componentType":5126,
			"count":17,
			"type":"VEC3"
		},
		{
			"bufferView":15,
			"componentType":5126,
			"count":17,
			"type":"VEC2"
		},
		{
			"bufferView":16,
			"componentType":5121,
			"count":17,
			"type":"VEC4"
		},
		{
			"bufferView":17,
			"componentType":5126,
			"count":17,
			"type":"VEC4"
		},
		{
			"bufferView":18,
			"componentType":5123,
			"count":30,
			"type":"SCALAR"
		},
		{
			"bufferView":19,
			"componentType":5126,
			"count":17,
			"max":[
				-1.5119489431381226,
				5.285647869110107,
				4.912985801696777
			],
			"min":[
				-3.8713741302490234,
				1.8143478631973267,
				2.668900728225708
			],
			"type":"VEC3"
		},
		{
			"bufferView":20,
			"componentType":5126,
			"count":17,
			"type":"VEC3"
		},
		{
			"bufferView":21,
			"componentType":5126,
			"count":17,
			"type":"VEC2"
		},
		{
			"bufferView":22,
			"componentType":5121,
			"count":17,
			"type":"VEC4"
		},
		{
			"bufferView":23,
			"componentType":5126,
			"count":17,
			"type":"VEC4"
		},
		{
			"bufferView":24,
			"componentType":5123,
			"count":30,
			"type":"SCALAR"
		},
		{
			"bufferView":25,
			"componentType":5126,
			"count":162,
			"max":[
				5.794065952301025,
				7.518087863922119,
				4.676910877227783
			],
			"min":[
				-5.794744968414307,
				-3.4914472103118896,
				-4.164133071899414
			],
			"type":"VEC3"
		},
		{
			"bufferView":26,
			"componentType":5126,
			"count":162,
			"type":"VEC3"
		},
		{
			"bufferView":27,
			"componentType":5126,
			"count":162,
			"type":"VEC2"
		},
		{
			"bufferView":28,
			"componentType":5121,
			"count":162,
			"type":"VEC4"
		},
		{
			"bufferView":29,
			"componentType":5126,
			"count":162,
			"type":"VEC4"
		},
		{
			"bufferView":30,
			"componentType":5123,
			"count":816,
			"type":"SCALAR"
		},
		{
			"bufferView":31,
			"componentType":5126,
			"count":21,
			"max":[
				2.5849125385284424,
				6.860467433929443,
				3.7776498794555664
			],
			"min":[
				-0.0005684384377673268,
				5.2021803855896,
				0.7785171270370483
			],
			"type":"VEC3"
		},
		{
			"bufferView":32,
			"componentType":5126,
			"count":21,
			"type":"VEC3"
		},
		{
			"bufferView":33,
			"componentType":5126,
			"count":21,
			"type":"VEC2"
		},
		{
			"bufferView":34,
			"componentType":5121,
			"count":21,
			"type":"VEC4"
		},
		{
			"bufferView":35,
			"componentType":5126,
			"count":21,
			"type":"VEC4"
		},
		{
			"bufferView":36,
			"componentType":5123,
			"count":78,
			"type":"SCALAR"
		},
		{
			"bufferView":37,
			"componentType":5126,
			"count":25,
			"max":[
				-0.0002788683632388711,
				6.859604835510254,
				3.7776503562927246
			],
			"min":[
				-2.585864543914795,
				5.2021803855896,
				0.7785184383392334
			],
			"type":"VEC3"
		},
		{
			"bufferView":38,
			"componentType":5126,
			"count":25,
			"type":"VEC3"
		},
		{
			"bufferView":39,
			"componentType":5126,
			"count":25,
			"type":"VEC2"
		},
		{
			"bufferView":40,
			"componentType":5121,
			"count":25,
			"type":"VEC4"
		},
		{
			"bufferView":41,
			"componentType":5126,
			"count":25,
			"type":"VEC4"
		},
		{
			"bufferView":42,
			"componentType":5123,
			"count":78,
			"type":"SCALAR"
		},
		{
			"bufferView":43,
			"componentType":5126,
			"count":36,
			"max":[
				2.794206380844116,
				9.428214073181152,
				3.8344037532806396
			],
			"min":[
				0.0028676942456513643,
				5.545196533203125,
				-0.6095044016838074
			],
			"type":"VEC3"
		},
		{
			"bufferView":44,
			"componentType":5126,
			"count":36,
			"type":"VEC3"
		},
		{
			"bufferView":45,
			"componentType":5126,
			"count":36,
			"type":"VEC2"
		},
		{
			"bufferView":46,
			"componentType":5121,
			"count":36,
			"type":"VEC4"
		},
		{
			"bufferView":47,
			"componentType":5126,
			"count":36,
			"type":"VEC4"
		},
		{
			"bufferView":48,
			"componentType":5123,
			"count":192,
			"type":"SCALAR"
		},
		{
			"bufferView":49,
			"componentType":5126,
			"count":42,
			"max":[
				-0.00385411293245852,
				9.42796802520752,
				3.8344037532806396
			],
			"min":[
				-2.7951338291168213,
				5.544408798217773,
				-0.6095032095909119
			],
			"type":"VEC3"
		},
		{
			"bufferView":50,
			"componentType":5126,
			"count":42,
			"type":"VEC3"
		},
		{
			"bufferView":51,
			"componentType":5126,
			"count":42,
			"type":"VEC2"
		},
		{
			"bufferView":52,
			"componentType":5121,
			"count":42,
			"type":"VEC4"
		},
		{
			"bufferView":53,
			"componentType":5126,
			"count":42,
			"type":"VEC4"
		},
		{
			"bufferView":54,
			"componentType":5123,
			"count":192,
			"type":"SCALAR"
		},
		{
			"bufferView":55,
			"componentType":5126,
			"count":25,
			"max":[
				4.161535739898682,
				5.888143062591553,
				6.434117317199707
			],
			"min":[
				-4.161951541900635,
				2.2632927894592285,
				1.6954243183135986
			],
			"type":"VEC3"
		},
		{
			"bufferView":56,
			"componentType":5126,
			"count":25,
			"type":"VEC3"
		},
		{
			"bufferView":57,
			"componentType":5126,
			"count":25,
			"type":"VEC2"
		},
		{
			"bufferView":58,
			"componentType":5121,
			"count":25,
			"type":"VEC4"
		},
		{
			"bufferView":59,
			"componentType":5126,
			"count":25,
			"type":"VEC4"
		},
		{
			"bufferView":60,
			"componentType":5123,
			"count":111,
			"type":"SCALAR"
		},
		{
			"bufferView":61,
			"componentType":5126,
			"count":19,
			"max":[
				3.25909423828125,
				6.159421920776367,
				6.434117317199707
			],
			"min":[
				-3.2590386867523193,
				2.8079957962036133,
				1.6954243183135986
			],
			"type":"VEC3"
		},
		{
			"bufferView":62,
			"componentType":5126,
			"count":19,
			"type":"VEC3"
		},
		{
			"bufferView":63,
			"componentType":5126,
			"count":19,
			"type":"VEC2"
		},
		{
			"bufferView":64,
			"componentType":5121,
			"count":19,
			"type":"VEC4"
		},
		{
			"bufferView":65,
			"componentType":5126,
			"count":19,
			"type":"VEC4"
		},
		{
			"bufferView":66,
			"componentType":5123,
			"count":75,
			"type":"SCALAR"
		},
		{
			"bufferView":67,
			"componentType":5126,
			"count":17,
			"max":[
				2.7094922065734863,
				2.9170312881469727,
				6.383626461029053
			],
			"min":[
				-2.7091331481933594,
				1.6470831632614136,
				0.9192028045654297
			],
			"type":"VEC3"
		},
		{
			"bufferView":68,
			"componentType":5126,
			"count":17,
			"type":"VEC3"
		},
		{
			"bufferView":69,
			"componentType":5126,
			"count":17,
			"type":"VEC2"
		},
		{
			"bufferView":70,
			"componentType":5121,
			"count":17,
			"type":"VEC4"
		},
		{
			"bufferView":71,
			"componentType":5126,
			"count":17,
			"type":"VEC4"
		},
		{
			"bufferView":72,
			"componentType":5123,
			"count":60,
			"type":"SCALAR"
		},
		{
			"bufferView":73,
			"componentType":5126,
			"count":10,
			"max":[
				2.7093586921691895,
				3.4765117168426514,
				6.383626461029053
			],
			"min":[
				-2.7091331481933594,
				2.8974881172180176,
				0.9216036796569824
			],
			"type":"VEC3"
		},
		{
			"bufferView":74,
			"componentType":5126,
			"count":10,
			"type":"VEC3"
		},
		{
			"bufferView":75,
			"componentType":5126,
			"count":10,
			"type":"VEC2"
		},
		{
			"bufferView":76,
			"componentType":5121,
			"count":10,
			"type":"VEC4"
		},
		{
			"bufferView":77,
			"componentType":5126,
			"count":10,
			"type":"VEC4"
		},
		{
			"bufferView":78,
			"componentType":5123,
			"count":30,
			"type":"SCALAR"
		}
	],
	"bufferViews":[
		{
			"buffer":0,
			"byteLength":228,
			"byteOffset":0,
			"target":34962
		},
		{
			"buffer":0,
			"byteLength":228,
			"byteOffset":228,
			"target":34962
		},
		{
			"buffer":0,
			"byteLength":152,
			"byteOffset":456,
			"target":34962
		},
		{
			"buffer":0,
			"byteLength":76,
			"byteOffset":608,
			"target":34962
		},
		{
			"buffer":0,
			"byteLength":304,
			"byteOffset":684,
			"target":34962
		},
		{
			"buffer":0,
			"byteLength":180,
			"byteOffset":988,
			"target":34963
		},
		{
			"buffer":0,
			"byteLength":2560,
			"byteOffset":1168
		},
		{
			"buffer":0,
			"byteLength":228,
			"byteOffset":3728,
			"target":34962
		},
		{
			"buffer":0,
			"byteLength":228,
			"byteOffset":3956,
			"target":34962
		},
		{
			"buffer":0,
			"byteLength":152,
			"byteOffset":4184,
			"target":34962
		},
		{
			"buffer":0,
			"byteLength":76,
			"byteOffset":4336,
			"target":34962
		},
		{
			"buffer":0,
			"byteLength":304,
			"byteOffset":4412,
			"target":34962
		},
		{
			"buffer":0,
			"byteLength":180,
			"byteOffset":4716,
			"target":34963
		},
		{
			"buffer":0,
			"byteLength":204,
			"byteOffset":4896,
			"target":34962
		},
		{
			"buffer":0,
			"byteLength":204,
			"byteOffset":5100,
			"target":34962
		},
		{
			"buffer":0,
			"byteLength":136,
			"byteOffset":5304,
			"target":34962
		},
		{
			"buffer":0,
			"byteLength":68,
			"byteOffset":5440,
			"target":34962
		},
		{
			"buffer":0,
			"byteLength":272,
			"byteOffset":5508,
			"target":34962
		},
		{
			"buffer":0,
			"byteLength":60,
			"byteOffset":5780,
			"target":34963
		},
		{
			"buffer":0,
			"byteLength":204,
			"byteOffset":5840,
			"target":34962
		},
		{
			"buffer":0,
			"byteLength":204,
			"byteOffset":6044,
			"target":34962
		},
		{
			"buffer":0,
			"byteLength":136,
			"byteOffset":6248,
			"target":34962
		},
		{
			"buffer":0,
			"byteLength":68,
			"byteOffset":6384,
			"target":34962
		},
		{
			"buffer":0,
			"byteLength":272,
			"byteOffset":6452,
			"target":34962
		},
		{
			"buffer":0,
			"byteLength":60,
			"byteOffset":6724,
			"target":34963
		},
		{
			"buffer":0,
			"byteLength":1944,
			"byteOffset":6784,
			"target":34962
		},
		{
			"buffer":0,
			"byteLength":1944,
			"byteOffset":8728,
			"target":34962
		},
		{
			"buffer":0,
			"byteLength":1296,
			"byteOffset":10672,
			"target":34962
		},
		{
			"buffer":0,
			"byteLength":648,
			"byteOffset":11968,
			"target":34962
		},
		{
			"buffer":0,
			"byteLength":2592,
			"byteOffset":12616,
			"target":34962
		},
		{
			"buffer":0,
			"byteLength":1632,
			"byteOffset":15208,
			"target":34963
		},
		{
			"buffer":0,
			"byteLength":252,
			"byteOffset":16840,
			"target":34962
		},
		{
			"buffer":0,
			"byteLength":252,
			"byteOffset":17092,
			"target":34962
		},
		{
			"buffer":0,
			"byteLength":168,
			"byteOffset":17344,
			"target":34962
		},
		{
			"buffer":0,
			"byteLength":84,
			"byteOffset":17512,
			"target":34962
		},
		{
			"buffer":0,
			"byteLength":336,
			"byteOffset":17596,
			"target":34962
		},
		{
			"buffer":0,
			"byteLength":156,
			"byteOffset":17932,
			"target":34963
		},
		{
			"buffer":0,
			"byteLength":300,
			"byteOffset":18088,
			"target":34962
		},
		{
			"buffer":0,
			"byteLength":300,
			"byteOffset":18388,
			"target":34962
		},
		{
			"buffer":0,
			"byteLength":200,
			"byteOffset":18688,
			"target":34962
		},
		{
			"buffer":0,
			"byteLength":100,
			"byteOffset":18888,
			"target":34962
		},
		{
			"buffer":0,
			"byteLength":400,
			"byteOffset":18988,
			"target":34962
		},
		{
			"buffer":0,
			"byteLength":156,
			"byteOffset":19388,
			"target":34963
		},
		{
			"buffer":0,
			"byteLength":432,
			"byteOffset":19544,
			"target":34962
		},
		{
			"buffer":0,
			"byteLength":432,
			"byteOffset":19976,
			"target":34962
		},
		{
			"buffer":0,
			"byteLength":288,
			"byteOffset":20408,
			"target":34962
		},
		{
			"buffer":0,
			"byteLength":144,
			"byteOffset":20696,
			"target":34962
		},
		{
			"buffer":0,
			"byteLength":576,
			"byteOffset":20840,
			"target":34962
		},
		{
			"buffer":0,
			"byteLength":384,
			"byteOffset":21416,
			"target":34963
		},
		{
			"buffer":0,
			"byteLength":504,
			"byteOffset":21800,
			"target":34962
		},
		{
			"buffer":0,
			"byteLength":504,
			"byteOffset":22304,
			"target":34962
		},
		{
			"buffer":0,
			"byteLength":336,
			"byteOffset":22808,
			"target":34962
		},
		{
			"buffer":0,
			"byteLength":168,
			"byteOffset":23144,
			"target":34962
		},
		{
			"buffer":0,
			"byteLength":672,
			"byteOffset":23312,
			"target":34962
		},
		{
			"buffer":0,
			"byteLength":384,
			"byteOffset":23984,
			"target":34963
		},
		{
			"buffer":0,
			"byteLength":300,
			"byteOffset":24368,
			"target":34962
		},
		{
			"buffer":0,
			"byteLength":300,
			"byteOffset":24668,
			"target":34962
		},
		{
			"buffer":0,
			"byteLength":200,
			"byteOffset":24968,
			"target":34962
		},
		{
			"buffer":0,
			"byteLength":100,
			"byteOffset":25168,
			"target":34962
		},
		{
			"buffer":0,
			"byteLength":400,
			"byteOffset":25268,
			"target":34962
		},
		{
			"buffer":0,
			"byteLength":222,
			"byteOffset":25668,
			"target":34963
		},
		{
			"buffer":0,
			"byteLength":228,
			"byteOffset":25892,
			"target":34962
		},
		{
			"buffer":0,
			"byteLength":228,
			"byteOffset":26120,
			"target":34962
		},
		{
			"buffer":0,
			"byteLength":152,
			"byteOffset":26348,
			"target":34962
		},
		{
			"buffer":0,
			"byteLength":76,
			"byteOffset":26500,
			"target":34962
		},
		{
			"buffer":0,
			"byteLength":304,
			"byteOffset":26576,
			"target":34962
		},
		{
			"buffer":0,
			"byteLength":150,
			"byteOffset":26880,
			"target":34963
		},
		{
			"buffer":0,
			"byteLength":204,
			"byteOffset":27032,
			"target":34962
		},
		{
			"buffer":0,
			"byteLength":204,
			"byteOffset":27236,
			"target":34962
		},
		{
			"buffer":0,
			"byteLength":136,
			"byteOffset":27440,
			"target":34962
		},
		{
			"buffer":0,
			"byteLength":68,
			"byteOffset":27576,
			"target":34962
		},
		{
			"buffer":0,
			"byteLength":272,
			"byteOffset":27644,
			"target":34962
		},
		{
			"buffer":0,
			"byteLength":120,
			"byteOffset":27916,
			"target":34963
		},
		{
			"buffer":0,
			"byteLength":120,
			"byteOffset":28036,
			"target":34962
		},
		{
			"buffer":0,
			"byteLength":120,
			"byteOffset":28156,
			"target":34962
		},
		{
			"buffer":0,
			"byteLength":80,
			"byteOffset":28276,
			"target":34962
		},
		{
			"buffer":0,
			"byteLength":40,
			"byteOffset":28356,
			"target":34962
		},
		{
			"buffer":0,
			"byteLength":160,
			"byteOffset":28396,
			"target":34962
		},
		{
			"buffer":0,
			"byteLength":60,
			"byteOffset":28556,
			"target":34963
		}
	],
	"samplers":[
		{
			"magFilter":9729,
			"minFilter":9987
		}
	],
	"buffers":[
		{
			"byteLength":28616,
			"uri":"OpponentBack.bin"
		}
	]
}
